<svg width="85.000000" height="85.000000" viewBox="0 0 85 85" fill="none" xmlns="http://www.w3.org/2000/svg" xmlns:xlink="http://www.w3.org/1999/xlink">
	<desc>
			Created with Pixso.
	</desc>
	<defs>
		<clipPath id="clip877_12252">
			<rect id="instructor 1" width="85.000000" height="85.000000" fill="white" fill-opacity="0"/>
		</clipPath>
	</defs>
	<rect id="instructor 1" width="85.000000" height="85.000000" fill="#FFFFFF" fill-opacity="0"/>
	<g clip-path="url(#clip877_12252)">
		<mask id="mask877_12256" mask-type="alpha" maskUnits="userSpaceOnUse" x="0.000000" y="0.000000" width="85.000000" height="85.000000">
			<path id="path3648" d="M0 0L85 0L85 85L0 85L0 0Z" fill="#000000" fill-opacity="1.000000" fill-rule="nonzero"/>
		</mask>
		<g mask="url(#mask877_12256)">
			<path id="path3654" d="M55.9531 24.2861L58.0625 13.2544C58.6172 10.374 57.3125 7.46704 54.8047 5.94312C49.7656 2.875 44 1.24658 37.4141 1.24487C36.3125 1.24487 35.2969 1.80933 34.7031 2.7356L30.3672 9.56885C28.2656 9.44604 26.5312 9.73315 25.0781 10.3276C24.1484 10.7095 23.625 11.6973 23.8125 12.6833L26.0391 24.2861" stroke="#009FE3" stroke-opacity="1.000000" stroke-width="3.000000" stroke-linejoin="round" stroke-linecap="round"/>
			<path id="path3658" d="M51.9688 24.197L55.2109 24.197C56.9609 24.197 58.375 25.6165 58.375 27.3647C58.375 29.1145 56.9609 30.5322 55.2109 30.5322L52.0156 30.5322" stroke="#009FE3" stroke-opacity="1.000000" stroke-width="3.000000" stroke-linejoin="round" stroke-linecap="round"/>
			<path id="path3662" d="M29.9766 30.532L26.7891 30.532C25.0391 30.532 23.625 29.1143 23.625 27.3645C23.625 25.6162 25.0391 24.1968 26.7891 24.1968L30.0312 24.1968" stroke="#009FE3" stroke-opacity="1.000000" stroke-width="3.000000" stroke-linejoin="round" stroke-linecap="round"/>
			<path id="path3666" d="M24.6797 70.8027L19.5312 66.3252C18.6406 65.5532 18.4375 64.2566 19.0391 63.2456L24.6797 53.7495" stroke="#009FE3" stroke-opacity="1.000000" stroke-width="3.000000" stroke-linejoin="round" stroke-linecap="round"/>
			<path id="path3670" d="M49.3125 44.3342L55.2656 44.3342C56.2266 44.3342 57.1562 44.4988 58.0391 44.8076" stroke="#009FE3" stroke-opacity="1.000000" stroke-width="3.000000" stroke-linejoin="round" stroke-linecap="round"/>
			<path id="path3674" d="M17.7422 51.3271L19.4688 48.4302C20.9766 45.8901 23.7109 44.3345 26.6641 44.3345L32.6875 44.3345" stroke="#009FE3" stroke-opacity="1.000000" stroke-width="3.000000" stroke-linejoin="round" stroke-linecap="round"/>
			<path id="path3678" d="M24.6797 80.3486L11.1094 68.5432C9.73438 67.3479 9.41406 65.3391 10.3438 63.7734L14.7734 56.3186" stroke="#009FE3" stroke-opacity="1.000000" stroke-width="3.000000" stroke-linejoin="round" stroke-linecap="round"/>
			<path id="path3682" d="M57.3125 73.7974L57.3125 82.9248C57.3125 83.3831 56.9375 83.7549 56.4844 83.7549L52.75 83.7549" stroke="#009FE3" stroke-opacity="1.000000" stroke-width="3.000000" stroke-linejoin="round" stroke-linecap="round"/>
			<path id="path3686" d="M24.6797 50.9199L24.6797 82.9248C24.6797 83.3833 25.0547 83.7549 25.5078 83.7549L46.9375 83.7549" stroke="#009FE3" stroke-opacity="1.000000" stroke-width="3.000000" stroke-linejoin="round" stroke-linecap="round"/>
			<path id="path3690" d="M45.7812 41.1641L47.4844 42.2715C49.625 43.6658 50.4297 46.4067 49.3906 48.7393L47.5703 52.8232C47.3906 53.23 46.8828 53.3613 46.5312 53.0938L42.4297 49.9961C41.5859 49.3535 40.4062 49.3535 39.5625 49.9961L35.4609 53.0938C35.1094 53.3613 34.6016 53.23 34.4219 52.8232L32.6016 48.7393C31.5625 46.4067 32.3672 43.6658 34.5078 42.2715L36.2109 41.1641" stroke="#009FE3" stroke-opacity="1.000000" stroke-width="3.000000" stroke-linejoin="round" stroke-linecap="round"/>
			<path id="path3694" d="M45.7891 38.2214L45.7891 43.7266C45.7891 44.7275 45.3516 45.679 44.5859 46.3279L41 49.3926L37.4141 46.3279C36.6484 45.679 36.2109 44.7275 36.2109 43.7266L36.2109 38.2214" stroke="#009FE3" stroke-opacity="1.000000" stroke-width="3.000000" stroke-linejoin="round" stroke-linecap="round"/>
			<path id="path3698" d="M30.75 33.793C28.7578 29.5479 30.1719 16.1104 33.8125 13.0137C34 12.856 34.2031 12.7065 34.4141 12.5693C36.8516 15.5344 43.2969 18.1575 49.3984 19.1484C50.5 19.3281 51.375 20.188 51.5703 21.2898C52.4141 26.0403 52.375 31.3894 51.25 33.793C48 40.7058 33.9922 40.7058 30.75 33.793Z" stroke="#009FE3" stroke-opacity="1.000000" stroke-width="3.000000" stroke-linejoin="round"/>
			<path id="path3702" d="M68.25 65.5344L75.0078 53.8335C75.375 53.2026 75.1562 52.3975 74.5234 52.0322L60.1719 43.7432C59.5391 43.3796 58.7344 43.5955 58.3672 44.2263L45.9609 65.7219C45.5938 66.3511 45.8125 67.158 46.4375 67.5215L60.7969 75.8108C61.4297 76.1743 62.2344 75.9585 62.6016 75.3276L64.5156 72.0122" stroke="#009FE3" stroke-opacity="1.000000" stroke-width="3.000000" stroke-linejoin="round" stroke-linecap="round"/>
			<path id="path3706" d="M64.0234 45.9685L62.0078 49.4587C61.7031 49.9976 61.8828 50.6863 62.4219 50.9973L67.125 53.7112C67.6641 54.0222 68.3516 53.8376 68.6641 53.2988L70.6797 49.8086" stroke="#009FE3" stroke-opacity="1.000000" stroke-width="3.000000" stroke-linejoin="round" stroke-linecap="round"/>
			<path id="path3710" d="M69.5312 66.8472C70.9141 68.2749 70.8828 70.5549 69.4531 71.9402C68.0312 73.3254 65.75 73.291 64.3594 71.8635L55.5703 62.8032L60.7422 57.7869L69.5312 66.8472Z" stroke="#009FE3" stroke-opacity="1.000000" stroke-width="3.000000" stroke-linejoin="round"/>
			<path id="path3714" d="M60.7422 57.7874L57.4297 54.3704C56.3906 53.3032 54.6875 53.2778 53.625 54.313L52.3203 55.5801C51.25 56.6152 51.2266 58.3196 52.2578 59.3865L55.5781 62.8037" stroke="#009FE3" stroke-opacity="1.000000" stroke-width="3.000000" stroke-linejoin="round" stroke-linecap="round"/>
			<path id="path3718" d="M29.4062 66.0276C29.4062 66.3086 29.6328 66.5364 29.9141 66.5364L37.8125 66.5364C38.0938 66.5364 38.3203 66.3086 38.3203 66.0276L38.3203 61.2085C38.3203 60.9275 38.0938 60.6997 37.8125 60.6997L29.9141 60.6997C29.6328 60.6997 29.4062 60.9275 29.4062 61.2085L29.4062 66.0276Z" stroke="#009FE3" stroke-opacity="1.000000" stroke-width="3.000000" stroke-linejoin="round"/>
			<path id="path3722" d="M36.2109 25.3596L36.2109 25.6917" stroke="#009FE3" stroke-opacity="1.000000" stroke-width="3.000000" stroke-linejoin="round" stroke-linecap="round"/>
			<path id="path3726" d="M45.7812 25.3594L45.7812 25.6914" stroke="#009FE3" stroke-opacity="1.000000" stroke-width="3.000000" stroke-linejoin="round" stroke-linecap="round"/>
			<path id="path3730" d="M43.4219 31.6685C42.1641 32.3188 40.3672 32.3188 39.1094 31.6685" stroke="#009FE3" stroke-opacity="1.000000" stroke-width="3.000000" stroke-linejoin="round" stroke-linecap="round"/>
		</g>
	</g>
</svg>
