<svg width="88.000000" height="88.000000" viewBox="0 0 88 88" fill="none" xmlns="http://www.w3.org/2000/svg" xmlns:xlink="http://www.w3.org/1999/xlink">
	<desc>
			Created with Pixso.
	</desc>
	<defs>
		<clipPath id="clip877_12299">
			<rect id="calendar (11) 1" width="88.000000" height="88.000000" fill="white" fill-opacity="0"/>
		</clipPath>
	</defs>
	<rect id="calendar (11) 1" width="88.000000" height="88.000000" fill="#FFFFFF" fill-opacity="0"/>
	<g clip-path="url(#clip877_12299)">
		<path id="Vector" d="M45.1797 61.6934L42.4531 62.0576C42.5625 62.9006 42.625 63.7654 42.625 64.6248L45.375 64.6248C45.375 63.6431 45.3047 62.6572 45.1797 61.6934Z" fill="#009FE3" fill-opacity="1.000000" fill-rule="nonzero"/>
		<path id="Vector" d="M82.5 9.625L81.125 9.625L81.125 5.5C81.125 3.22583 79.2734 1.375 77 1.375L74.25 1.375C71.9766 1.375 70.125 3.22583 70.125 5.5L70.125 9.625L31.625 9.625L31.625 5.5C31.625 3.22583 29.7734 1.375 27.5 1.375L24.75 1.375C22.4766 1.375 20.625 3.22583 20.625 5.5L20.625 9.625L19.25 9.625C16.9766 9.625 15.125 11.4758 15.125 13.75L15.125 44.2446C7.07031 47.5159 1.375 55.4126 1.375 64.625C1.375 76.7554 11.2422 86.625 23.375 86.625C32.4766 86.625 40.4531 80.9888 43.75 72.875L82.5 72.875C84.7734 72.875 86.625 71.0242 86.625 68.75L86.625 13.75C86.625 11.4758 84.7734 9.625 82.5 9.625ZM72.875 5.5C72.875 4.74243 73.4922 4.125 74.25 4.125L77 4.125C77.7578 4.125 78.375 4.74243 78.375 5.5L78.375 16.5C78.375 17.2576 77.7578 17.875 77 17.875L74.25 17.875C73.4922 17.875 72.875 17.2576 72.875 16.5L72.875 5.5ZM23.375 5.5C23.375 4.74243 23.9922 4.125 24.75 4.125L27.5 4.125C28.2578 4.125 28.875 4.74243 28.875 5.5L28.875 16.5C28.875 17.2576 28.2578 17.875 27.5 17.875L24.75 17.875C23.9922 17.875 23.375 17.2576 23.375 16.5L23.375 5.5ZM42.4531 67.1936C41.1875 76.7031 32.9844 83.875 23.375 83.875C12.7578 83.875 4.125 75.24 4.125 64.625C4.125 54.01 12.7578 45.375 23.375 45.375C32.0078 45.375 39.6406 51.1802 41.9297 59.4907L44.5859 58.7593C41.9609 49.2593 33.2422 42.625 23.375 42.625C21.4766 42.625 19.6328 42.8931 17.875 43.3496L17.875 13.75C17.875 12.9924 18.4922 12.375 19.25 12.375L20.625 12.375L20.625 16.5C20.625 18.7742 22.4766 20.625 24.75 20.625L27.5 20.625C29.7734 20.625 31.625 18.7742 31.625 16.5L31.625 12.375L70.125 12.375L70.125 16.5C70.125 18.7742 71.9766 20.625 74.25 20.625L77 20.625C79.2734 20.625 81.125 18.7742 81.125 16.5L81.125 12.375L82.5 12.375C83.2578 12.375 83.875 12.9924 83.875 13.75L83.875 26.125L26.125 26.125L26.125 28.875L83.875 28.875L83.875 56.2087L79.4922 50.0762C79.2734 49.7639 78.9297 49.5605 78.5469 49.511C78.1719 49.4656 77.7891 49.5728 77.4922 49.8191L72.875 53.6689L72.875 48.125L81.125 48.125L81.125 45.375L71.5 45.375C70.7422 45.375 70.125 45.991 70.125 46.75L70.125 55.9597L53.125 70.125L44.6641 70.125C44.875 69.2849 45.0625 68.4338 45.1797 67.5564L42.4531 67.1936ZM78.1172 52.8796L83.1484 59.928L60.2109 70.125L57.4219 70.125L78.1172 52.8796ZM82.5 70.125L66.9766 70.125L83.875 62.6162L83.875 68.75C83.875 69.5076 83.2578 70.125 82.5 70.125Z" fill="#009FE3" fill-opacity="1.000000" fill-rule="nonzero"/>
		<path id="Vector" d="M20.625 26.125L23.375 26.125L23.375 28.875L20.625 28.875L20.625 26.125Z" fill="#009FE3" fill-opacity="1.000000" fill-rule="nonzero"/>
		<path id="Vector" d="M31.625 41.25L31.625 33C31.625 32.241 31.0078 31.625 30.25 31.625L22 31.625C21.2422 31.625 20.625 32.241 20.625 33L20.625 41.25C20.625 42.009 21.2422 42.625 22 42.625L23.375 42.625L30.25 42.625C31.0078 42.625 31.625 42.009 31.625 41.25ZM28.875 39.875L23.375 39.875L23.375 34.375L28.875 34.375L28.875 39.875Z" fill="#009FE3" fill-opacity="1.000000" fill-rule="nonzero"/>
		<path id="Vector" d="M46.75 42.625C47.5078 42.625 48.125 42.009 48.125 41.25L48.125 33C48.125 32.241 47.5078 31.625 46.75 31.625L38.5 31.625C37.7422 31.625 37.125 32.241 37.125 33L37.125 41.25C37.125 42.009 37.7422 42.625 38.5 42.625L46.75 42.625ZM39.875 34.375L45.375 34.375L45.375 39.875L39.875 39.875L39.875 34.375Z" fill="#009FE3" fill-opacity="1.000000" fill-rule="nonzero"/>
		<path id="Vector" d="M55 42.625L63.25 42.625C64.0078 42.625 64.625 42.009 64.625 41.25L64.625 33C64.625 32.241 64.0078 31.625 63.25 31.625L55 31.625C54.2422 31.625 53.625 32.241 53.625 33L53.625 41.25C53.625 42.009 54.2422 42.625 55 42.625ZM56.375 34.375L61.875 34.375L61.875 39.875L56.375 39.875L56.375 34.375Z" fill="#009FE3" fill-opacity="1.000000" fill-rule="nonzero"/>
		<path id="Vector" d="M71.5 42.625L79.75 42.625C80.5078 42.625 81.125 42.009 81.125 41.25L81.125 33C81.125 32.241 80.5078 31.625 79.75 31.625L71.5 31.625C70.7422 31.625 70.125 32.241 70.125 33L70.125 41.25C70.125 42.009 70.7422 42.625 71.5 42.625ZM72.875 34.375L78.375 34.375L78.375 39.875L72.875 39.875L72.875 34.375Z" fill="#009FE3" fill-opacity="1.000000" fill-rule="nonzero"/>
		<path id="Vector" d="M45.375 56.375L48.125 56.375L48.125 46.75C48.125 45.991 47.5078 45.375 46.75 45.375L38.5 45.375L38.5 48.125L45.375 48.125L45.375 56.375Z" fill="#009FE3" fill-opacity="1.000000" fill-rule="nonzero"/>
		<path id="Vector" d="M55 56.375L63.25 56.375C64.0078 56.375 64.625 55.759 64.625 55L64.625 46.75C64.625 45.991 64.0078 45.375 63.25 45.375L55 45.375C54.2422 45.375 53.625 45.991 53.625 46.75L53.625 55C53.625 55.759 54.2422 56.375 55 56.375ZM56.375 48.125L61.875 48.125L61.875 53.625L56.375 53.625L56.375 48.125Z" fill="#009FE3" fill-opacity="1.000000" fill-rule="nonzero"/>
		<path id="₽" d="M20.9609 68.5039L20.9609 69.8457L26.1465 69.8457L26.1465 71.8379L20.9609 71.8379L20.9609 74L17.0469 74L17.0469 71.8379L14.7207 71.8379L14.7207 69.8457L17.0469 69.8457L17.0469 57.2012L24.3184 57.2012Q27.752 57.2012 29.6797 58.6426Q31.6133 60.0781 31.6133 62.8613Q31.6133 65.6211 29.6797 67.0625Q27.752 68.5039 24.3184 68.5039L20.9609 68.5039ZM27.6816 62.8906Q27.6816 61.666 26.8027 61.0156Q25.9297 60.3652 24.2949 60.3652L20.9609 60.3652L20.9609 65.457L24.2949 65.457Q25.9297 65.457 26.8027 64.8008Q27.6816 64.1387 27.6816 62.8906Z" fill="#009FE3" fill-opacity="1.000000" fill-rule="evenodd"/>
	</g>
</svg>
