<svg width="26.000000" height="26.000000" viewBox="0 0 26 26" fill="none" xmlns="http://www.w3.org/2000/svg" xmlns:xlink="http://www.w3.org/1999/xlink">
	<desc>
			Created with Pixso.
	</desc>
	<defs>
		<clipPath id="clip877_12760">
			<rect id="gas-station 1" width="26.000000" height="26.000000" fill="white" fill-opacity="0"/>
		</clipPath>
	</defs>
	<rect id="gas-station 1" width="26.000000" height="26.000000" fill="#FFFFFF" fill-opacity="0"/>
	<g clip-path="url(#clip877_12760)">
		<path id="Vector" d="M16.0312 2.6001L6.49219 2.6001C6.25781 2.6001 6.0625 2.79395 6.0625 3.0332L6.0625 9.1001C6.0625 9.33936 6.25781 9.5332 6.49219 9.5332L16.0312 9.5332C16.2656 9.5332 16.4609 9.33936 16.4609 9.1001L16.4609 3.0332C16.4609 2.79395 16.2656 2.6001 16.0312 2.6001ZM15.5938 8.66699L6.92969 8.66699L6.92969 3.4668L15.5938 3.4668L15.5938 8.66699Z" fill="#009FE3" fill-opacity="1.000000" fill-rule="nonzero"/>
		<path id="Vector" d="M13.0312 16.0767L11.6406 13.6499C11.5625 13.5234 11.4219 13.4473 11.2656 13.4473C11.1172 13.4473 10.9766 13.5234 10.8906 13.6499L9.50781 16.0767C9.5 16.085 9.5 16.0928 9.49219 16.1011C9.23438 16.4614 9.10156 16.8921 9.10156 17.333C9.10156 18.5298 10.0703 19.5 11.2656 19.5C12.4609 19.5 13.4375 18.5298 13.4375 17.333C13.4375 16.8926 13.2969 16.4634 13.0469 16.1035C13.0391 16.0942 13.0391 16.085 13.0312 16.0767ZM11.2656 18.6333C10.5469 18.6333 9.96875 18.0508 9.96875 17.333C9.96875 17.0508 10.0625 16.7764 10.2344 16.5532C10.2578 16.5186 10.2812 16.48 10.2969 16.4385L11.2656 14.7402L12.2344 16.4375C12.25 16.4795 12.2734 16.519 12.3047 16.5547C12.4766 16.7778 12.5703 17.0513 12.5703 17.333C12.5703 18.0508 11.9844 18.6333 11.2656 18.6333Z" fill="#009FE3" fill-opacity="1.000000" fill-rule="nonzero"/>
		<path id="Vector" d="M11.2656 11.2666C8.39062 11.2666 6.0625 13.5947 6.0625 16.4668C6.0625 19.3384 8.39062 21.6665 11.2656 21.6665C14.1328 21.6665 16.4609 19.3384 16.4609 16.4668C16.4609 13.5962 14.1328 11.27 11.2656 11.2666ZM11.2656 20.7998C8.86719 20.7998 6.92969 18.8599 6.92969 16.4668C6.92969 14.0732 8.86719 12.1333 11.2656 12.1333C13.6562 12.1333 15.5938 14.0732 15.5938 16.4668C15.5938 18.8589 13.6562 20.7974 11.2656 20.7998Z" fill="#009FE3" fill-opacity="1.000000" fill-rule="nonzero"/>
		<path id="Vector" d="M8.66406 5.2002L9.96094 5.2002L9.96094 4.3335L7.79688 4.3335L7.79688 6.06689L8.66406 6.06689L8.66406 5.2002Z" fill="#009FE3" fill-opacity="1.000000" fill-rule="nonzero"/>
		<path id="Vector" d="M25.5703 5.2002L24.2656 5.2002L24.2656 2.1665C24.2656 2.07275 24.2344 1.98193 24.1797 1.90674L22.8828 0.17334C22.7344 -0.0180664 22.4609 -0.0571289 22.2734 0.0869141C22.0781 0.230469 22.0469 0.501953 22.1875 0.693359L23.3984 2.31104L23.3984 5.2002L22.1016 5.2002C21.8594 5.2002 21.6641 5.39404 21.6641 5.6333L21.6641 10.8335C21.6641 11.0728 21.8594 11.2666 22.1016 11.2666L22.5312 11.2666L22.5312 15.6001L19.0703 15.6001L19.0703 0.433594C19.0703 0.193848 18.875 0 18.6328 0L3.89844 0C3.66406 0 3.46875 0.193848 3.46875 0.433594L3.46875 23.3999L0.429688 23.3999C0.195312 23.3999 0 23.5942 0 23.8335L0 25.5669C0 25.8062 0.195312 26 0.429688 26L22.1016 26C22.3359 26 22.5312 25.8062 22.5312 25.5669L22.5312 23.8335C22.5312 23.5942 22.3359 23.3999 22.1016 23.3999L19.0703 23.3999L19.0703 18.2002L23.8359 18.2002C24.5547 18.2002 25.1328 17.6182 25.1328 16.8999L25.1328 11.2666L25.5703 11.2666C25.8047 11.2666 26 11.0728 26 10.8335L26 5.6333C26 5.39404 25.8047 5.2002 25.5703 5.2002ZM4.33594 0.866699L18.2031 0.866699L18.2031 23.3999L4.33594 23.3999L4.33594 0.866699ZM21.6641 24.2666L21.6641 25.1333L0.867188 25.1333L0.867188 24.2666L21.6641 24.2666ZM24.2656 16.8999C24.2656 17.1392 24.0703 17.3335 23.8359 17.3335L19.0703 17.3335L19.0703 16.4668L22.9688 16.4668C23.2031 16.4668 23.3984 16.2725 23.3984 16.0332L23.3984 11.2666L24.2656 11.2666L24.2656 16.8999ZM25.1328 10.3999L22.5312 10.3999L22.5312 6.06689L25.1328 6.06689L25.1328 10.3999Z" fill="#009FE3" fill-opacity="1.000000" fill-rule="nonzero"/>
		<path id="Vector" d="M10.8359 4.3335L11.7031 4.3335L11.7031 5.2002L10.8359 5.2002L10.8359 4.3335Z" fill="#009FE3" fill-opacity="1.000000" fill-rule="nonzero"/>
	</g>
</svg>
