<svg width="29.000000" height="29.000000" viewBox="0 0 29 29" fill="none" xmlns="http://www.w3.org/2000/svg" xmlns:xlink="http://www.w3.org/1999/xlink">
	<desc>
			Created with Pixso.
	</desc>
	<defs>
		<clipPath id="clip877_12664">
			<rect id="telegram (15) 2" width="29.000000" height="29.000000" fill="white" fill-opacity="0"/>
		</clipPath>
	</defs>
	<rect id="telegram (15) 2" width="29.000000" height="29.000000" fill="#FFFFFF" fill-opacity="0"/>
	<g clip-path="url(#clip877_12664)">
		<path id="Vector" d="M29 14.5C29 22.5082 22.5078 29 14.5 29C6.49219 29 0 22.5082 0 14.5C0 6.49182 6.49219 0 14.5 0C22.5078 0 29 6.49182 29 14.5Z" fill="#009FE3" fill-opacity="1.000000" fill-rule="evenodd"/>
		<path id="Vector" d="M6.63281 14.1858L20.6094 8.79541C21.2656 8.56104 21.8281 8.95374 21.6172 9.93494L21.6172 9.93372L19.2422 21.1483C19.0625 21.9434 18.5938 22.1367 17.9297 21.7621L14.3047 19.0905L12.5547 20.7749C12.3594 20.9683 12.2031 21.1313 11.8281 21.1313L12.0859 17.4423L18.7969 11.3728C19.0938 11.1155 18.7344 10.9705 18.3516 11.2267L10.0469 16.4539L6.46875 15.3374C5.6875 15.0908 5.67188 14.5604 6.63281 14.1858Z" fill="#FFFFFF" fill-opacity="1.000000" fill-rule="nonzero"/>
	</g>
</svg>
