<svg width="126.000000" height="126.000000" viewBox="0 0 126 126" fill="none" xmlns="http://www.w3.org/2000/svg" xmlns:xlink="http://www.w3.org/1999/xlink">
	<desc>
			Created with Pixso.
	</desc>
	<defs>
		<clipPath id="clip877_12519">
			<rect id="bus (1) 1" width="126.000000" height="126.000000" fill="white" fill-opacity="0"/>
		</clipPath>
	</defs>
	<rect id="bus (1) 1" width="126.000000" height="126.000000" fill="#FFFFFF" fill-opacity="0"/>
	<g clip-path="url(#clip877_12519)">
		<circle id="Ellipse 10" cx="33.500000" cy="71.500000" r="25.500000" fill="#00A0E3" fill-opacity="1.000000"/>
		<path id="Vector" d="M95.2656 68.5415L92.0156 68.5415C91 68.5415 90.1719 69.3684 90.1719 70.3887C90.1719 71.4089 91 72.2358 92.0156 72.2358L95.2656 72.2358C96.2812 72.2358 97.1094 71.4089 97.1094 70.3887C97.1094 69.3684 96.2812 68.5415 95.2656 68.5415Z" fill="#000000" fill-opacity="1.000000" fill-rule="nonzero"/>
		<path id="Vector" d="M125.992 58.0298C125.984 57.7185 125.945 57.408 125.883 57.1042L121.75 36.1597C121.75 36.1589 121.75 36.1582 121.75 36.1575L120.93 32.0002C120.375 29.208 117.906 27.1812 115.062 27.1812L5.99219 27.1812C2.6875 27.1809 0 29.8704 0 33.1763L0 82.5413C0 85.8472 2.6875 88.5364 5.99219 88.5364L11.8438 88.5364C12.7344 94.3508 17.7734 98.8184 23.8359 98.8184C29.8906 98.8184 34.9297 94.3511 35.8203 88.5364L40.5781 88.5364C41.6016 88.5364 42.4297 87.7095 42.4297 86.6892C42.4297 85.6689 41.6016 84.842 40.5781 84.842L35.8203 84.842C34.9297 79.0278 29.8906 74.5603 23.8359 74.5603C17.7734 74.5603 12.7344 79.0276 11.8438 84.842L5.99219 84.842C4.72656 84.842 3.69531 83.8096 3.69531 82.541L3.69531 33.1763C3.69531 31.9075 4.72656 30.875 5.99219 30.875L115.062 30.875C116.148 30.875 117.094 31.6492 117.305 32.7161L117.688 34.6704L93.4375 34.6704C91.6328 34.6704 90.1719 36.1353 90.1719 37.9358L90.1719 57.8582C90.1719 59.7324 91.0703 61.5105 92.5703 62.6143C96.1875 65.272 104.273 68.5564 122.305 69.3694L122.305 81.7649C122.305 83.4619 120.922 84.8425 119.227 84.8425L114.156 84.8425C113.258 79.0283 108.227 74.5608 102.164 74.5608C96.1016 74.5608 91.0703 79.0281 90.1797 84.8425L49.1719 84.8425C48.1562 84.8425 47.3281 85.6694 47.3281 86.6897C47.3281 87.71 48.1562 88.5369 49.1719 88.5369L90.1797 88.5369C91.0703 94.3513 96.1016 98.8188 102.164 98.8188C108.227 98.8188 113.266 94.3516 114.156 88.5369L119.227 88.5369C122.961 88.5369 126 85.499 126 81.7651L126 58.2634L126 58.2632C126 58.1851 126 58.1072 125.992 58.0298ZM23.8359 78.2549C28.4844 78.2549 32.2656 82.0386 32.2656 86.6895C32.2656 91.3403 28.4844 95.1243 23.8359 95.1243C19.1797 95.1243 15.3984 91.3403 15.3984 86.6895C15.3984 82.0386 19.1797 78.2549 23.8359 78.2549ZM102.164 95.124C97.5156 95.124 93.7344 91.3401 93.7344 86.6892C93.7344 82.0383 97.5156 78.2546 102.164 78.2546C106.812 78.2546 110.602 82.0383 110.602 86.6892C110.602 91.3401 106.812 95.124 102.164 95.124ZM93.8672 57.8582L93.8672 38.3647L118.414 38.3647L122.266 57.8213C122.266 57.856 122.273 57.8914 122.281 57.9265C122.289 58.0293 122.305 58.1328 122.305 58.2363C122.305 58.2456 122.305 58.2544 122.305 58.2632L122.305 65.6714C104.414 64.8464 97.3828 61.564 94.7578 59.637C94.1953 59.2261 93.8672 58.5613 93.8672 57.8582Z" fill="#000000" fill-opacity="1.000000" fill-rule="nonzero"/>
		<path id="Vector" d="M42.0469 34.6704L11.125 34.6704C9.5 34.6704 8.17969 35.9919 8.17969 37.6165L8.17969 58.4014C8.17969 60.0259 9.5 61.3474 11.125 61.3474L42.0469 61.3474C43.6719 61.3474 44.9922 60.0259 44.9922 58.4014L44.9922 37.6165C44.9922 35.9919 43.6719 34.6704 42.0469 34.6704ZM24.7344 57.6533L11.875 57.6533L11.875 38.3645L24.7344 38.3645L24.7344 57.6533ZM41.2969 57.6533L28.4297 57.6533L28.4297 38.3645L41.2969 38.3645L41.2969 57.6533Z" fill="#000000" fill-opacity="1.000000" fill-rule="nonzero"/>
		<path id="Vector" d="M82.5859 34.6704L51.6641 34.6704C50.0391 34.6704 48.7188 35.9919 48.7188 37.6165L48.7188 58.4014C48.7188 60.0259 50.0391 61.3474 51.6641 61.3474L82.5859 61.3474C84.2109 61.3474 85.5312 60.0259 85.5312 58.4014L85.5312 37.6165C85.5312 35.9919 84.2109 34.6704 82.5859 34.6704ZM81.8359 57.6533L68.9688 57.6533L68.9688 50.6526C68.9688 49.6323 68.1484 48.8054 67.125 48.8054C66.1016 48.8054 65.2734 49.6323 65.2734 50.6526L65.2734 57.6533L52.4141 57.6533L52.4141 38.3645L65.2734 38.3645L65.2734 42.0579C65.2734 43.0781 66.1016 43.905 67.125 43.905C68.1484 43.905 68.9688 43.0781 68.9688 42.0579L68.9688 38.3645L81.8359 38.3645L81.8359 57.6533Z" fill="#000000" fill-opacity="1.000000" fill-rule="nonzero"/>
	</g>
</svg>
