<svg width="88.000000" height="88.000000" viewBox="0 0 88 88" fill="none" xmlns="http://www.w3.org/2000/svg" xmlns:xlink="http://www.w3.org/1999/xlink">
	<desc>
			Created with Pixso.
	</desc>
	<defs>
		<clipPath id="clip877_13133">
			<rect id="map (1) 1" width="88.000000" height="88.000000" fill="white" fill-opacity="0"/>
		</clipPath>
	</defs>
	<rect id="map (1) 1" width="88.000000" height="88.000000" fill="#FFFFFF" fill-opacity="0"/>
	<g clip-path="url(#clip877_13133)">
		<circle id="Ellipse 9" cx="40.000000" cy="23.000000" r="21.000000" fill="#00A0E3" fill-opacity="1.000000"/>
		<path id="Vector" d="M44 16.0352C41.5938 16.0352 39.2734 16.7598 37.2969 18.1318C36.7109 18.5371 36.5625 19.3438 36.9609 19.9326C37.3672 20.5215 38.1641 20.6709 38.75 20.2656C40.2969 19.1924 42.1172 18.625 44 18.625C49.1172 18.625 53.2734 22.8164 53.2734 27.9688C53.2734 33.1211 49.1172 37.3135 44 37.3135C38.8906 37.3135 34.7266 33.1211 34.7266 27.9688C34.7266 26.4492 35.0781 25 35.7656 23.6631C36.0938 23.0283 35.8516 22.2461 35.2188 21.916C34.5938 21.5869 33.8125 21.833 33.4844 22.4678C32.6172 24.1543 32.1562 26.0566 32.1562 27.9688C32.1562 34.5498 37.4688 39.9033 44 39.9033C50.5312 39.9033 55.8438 34.5498 55.8438 27.9688C55.8438 21.3887 50.5312 16.0352 44 16.0352Z" fill="#000000" fill-opacity="1.000000" fill-rule="nonzero"/>
		<path id="Vector" d="M87.8984 86.207L75.2188 55.499C75.0156 55.0166 74.5469 54.7021 74.0312 54.7021L61.3906 54.7021C63.8438 51.3506 65.8906 48.0127 67.4922 44.7354C70.3281 38.9268 71.7578 33.2861 71.7578 27.9697C71.7578 12.5469 59.3047 0 44 0C28.6953 0 16.2422 12.5469 16.2422 27.9697C16.2422 33.2861 17.6719 38.9268 20.5078 44.7354C22.1094 48.0127 24.1484 51.3506 26.6094 54.7021L13.9688 54.7021C13.4531 54.7021 12.9844 55.0166 12.7812 55.499L4.14062 76.4248C3.86719 77.085 4.17969 77.8428 4.83594 78.1172C4.99219 78.1855 5.16406 78.2168 5.32812 78.2168C5.82812 78.2168 6.30469 77.917 6.51562 77.4199L7.75 74.4336L16.4922 74.4336L11.9609 85.4102L3.21094 85.4102L4.52344 82.2285C4.79688 81.5674 4.49219 80.8096 3.83594 80.5352C3.17969 80.2598 2.42969 80.5732 2.15625 81.2334L0.101562 86.207C-0.0703125 86.6074 -0.0234375 87.0635 0.21875 87.4238C0.453125 87.7832 0.859375 88 1.28906 88L86.7109 88C87.1406 88 87.5469 87.7832 87.7812 87.4238C88.0234 87.0635 88.0703 86.6074 87.8984 86.207ZM18.8125 27.9697C18.8125 13.9746 30.1094 2.58984 44 2.58984C57.8906 2.58984 69.1875 13.9756 69.1875 27.9697C69.1875 33.8379 67.1641 43.2148 57.8047 55.165C57.7969 55.1768 57.7891 55.1885 57.7812 55.2002C57.2969 55.8096 56.8047 56.4258 56.2891 57.0488C51.1406 63.2471 45.9375 67.7725 44 69.3809C42.0703 67.7783 36.8906 63.2754 31.75 57.0889C31.2188 56.4512 30.7109 55.8203 30.2188 55.1963C30.2109 55.1865 30.2031 55.1758 30.1953 55.166C20.8359 43.2168 18.8125 33.8398 18.8125 27.9697ZM14.8281 57.292L23.5781 57.292L20.3828 65.0176L11.6328 65.0176L14.8281 57.292ZM22.3438 85.4102L30.375 65.9629L53.2422 85.4102L22.3438 85.4102ZM57.2266 85.4102L30.6953 62.8428C30.3828 62.5762 29.9609 62.4766 29.5625 62.5742C29.1641 62.6709 28.8359 62.9541 28.6797 63.335L19.5625 85.4102L14.7422 85.4102L19.6094 73.6367C19.7734 73.2363 19.7344 72.7803 19.4922 72.4199C19.25 72.0605 18.8516 71.8438 18.4219 71.8438L8.82031 71.8438L10.5703 67.6074L21.2422 67.6074C21.7656 67.6074 22.2266 67.292 22.4297 66.8096L26.3594 57.292L28.5938 57.292C28.9766 57.7783 29.375 58.2646 29.7734 58.751C36.4062 66.7314 42.9375 71.8545 43.2109 72.0693C43.4453 72.25 43.7188 72.3398 44 72.3398C44.2734 72.3398 44.5547 72.25 44.7891 72.0693C44.9375 71.9512 46.9766 70.3486 49.8828 67.6074L64.4375 67.6074C65.1484 67.6074 65.7266 67.0273 65.7266 66.3125C65.7266 65.5967 65.1484 65.0176 64.4375 65.0176L52.5391 65.0176C54.3203 63.2119 56.2656 61.1074 58.2266 58.751C58.625 58.2646 59.0234 57.7783 59.4062 57.292L73.1719 57.292L76.3672 65.0176L69.5781 65.0176C68.875 65.0176 68.2969 65.5967 68.2969 66.3125C68.2969 67.0273 68.875 67.6074 69.5781 67.6074L77.4297 67.6074L79.1797 71.8438L52.7031 71.8438C52.1641 71.8438 51.6875 72.1797 51.5 72.6855C51.3125 73.1924 51.4531 73.7627 51.8594 74.1172L64.7734 85.4102L57.2266 85.4102ZM68.6953 85.4102L56.1406 74.4336L80.25 74.4336L84.7891 85.4102L68.6953 85.4102Z" fill="#000000" fill-opacity="1.000000" fill-rule="nonzero"/>
	</g>
</svg>
