<svg width="88.000000" height="88.000000" viewBox="0 0 88 88" fill="none" xmlns="http://www.w3.org/2000/svg" xmlns:xlink="http://www.w3.org/1999/xlink">
	<desc>
			Created with Pixso.
	</desc>
	<defs>
		<clipPath id="clip877_13161">
			<rect id="car-check 1" width="88.000000" height="88.000000" fill="white" fill-opacity="0"/>
		</clipPath>
	</defs>
	<rect id="car-check 1" width="88.000000" height="88.000000" fill="#FFFFFF" fill-opacity="0"/>
	<g clip-path="url(#clip877_13161)">
		<circle id="Ellipse 9" cx="17.500000" cy="25.500000" r="11.500000" fill="#00A0E3" fill-opacity="1.000000"/>
		<circle id="Ellipse 10" cx="61.500000" cy="59.500000" r="7.500000" fill="#00A0E3" fill-opacity="1.000000"/>
		<path id="Vector" d="M49.6797 68.1289C47.3359 68.1289 45.4219 70.0391 45.4219 72.3867C45.4219 74.7354 47.3359 76.6455 49.6797 76.6455C52.0312 76.6455 53.9375 74.7354 53.9375 72.3867C53.9375 70.0391 52.0312 68.1289 49.6797 68.1289ZM49.6797 73.8066C48.8984 73.8066 48.2578 73.1689 48.2578 72.3867C48.2578 71.6045 48.8984 70.9678 49.6797 70.9678C50.4609 70.9678 51.1016 71.6045 51.1016 72.3867C51.1016 73.1699 50.4609 73.8066 49.6797 73.8066Z" fill="#000000" fill-opacity="1.000000" fill-rule="nonzero"/>
		<path id="Vector" d="M80.9062 17.0322L53.9375 17.0322L53.9375 9.93555C53.9375 7.58789 52.0234 5.67773 49.6797 5.67773L42.5781 5.67773L42.5781 4.25781C42.5781 1.91016 40.6719 0 38.3203 0L15.6094 0C13.2656 0 11.3516 1.91016 11.3516 4.25781L11.3516 5.67773L4.25781 5.67773C1.91406 5.67773 0 7.58789 0 9.93555L0 83.7422C0 86.0898 1.91406 88 4.25781 88L49.6797 88C52.0234 88 53.9375 86.0898 53.9375 83.7422L53.9375 81.3613C56 80.3789 57.6719 78.707 58.6562 76.6445L66.7109 76.6445C69.0547 76.6445 70.9688 74.7344 70.9688 72.3867L70.9688 63.8711C70.9688 56.8271 65.2344 51.0967 58.1953 51.0967L53.9375 51.0967L53.9375 31.2256L80.9062 31.2256C84.8125 31.2256 88 28.042 88 24.1289C88 20.2158 84.8125 17.0322 80.9062 17.0322ZM66.3516 65.29L68.1328 65.29L68.1328 68.1289L58.6562 68.1289C57.0547 64.7754 53.6328 62.4512 49.6797 62.4512C46.25 62.4512 43.2188 64.1973 41.4375 66.8457L41.4375 52.0869L35.3125 42.9023C33.9922 40.9238 31.7812 39.7422 29.4062 39.7422L8.51562 39.7422L8.51562 36.9033L29.4062 36.9033C32.7344 36.9033 35.8281 38.5576 37.6719 41.3271L46.0781 53.9355L56.7734 53.9355L56.7734 55.71C56.7734 60.9922 61.0703 65.29 66.3516 65.29ZM8.51562 42.5801L29.4062 42.5801C30.8359 42.5801 32.1562 43.2891 32.9531 44.4766L33.5781 45.4189L29.8047 45.4189C28.2422 45.4189 26.9688 46.6924 26.9688 48.2578L26.9688 51.0967L8.51562 51.0967L8.51562 42.5801ZM37.3594 51.0967L31.2266 51.0967L29.8047 51.0967L29.8047 48.2578L35.4688 48.2578L37.3594 51.0967ZM8.51562 53.9355L29.8047 53.9355L31.2266 53.9355L38.5938 53.9355L38.5938 68.1289L8.51562 68.1289L8.51562 53.9355ZM8.51562 70.9678L39.8438 70.9678C39.7812 71.4316 39.7422 71.9053 39.7422 72.3867C39.7422 72.8691 39.7812 73.3428 39.8438 73.8066L8.51562 73.8066L8.51562 70.9678ZM8.51562 76.6455L40.7031 76.6455C41.2109 77.709 41.8984 78.6689 42.7344 79.4834L8.51562 79.4834L8.51562 76.6455ZM45.4219 47.8281L40.0391 39.7529C37.6641 36.1914 33.6875 34.0645 29.4062 34.0645L8.51562 34.0645L8.51562 14.1934L45.4219 14.1934L45.4219 17.0322L38.0625 17.0322L27.7969 20.8828C26.4531 21.3877 25.5469 22.6924 25.5469 24.1289C25.5469 25.5664 26.4531 26.8711 27.7969 27.376L38.0625 31.2256L45.4219 31.2256L45.4219 47.8281ZM28.7969 24.7178C28.5547 24.626 28.3906 24.3896 28.3906 24.1289C28.3906 23.8682 28.5547 23.6318 28.7969 23.54L36.9062 20.5L36.9062 27.7588L28.7969 24.7178ZM39.7422 28.3867L39.7422 19.8711L68.1328 19.8711L68.1328 28.3867L39.7422 28.3867ZM70.9688 19.8711L73.8047 19.8711L73.8047 28.3867L70.9688 28.3867L70.9688 19.8711ZM49.6797 8.51562C50.4609 8.51562 51.0938 9.15332 51.0938 9.93555L51.0938 17.0322L48.2578 17.0322L48.2578 11.3545L42.5781 11.3545L42.5781 8.51562L49.6797 8.51562ZM15.6094 2.83887L38.3203 2.83887C39.1016 2.83887 39.7422 3.47559 39.7422 4.25781L39.7422 11.3545L14.1953 11.3545L14.1953 4.25781C14.1953 3.47559 14.8281 2.83887 15.6094 2.83887ZM51.0938 83.7422C51.0938 84.5244 50.4609 85.1611 49.6797 85.1611L4.25781 85.1611C3.47656 85.1611 2.83594 84.5244 2.83594 83.7422L2.83594 9.93555C2.83594 9.15332 3.47656 8.51562 4.25781 8.51562L11.3516 8.51562L11.3516 11.3545L5.67969 11.3545L5.67969 82.3223L49.6797 82.3223C50.1562 82.3223 50.6328 82.2861 51.0938 82.2197L51.0938 83.7422ZM49.6797 79.4834C45.7656 79.4834 42.5781 76.2998 42.5781 72.3867C42.5781 68.4736 45.7656 65.29 49.6797 65.29C53.5938 65.29 56.7734 68.4736 56.7734 72.3867C56.7734 76.2998 53.5938 79.4834 49.6797 79.4834ZM66.7109 73.8066L59.5078 73.8066C59.5781 73.3428 59.6094 72.8691 59.6094 72.3867C59.6094 71.9053 59.5781 71.4316 59.5078 70.9678L68.1328 70.9678L68.1328 72.3867C68.1328 73.1699 67.4922 73.8066 66.7109 73.8066ZM68.0234 62.4512L66.3516 62.4512C62.6406 62.4512 59.6094 59.4268 59.6094 55.71L59.6094 54.0381C63.9609 54.6631 67.3984 58.1074 68.0234 62.4512ZM51.0938 51.0967L48.2578 51.0967L48.2578 31.2256L51.0938 31.2256L51.0938 51.0967ZM80.9062 28.3867L76.6484 28.3867L76.6484 19.8711L80.9062 19.8711C83.25 19.8711 85.1641 21.7812 85.1641 24.1289C85.1641 26.4766 83.25 28.3867 80.9062 28.3867Z" fill="#000000" fill-opacity="1.000000" fill-rule="nonzero"/>
		<path id="Vector" d="M25.9609 16.0283L14.1953 27.7988L12.3594 25.9639L10.3516 27.9707L14.1953 31.8135L27.9688 18.0361L25.9609 16.0283Z" fill="#000000" fill-opacity="1.000000" fill-rule="nonzero"/>
		<path id="Vector" d="M19.8672 7.09668C19.8672 7.88086 19.2344 8.5166 18.4531 8.5166C17.6641 8.5166 17.0312 7.88086 17.0312 7.09668C17.0312 6.31348 17.6641 5.67773 18.4531 5.67773C19.2344 5.67773 19.8672 6.31348 19.8672 7.09668Z" fill="#000000" fill-opacity="1.000000" fill-rule="evenodd"/>
		<path id="Vector" d="M36.8984 7.09668C36.8984 7.88086 36.2656 8.5166 35.4844 8.5166C34.6953 8.5166 34.0625 7.88086 34.0625 7.09668C34.0625 6.31348 34.6953 5.67773 35.4844 5.67773C36.2656 5.67773 36.8984 6.31348 36.8984 7.09668Z" fill="#000000" fill-opacity="1.000000" fill-rule="evenodd"/>
	</g>
</svg>
