<svg width="104.000000" height="104.000000" viewBox="0 0 104 104" fill="none" xmlns="http://www.w3.org/2000/svg" xmlns:xlink="http://www.w3.org/1999/xlink">
	<desc>
			Created with Pixso.
	</desc>
	<defs>
		<clipPath id="clip877_12579">
			<rect id="driver (2) 1" width="104.000000" height="104.000000" fill="white" fill-opacity="0"/>
		</clipPath>
	</defs>
	<rect id="driver (2) 1" width="104.000000" height="104.000000" fill="#FFFFFF" fill-opacity="0"/>
	<g clip-path="url(#clip877_12579)">
		<circle id="Ellipse 10" cx="79.500000" cy="49.500000" r="24.500000" fill="#00A0E3" fill-opacity="1.000000"/>
		<path id="Vector" d="M99.4062 17.8013C99.1328 16.675 98.4844 15.675 97.5625 14.9617C96.6484 14.248 95.5234 13.8625 94.3594 13.8667L72.7969 13.8667L72.7969 12.1333C72.7969 11.2139 72.4375 10.3323 71.7812 9.68213C71.1328 9.03198 70.25 8.66675 69.3359 8.66675L48.8906 8.66675C47.1641 6.00879 44.7969 3.82422 42.0156 2.31079C39.2266 0.797607 36.1016 0.00341797 32.9297 0L26 0C20.9453 0.00585938 16.1016 2.0166 12.5234 5.59106C8.95312 9.16553 6.9375 14.0117 6.92969 19.0667L6.92969 22.7068C4.95312 23.1082 3.17969 24.1897 1.91406 25.7639C0.648438 27.3379 -0.03125 29.3054 0 31.3252C0.03125 33.345 0.773438 35.2898 2.08594 36.8225C3.40625 38.3555 5.21094 39.3796 7.20312 39.7175C7.78125 43.554 9.32812 47.1777 11.7109 50.24C14.0938 53.302 17.2266 55.699 20.7969 57.2L20.7969 60.6667L17.3359 60.6667C15.9609 60.6719 14.6016 60.8401 13.2656 61.1675C13.2422 61.178 13.2109 61.1797 13.1797 61.1902C9.42188 62.1201 6.08594 64.28 3.69531 67.3259C1.3125 70.3718 0.0078125 74.1292 0 78L0 97.0667C0 98.9055 0.734375 100.669 2.03125 101.969C3.32812 103.27 5.09375 104 6.92969 104L52 104C53.8359 104 55.6016 103.27 56.9062 101.969C58.2031 100.669 58.9297 98.9055 58.9297 97.0667L58.9297 78C58.9297 74.9546 58.125 71.9639 56.5859 69.3333L62.3984 69.3333C62.8594 69.3333 63.2969 69.1506 63.625 68.8257C63.9531 68.5005 64.1328 68.0598 64.1328 67.6001C64.1328 67.1404 63.9531 66.6995 63.625 66.3743C63.2969 66.0493 62.8594 65.8667 62.3984 65.8667L53.9531 65.8667C51.7109 63.5779 48.875 61.9578 45.7578 61.1868C45.7344 61.1746 45.7031 61.1746 45.6719 61.1641C44.3438 60.8372 42.9766 60.6699 41.6016 60.6667L38.1328 60.6667L38.1328 58.9333L78.1719 58.9333C77.9219 60.1362 77.9375 61.3787 78.2188 62.5752C78.4922 63.7717 79.0234 64.8945 79.7734 65.8667L69.3359 65.8667C68.875 65.8667 68.4297 66.0493 68.1094 66.3743C67.7812 66.6995 67.6016 67.1404 67.6016 67.6001C67.6016 68.0598 67.7812 68.5005 68.1094 68.8257C68.4297 69.1506 68.875 69.3333 69.3359 69.3333L102.266 69.3333C102.727 69.3333 103.164 69.1506 103.492 68.8257C103.82 68.5005 104 68.0598 104 67.6001C104 67.1404 103.82 66.6995 103.492 66.3743C103.164 66.0493 102.727 65.8667 102.266 65.8667L93.5547 65.8667C94.3047 64.8945 94.8359 63.7717 95.1172 62.5752C95.3906 61.3787 95.4062 60.1362 95.1562 58.9333L98.7969 58.9333C100.18 58.9333 101.5 58.3855 102.477 57.4104C103.453 56.4351 104 55.1125 104 53.7334L104 36.8333C104 36.4055 103.945 35.9792 103.844 35.5645L99.4062 17.8013ZM100.531 48.5334L98.7969 48.5334C98.3438 48.5334 97.8984 48.3508 97.5781 48.0256C97.25 47.7007 97.0703 47.2598 97.0703 46.8C97.0703 46.3403 97.25 45.8994 97.5781 45.5745C97.8984 45.2493 98.3438 45.0667 98.7969 45.0667L100.531 45.0667L100.531 48.5334ZM96.0469 18.6367L99.6172 32.9333L81.4688 32.9333C81.0078 32.9333 80.5625 32.7507 80.2422 32.4255C79.9141 32.1006 79.7344 31.6597 79.7344 31.2L79.7344 17.3333L94.3594 17.3333C94.75 17.3311 95.125 17.4583 95.4297 17.6946C95.7344 17.9309 95.9531 18.2627 96.0469 18.6367ZM69.3359 12.1333L69.3359 48.5334L48.4219 48.5334C50.1406 45.863 51.2656 42.8584 51.7266 39.7192C53.7188 39.3823 55.5312 38.3584 56.8516 36.8254C58.1641 35.2922 58.9062 33.3467 58.9375 31.3262C58.9688 29.3054 58.2891 27.3374 57.0234 25.7629C55.7578 24.1885 53.9844 23.1072 52 22.7068L52 19.0667C52 16.6929 51.5469 14.3411 50.6719 12.1333L69.3359 12.1333ZM69.3359 55.4666L41.4297 55.4666C42.9844 54.4888 44.4219 53.3245 45.6953 52L69.3359 52L69.3359 55.4666ZM55.4688 31.2C55.4609 32.2717 55.125 33.3157 54.5078 34.1895C53.8828 35.0632 53.0078 35.7239 52 36.0811L52 26.3188C53.0078 26.676 53.8828 27.3369 54.5078 28.2104C55.125 29.0842 55.4609 30.1284 55.4688 31.2ZM26 3.46655L32.9297 3.46655C37.0703 3.47119 41.0312 5.11621 43.9609 8.04077C46.8828 10.9653 48.5312 14.9307 48.5312 19.0667L48.5312 21.2715C42.5625 18.5222 36.0391 17.175 29.4688 17.3333C22.8906 17.175 16.375 18.5222 10.3984 21.2715L10.3984 19.0667C10.4062 14.9307 12.0469 10.9653 14.9766 8.04077C17.8984 5.11621 21.8672 3.47119 26 3.46655ZM47.4609 24.6133L45.5312 26.5425C45 27.0593 44.3281 27.4231 43.6094 27.5955C42.8828 27.7681 42.125 27.7432 41.4141 27.5237C37.5391 26.3733 33.5078 25.8586 29.4688 26C25.4297 25.8613 21.3984 26.3787 17.5234 27.5322C16.8125 27.7534 16.0547 27.7788 15.3281 27.6062C14.6016 27.4338 13.9375 27.0693 13.3984 26.5513L11.4688 24.6133C17.0859 21.9421 23.25 20.6355 29.4688 20.8C35.6797 20.6355 41.8516 21.9421 47.4609 24.6133ZM3.46875 31.2C3.46875 30.1284 3.80469 29.0842 4.42969 28.2104C5.04688 27.3369 5.92188 26.676 6.92969 26.3188L6.92969 36.0811C5.92188 35.7239 5.04688 35.0632 4.42969 34.1895C3.80469 33.3157 3.46875 32.2717 3.46875 31.2ZM10.3984 36.3999L10.3984 28.4509L10.9531 29.0005C11.6484 29.7004 12.4766 30.2551 13.3828 30.6328C14.2969 31.0105 15.2734 31.2031 16.2578 31.2C17.0781 31.2029 17.8828 31.0698 18.6562 30.8066C22.1641 29.7854 25.8125 29.333 29.4688 29.4666C33.1172 29.334 36.7734 29.7869 40.2812 30.8083C41.0547 31.0713 41.8594 31.2036 42.6719 31.2C44.6641 31.1951 46.5703 30.4045 47.9844 29.0005L48.5312 28.4509L48.5312 36.3999C48.5312 41.4568 46.5234 46.3064 42.9453 49.8821C39.375 53.4578 34.5234 55.4666 29.4688 55.4666C24.4062 55.4666 19.5625 53.4578 15.9844 49.8821C12.4062 46.3064 10.3984 41.4568 10.3984 36.3999ZM29.4688 58.9333C31.2188 58.927 32.9609 58.7158 34.6641 58.3042L34.6641 71.0667L24.2656 71.0667L24.2656 58.3042C25.9688 58.7158 27.7109 58.927 29.4688 58.9333ZM3.46875 97.0667L3.46875 78C3.46875 75.2397 4.29688 72.5435 5.84375 70.2554C7.38281 67.9673 9.57812 66.1912 12.1328 65.1543L12.1328 100.533L6.92969 100.533C6.01562 100.533 5.13281 100.168 4.48438 99.5181C3.82812 98.8679 3.46875 97.9861 3.46875 97.0667ZM55.4688 78L55.4688 97.0667C55.4688 97.9861 55.1016 98.8679 54.4531 99.5181C53.8047 100.168 52.9219 100.533 52 100.533L46.7969 100.533L46.7969 65.1543C49.3594 66.1912 51.5469 67.9673 53.0938 70.2554C54.6328 72.5435 55.4609 75.2397 55.4688 78ZM41.6016 64.1333C42.1797 64.1372 42.7578 64.177 43.3359 64.2529L43.3359 100.533L15.6016 100.533L15.6016 64.2529C16.1719 64.177 16.75 64.1372 17.3359 64.1333L20.7969 64.1333L20.7969 71.0667C20.7969 71.9861 21.1641 72.8679 21.8125 73.5181C22.4688 74.1682 23.3438 74.5334 24.2656 74.5334L34.6641 74.5334C35.5859 74.5334 36.4688 74.1682 37.1172 73.5181C37.7656 72.8679 38.1328 71.9861 38.1328 71.0667L38.1328 64.1333L41.6016 64.1333ZM81.4688 60.6667C81.4688 59.6382 81.7734 58.6328 82.3438 57.7776C82.9141 56.9226 83.7266 56.2561 84.6797 55.8625C85.625 55.469 86.6719 55.366 87.6797 55.5667C88.6875 55.7673 89.6172 56.2625 90.3438 56.9897C91.0703 57.717 91.5625 58.6436 91.7656 59.6521C91.9688 60.6609 91.8672 61.7065 91.4688 62.6567C91.0781 63.6067 90.4141 64.4189 89.5547 64.9902C88.7031 65.5618 87.6953 65.8667 86.6641 65.8667C85.2891 65.8667 83.9688 65.3188 82.9922 64.3435C82.0156 63.3684 81.4688 62.0459 81.4688 60.6667ZM98.7969 55.4666L93.5547 55.4666C92.7578 54.3911 91.7188 53.5173 90.5234 52.9153C89.3281 52.3135 88.0078 51.9998 86.6641 51.9998C85.3281 51.9998 84.0078 52.3135 82.8125 52.9153C81.6172 53.5173 80.5781 54.3911 79.7812 55.4666L72.7969 55.4666L72.7969 17.3333L76.2656 17.3333L76.2656 31.2C76.2656 32.5791 76.8125 33.9019 77.7891 34.877C78.7656 35.8521 80.0859 36.3999 81.4688 36.3999L100.484 36.3999C100.516 36.5417 100.531 36.6873 100.531 36.8333L100.531 41.6001L98.7969 41.6001C97.4219 41.6001 96.1016 42.1479 95.125 43.123C94.1484 44.0981 93.6016 45.4209 93.6016 46.8C93.6016 48.1792 94.1484 49.5017 95.125 50.4771C96.1016 51.4521 97.4219 52 98.7969 52L100.531 52L100.531 53.7334C100.531 54.1931 100.352 54.634 100.023 54.959C99.7031 55.2839 99.2578 55.4666 98.7969 55.4666Z" fill="#000000" fill-opacity="1.000000" fill-rule="nonzero"/>
		<path id="Vector" d="M37.9609 45.8416C38.1641 45.4353 38.1953 44.9661 38.0547 44.5352C37.9141 44.1045 37.6016 43.7473 37.2031 43.5413C36.7969 43.3303 36.3203 43.2886 35.8828 43.425C35.4453 43.5613 35.0859 43.865 34.8672 44.2693C34.2734 45.1348 33.4609 45.8259 32.5156 46.2708C31.5625 46.7158 30.5078 46.8984 29.4688 46.8C28.4219 46.8955 27.375 46.7117 26.4297 46.2676C25.4766 45.8235 24.6641 45.135 24.0703 44.2727C23.8594 43.8828 23.4922 43.5923 23.0703 43.4614C22.6406 43.3308 22.1797 43.3704 21.7812 43.5715C21.3828 43.7727 21.0781 44.1204 20.9297 44.5417C20.7812 44.9631 20.7969 45.4255 20.9844 45.8328C21.8516 47.2783 23.1094 48.4563 24.6016 49.238C26.1016 50.02 27.7812 50.3757 29.4688 50.2666C31.1484 50.3784 32.8359 50.0247 34.3359 49.2441C35.8281 48.4639 37.0859 47.2866 37.9609 45.8416Z" fill="#000000" fill-opacity="1.000000" fill-rule="nonzero"/>
		<path id="Vector" d="M84.0391 24.0186L92.7031 29.2185C93.1016 29.4456 93.5703 29.5088 94.0078 29.395C94.4453 29.2812 94.8203 28.9993 95.0547 28.6099C95.2891 28.2205 95.3672 27.7546 95.2578 27.313C95.1484 26.8711 94.875 26.4888 94.4922 26.2476L85.8281 21.0476C85.6328 20.9255 85.4141 20.8435 85.1875 20.8064C84.9609 20.7693 84.7266 20.7778 84.5 20.8315C84.2734 20.885 84.0625 20.9829 83.8828 21.1189C83.6953 21.2551 83.5391 21.4268 83.4219 21.6243C83.3047 21.8215 83.2266 22.0405 83.1875 22.2686C83.1562 22.4963 83.1719 22.7285 83.2266 22.9514C83.2812 23.1743 83.3828 23.3835 83.5234 23.5667C83.6641 23.75 83.8438 23.9036 84.0391 24.0186Z" fill="#000000" fill-opacity="1.000000" fill-rule="nonzero"/>
		<path id="Vector" d="M84.9375 39.8667L81.4688 39.8667C81.0078 39.8667 80.5703 40.0493 80.2422 40.3743C79.9141 40.6995 79.7344 41.1404 79.7344 41.6001C79.7344 42.0598 79.9141 42.5007 80.2422 42.8257C80.5703 43.1506 81.0078 43.3333 81.4688 43.3333L84.9375 43.3333C85.3906 43.3333 85.8359 43.1506 86.1562 42.8257C86.4844 42.5007 86.6641 42.0598 86.6641 41.6001C86.6641 41.1404 86.4844 40.6995 86.1562 40.3743C85.8359 40.0493 85.3906 39.8667 84.9375 39.8667Z" fill="#000000" fill-opacity="1.000000" fill-rule="nonzero"/>
	</g>
</svg>
