<svg width="116.000000" height="116.000000" viewBox="0 0 116 116" fill="none" xmlns="http://www.w3.org/2000/svg" xmlns:xlink="http://www.w3.org/1999/xlink">
	<desc>
			Created with Pixso.
	</desc>
	<defs>
		<clipPath id="clip877_12585">
			<rect id="children 1" width="116.000000" height="116.000000" fill="white" fill-opacity="0"/>
		</clipPath>
	</defs>
	<rect id="children 1" width="116.000000" height="116.000000" fill="#FFFFFF" fill-opacity="0"/>
	<g clip-path="url(#clip877_12585)">
		<circle id="Ellipse 10" cx="95.500000" cy="86.500000" r="18.500000" fill="#00A0E3" fill-opacity="1.000000"/>
		<path id="Vector" d="M83.5703 67.9583C86.6406 67.9583 89.1406 65.457 89.1406 62.3828C89.1406 61.4441 88.3828 60.6836 87.4453 60.6836C86.5078 60.6836 85.7422 61.4441 85.7422 62.3828C85.7422 63.5833 84.7656 64.5598 83.5703 64.5598C82.3672 64.5598 81.3906 63.5833 81.3906 62.3828C81.3906 61.4441 80.6328 60.6836 79.6875 60.6836C78.75 60.6836 77.9922 61.4441 77.9922 62.3828C77.9922 65.457 80.4922 67.9583 83.5703 67.9583Z" fill="#000000" fill-opacity="1.000000" fill-rule="nonzero"/>
		<path id="Vector" d="M92.4844 58.4268C93.4219 58.4268 94.1797 57.6663 94.1797 56.7275L94.1797 54.9519C95.0156 54.8479 95.6719 54.1326 95.6719 53.2656C95.6719 52.3269 94.9062 51.5664 93.9688 51.5664L92.4844 51.5664C91.5391 51.5664 90.7812 52.3269 90.7812 53.2656L90.7812 56.7275C90.7812 57.6663 91.5391 58.4268 92.4844 58.4268Z" fill="#000000" fill-opacity="1.000000" fill-rule="nonzero"/>
		<path id="Vector" d="M72.9609 54.9519L72.9609 56.7275C72.9609 57.6663 73.7188 58.4268 74.6562 58.4268C75.5938 58.4268 76.3594 57.6663 76.3594 56.7275L76.3594 53.2656C76.3594 52.3269 75.5938 51.5664 74.6562 51.5664L73.1719 51.5664C72.2266 51.5664 71.4688 52.3269 71.4688 53.2656C71.4688 54.1326 72.1172 54.8479 72.9609 54.9519Z" fill="#000000" fill-opacity="1.000000" fill-rule="nonzero"/>
		<path id="Vector" d="M108.961 57.0327C109.445 56.0122 109.719 54.873 109.719 53.6714C109.719 51.6714 108.969 49.844 107.742 48.4512C107.938 48.1746 108.047 47.8379 108.047 47.4731C108.047 42.4543 108.297 39.478 106.789 35.1611C106.484 34.2754 105.508 33.8074 104.625 34.1182C103.742 34.4277 103.273 35.3972 103.586 36.2832C104.82 39.8108 104.648 42.2581 104.648 45.7739C102.484 45.7739 96.6484 45.7739 94.1797 45.7739C89.2656 45.7739 85.2656 41.7742 85.2656 36.8579C85.2656 35.9192 84.5078 35.1587 83.5703 35.1587C82.6328 35.1587 81.8672 35.9192 81.8672 36.8579C81.8672 41.7742 77.8672 45.7739 72.9531 45.7739L65.5703 45.7739L62.4844 45.7739L62.4844 42.6084C62.4844 32.0483 71.0781 23.4573 81.6328 23.4573C81.7656 23.4573 81.8672 23.5615 81.8672 23.6902C81.8672 24.6284 82.6328 25.3892 83.5703 25.3892C84.5078 25.3892 85.2656 24.6284 85.2656 23.6902C85.2656 23.5615 85.375 23.4573 85.5 23.4573C91.0391 23.4573 96.2969 25.8525 99.9375 30.0286C100.555 30.7361 101.633 30.8091 102.336 30.1929C103.047 29.5759 103.117 28.5027 102.5 27.7954C98.2188 22.8789 92.0156 20.0591 85.5 20.0588C84.7891 20.0588 84.125 20.2634 83.5703 20.6167C83.0078 20.2634 82.3438 20.0588 81.6328 20.0588C69.2031 20.0588 59.0859 30.1748 59.0859 42.6086L59.0859 47.4734C59.0859 47.8379 59.2031 48.1746 59.3984 48.4514C58.8281 49.0972 58.3594 49.8359 58.0234 50.6431C57.8203 48.1372 56.5547 45.9368 54.6641 44.4971L54.6641 38.0234C54.6641 25.2781 44.2969 14.9089 31.5547 14.9089C28.3906 14.9089 29.6562 14.8542 25.2812 15.1965C19.2422 15.6677 13.8359 18.8987 10.5703 23.9253L5.45312 22.2898C4.39062 21.95 3.28906 22.7097 3.23438 23.8271C3.21094 24.3391 2.69531 35.7185 4.77344 43.6443C1.94531 45.0623 0 47.9868 0 51.3591C0 55.7351 3.27344 59.3606 7.5 59.9128C8.57031 64.4785 11.0781 68.623 14.6797 71.6968C15.6172 72.5027 16.625 73.22 17.6797 73.8503L14.1016 73.8503C8.22656 73.8503 3.45312 78.6301 3.45312 84.5049L3.45312 99.3953C3.45312 100.334 4.21094 101.094 5.14844 101.094L7.96875 101.094C8.91406 101.094 9.67188 100.334 9.67188 99.3953C9.67188 98.4565 8.91406 97.696 7.96875 97.696L6.85156 97.696L6.85156 84.5049C6.85156 80.5039 10.1016 77.2488 14.1016 77.2488L19.0469 77.2488C19.8906 82.259 24.4219 86.0261 29.7188 85.6843C34.5078 85.3755 38.3047 81.77 39.0703 77.2488L44.0156 77.2488C48.0156 77.2488 51.2656 80.5039 51.2656 84.5049L51.2656 97.696L15.8984 97.696C14.9609 97.696 14.2031 98.4565 14.2031 99.3953C14.2031 100.334 14.9609 101.094 15.8984 101.094L52.9688 101.094C53.9062 101.094 54.6641 100.334 54.6641 99.3953L54.6641 84.5049C54.6641 83.0901 54.3906 81.7397 53.8828 80.5034L56.6172 80.5034C58.3203 80.5034 59.9531 80.1619 61.4453 79.5471C60.3984 81.168 59.7812 83.0969 59.7812 85.167L59.7812 99.3953C59.7812 100.334 60.5469 101.094 61.4844 101.094L105.766 101.094C106.703 101.094 107.469 100.334 107.469 99.3953L107.469 85.167C107.469 83.1226 106.867 81.2158 105.844 79.6072C107.297 80.1831 108.867 80.5034 110.523 80.5034L114.297 80.5034C115.242 80.5034 116 79.7427 116 78.8042L116 68.3972C116 63.5564 113.195 59.1553 108.961 57.0327ZM72.9531 49.1726C77.4688 49.1726 81.4219 46.7295 83.5703 43.0947C85.7109 46.7295 89.6641 49.1726 94.1875 49.1726L101.82 49.1726C104.305 49.1726 106.32 51.1907 106.32 53.6714C106.32 54.8843 105.836 55.9846 105.055 56.7942C104.156 57.7185 102.914 58.2168 101.641 58.165C100.781 58.1252 100.031 58.7363 99.8906 59.5823C98.6016 67.311 91.9141 73.3835 83.5703 73.3835C77.6719 73.3835 72.1641 70.2664 69.2031 65.082C69.1719 65.0122 69.1406 64.9434 69.1016 64.8774C68.4141 63.6362 67.8906 62.3252 67.5391 60.9648C67.5312 60.9375 67.5234 60.9099 67.5156 60.8828C67.4219 60.4995 67.3281 60.0928 67.2422 59.582C67.1016 58.738 66.3516 58.1257 65.4922 58.1648C62.9531 58.2681 60.8203 56.2166 60.8203 53.6709C60.8203 51.1902 62.8359 49.1721 65.3125 49.1721C65.375 49.1721 65.4375 49.175 65.5 49.1772C65.5703 49.1802 65.6406 49.1782 65.7188 49.1721L72.9531 49.1721L72.9531 49.1726ZM83.5938 83.9299C80.3594 83.9299 77.7344 81.2996 77.7344 78.0662L77.7344 76.4844L77.7344 75.9131C79.6641 76.5049 81.6719 76.7825 83.5703 76.7825C85.5234 76.7825 87.5625 76.4856 89.4609 75.8962L89.4609 78.0664C89.4609 81.1987 86.9922 83.7651 83.8984 83.9224C83.7969 83.9275 83.6953 83.9299 83.5938 83.9299ZM70.1641 74.7852C70.1641 74.7852 70.1641 74.7852 70.1641 74.7852C69 74.7856 67.875 74.9817 66.8359 75.3374C67.8828 73.9177 68.6406 72.2725 69.0312 70.4888C69.5312 71.0195 70.0547 71.5269 70.6094 72.0037C71.7578 72.9851 73.0078 73.8247 74.3359 74.5154L74.3359 74.7852L70.1641 74.7852ZM92.8594 74.4873C94.7812 73.4758 96.5391 72.156 98.1094 70.489C98.4844 72.2515 99.2344 73.8784 100.266 75.2866C98.3281 74.6599 97.3125 74.7852 92.8594 74.7852L92.8594 74.4873ZM6.57031 26.2168L10.8125 27.5713C11.5859 27.8176 12.4219 27.4849 12.8203 26.7747C15.4219 22.0649 20.1797 19.0029 25.5469 18.5845C29.8125 18.251 28.5234 18.3071 31.5547 18.3071C42.4219 18.3071 51.2656 27.1516 51.2656 38.0234L51.2656 42.9319C49.7812 42.6121 50.25 42.7395 26.9453 42.7395C25.2578 42.7395 23.6328 42.3628 22.1719 41.6829C18.9531 40.1873 16.5156 37.2231 15.7969 33.5706C15.5234 32.1748 13.8047 31.7551 12.8906 32.7358C10.4375 35.3562 8.72656 38.4604 7.79688 41.6819C6.625 36.3965 6.53125 29.6521 6.57031 26.2168ZM10.5859 57.999C10.4453 57.1772 9.73438 56.5801 8.90625 56.5801C8.88281 56.5801 8.85938 56.5806 8.84375 56.5815C8.76562 56.5845 8.69531 56.5872 8.625 56.5872C5.74219 56.5872 3.39844 54.2419 3.39844 51.3591C3.39844 48.5249 5.65625 46.2339 8.4375 46.1357C8.44531 46.1355 8.45312 46.1355 8.46094 46.1355C8.58594 46.1316 8.71094 46.1316 8.83594 46.1367C8.83594 46.1367 8.84375 46.1367 8.84375 46.137C8.85156 46.1372 8.85156 46.1365 8.85938 46.1367C9.71094 46.1631 10.4453 45.5574 10.5859 44.7195C10.9688 42.4258 11.7734 40.2441 12.9531 38.2661C13.125 37.9836 13.2969 37.7053 13.4844 37.4314C15.8203 42.6262 21.0547 46.1382 26.9453 46.1382L49.6719 46.1382L49.6719 46.1382C50.5 46.1763 51.3594 46.425 52.1016 46.8662C52.1094 46.8743 52.125 46.8794 52.1406 46.887C53.6562 47.8025 54.6562 49.4609 54.6562 51.3591C54.6562 54.2417 52.3125 56.5869 49.4297 56.5869C49.3594 56.5869 49.2812 56.584 49.2109 56.5813C48.3594 56.5508 47.6094 57.1545 47.4688 57.9988C45.9297 67.2073 38.0078 73.5911 29.0234 73.5911C19.9766 73.5913 12.1172 67.1418 10.5859 57.999ZM28.7188 82.3008C25.3906 82.1345 22.6797 79.5481 22.3438 76.2498C22.3359 76.2251 22.3359 76.2 22.3359 76.175C22.3281 76.1016 22.3203 76.0278 22.3203 75.9536C24.5547 76.668 26.8906 76.9895 29.0312 76.9895C31.2031 76.9895 33.5547 76.6565 35.8047 75.9326C35.5938 79.6333 32.4219 82.4861 28.7188 82.3008ZM44.0156 73.8503L40.375 73.8503C41.4297 73.22 42.4375 72.5027 43.375 71.6968C46.9766 68.6233 49.4844 64.4788 50.5547 59.9128C53.7109 59.5002 56.3359 57.3723 57.4609 54.4976C57.5547 55.3958 57.8047 56.2493 58.1719 57.0327C53.9375 59.1553 51.1328 63.5562 51.1328 68.3972L51.1328 76.5894C49.25 74.8879 46.75 73.8503 44.0156 73.8503ZM54.5312 77.105L54.5312 68.3972C54.5312 64.6162 56.8672 61.1992 60.3203 59.7844C61.4453 60.7061 62.8047 61.2852 64.1641 61.4849C64.5547 63.124 65.1719 64.7251 65.9219 66.1362L65.9219 67.7988C65.9219 72.9299 61.7422 77.1047 56.6172 77.1047L54.5312 77.1047L54.5312 77.105ZM104.07 97.696L63.1797 97.696L63.1797 85.167C63.1797 81.3162 66.3125 78.1836 70.1641 78.1836L74.3359 78.1836C74.3984 83.2012 78.5 87.3284 83.5938 87.3284C88.6328 87.3284 92.7969 83.2646 92.8594 78.1836L97.0859 78.1836C100.938 78.1836 104.062 81.3162 104.062 85.167L104.062 97.696L104.07 97.696ZM112.602 77.105L110.523 77.105C105.391 77.105 101.219 72.9302 101.219 67.7991L101.219 66.1365C101.977 64.7041 102.586 63.1033 102.969 61.4851C104.25 61.2976 105.539 60.7788 106.656 59.9089C106.711 59.8672 106.766 59.8281 106.82 59.7849C110.266 61.1995 112.602 64.6162 112.602 68.3972L112.602 77.105Z" fill="#000000" fill-opacity="1.000000" fill-rule="nonzero"/>
		<path id="Vector" d="M29.0234 67.1567C32.3516 67.1567 35.0547 64.4509 35.0547 61.125C35.0547 60.1863 34.2969 59.4258 33.3594 59.4258C32.4219 59.4258 31.6562 60.1863 31.6562 61.125C31.6562 62.5771 30.4766 63.7583 29.0234 63.7583C27.5703 63.7583 26.3906 62.5771 26.3906 61.125C26.3906 60.1863 25.6328 59.4258 24.6875 59.4258C23.75 59.4258 22.9922 60.1863 22.9922 61.125C22.9922 64.4507 25.6953 67.1567 29.0234 67.1567Z" fill="#000000" fill-opacity="1.000000" fill-rule="nonzero"/>
		<path id="Vector" d="M19.0625 49.292C18.125 49.292 17.3672 50.0525 17.3672 50.9912L17.3672 54.748C17.3672 55.6868 18.125 56.4473 19.0625 56.4473C20.0078 56.4473 20.7656 55.6868 20.7656 54.748L20.7656 50.9912C20.7656 50.0527 20.0078 49.292 19.0625 49.292Z" fill="#000000" fill-opacity="1.000000" fill-rule="nonzero"/>
		<path id="Vector" d="M38.9844 56.4473C39.9297 56.4473 40.6875 55.6868 40.6875 54.748L40.6875 50.9912C40.6875 50.0525 39.9297 49.292 38.9844 49.292C38.0469 49.292 37.2891 50.0525 37.2891 50.9912L37.2891 54.748C37.2891 55.6868 38.0469 56.4473 38.9844 56.4473Z" fill="#000000" fill-opacity="1.000000" fill-rule="nonzero"/>
	</g>
</svg>
