<svg width="112.000000" height="112.000000" viewBox="0 0 112 112" fill="none" xmlns="http://www.w3.org/2000/svg" xmlns:xlink="http://www.w3.org/1999/xlink">
	<desc>
			Created with Pixso.
	</desc>
	<defs>
		<clipPath id="clip877_12533">
			<rect id="car (1) 1" width="112.000000" height="112.000000" fill="white" fill-opacity="0"/>
		</clipPath>
	</defs>
	<rect id="car (1) 1" width="112.000000" height="112.000000" fill="#FFFFFF" fill-opacity="0"/>
	<g clip-path="url(#clip877_12533)">
		<circle id="Ellipse 10" cx="28.000000" cy="78.000000" r="22.000000" fill="#00A0E3" fill-opacity="1.000000"/>
		<circle id="Ellipse 11" cx="99.000000" cy="75.000000" r="9.000000" fill="#00A0E3" fill-opacity="1.000000"/>
		<path id="Vector" d="M106.852 82.2551L105.188 75.4111C105.18 75.3745 105.164 75.3381 105.156 75.3018C102.82 67.8291 95.7812 63 87.2266 63L86.9141 63L81.3516 49.6365C79.7109 45.6978 76.0781 42.9429 71.75 42.2012L71.75 36.75C71.75 36.2859 71.5625 35.8408 71.2344 35.5125C70.9062 35.1843 70.4609 35 70 35L64.75 35L64.75 22.75C64.75 21.3582 64.1953 20.0237 63.2109 19.0396C62.2266 18.0552 60.8906 17.5017 59.5 17.5L56 17.5L56 15.75C56 14.3582 55.4453 13.0237 54.4609 12.0393C53.4766 11.0552 52.1406 10.5015 50.75 10.5L47.25 10.5C45.8594 10.5015 44.5234 11.0552 43.5391 12.0393C42.5547 13.0237 42 14.3582 42 15.75L42 17.5L40.25 17.5L40.25 15.103C40.25 13.8826 39.7656 12.7126 38.8984 11.8496C38.0391 10.9868 36.8672 10.5012 35.6484 10.5L27.3516 10.5C26.1328 10.5012 24.9609 10.9868 24.1016 11.8496C23.2344 12.7126 22.75 13.8826 22.75 15.103L22.75 35L17.5 35C17.0391 35 16.5938 35.1843 16.2656 35.5125C15.9375 35.8408 15.75 36.2859 15.75 36.75L15.75 42C12.5 42.0037 9.39062 43.2954 7.09375 45.592C4.79688 47.8884 3.5 51.0022 3.5 54.25L3.5 91C3.5 91.4641 3.6875 91.9092 4.01562 92.2375C4.34375 92.5657 4.78906 92.75 5.25 92.75L18.9141 92.75C19.8359 94.3459 21.1562 95.6716 22.75 96.593C24.3516 97.5146 26.1562 98 28 98C29.8438 98 31.6484 97.5146 33.25 96.593C34.8438 95.6716 36.1641 94.3459 37.0859 92.75L71.4141 92.75C72.3359 94.3459 73.6562 95.6716 75.25 96.593C76.8516 97.5146 78.6562 98 80.5 98C82.3438 98 84.1484 97.5146 85.75 96.593C87.3438 95.6716 88.6641 94.3459 89.5859 92.75L106.75 92.75C107.211 92.75 107.656 92.5657 107.984 92.2375C108.312 91.9092 108.5 91.4641 108.5 91L108.5 84C108.5 83.5535 108.328 83.1238 108.023 82.7993C107.719 82.4749 107.297 82.28 106.852 82.2551ZM103.25 82.25L98 82.25L98 78.75L102.398 78.75L103.25 82.25ZM64.75 40.2083L64.75 38.5L68.25 38.5L68.25 42L64.4375 42C64.6406 41.4258 64.75 40.8193 64.75 40.2083ZM69.3828 45.5C73.2422 45.5 76.75 47.7031 78.1172 50.9827L83.125 63L54.25 63L54.25 45.5L69.3828 45.5ZM45.5 15.75C45.5 15.2861 45.6875 14.8413 46.0156 14.5132C46.3438 14.1851 46.7891 14.0005 47.25 14L50.75 14C51.2109 14.0005 51.6562 14.1851 51.9844 14.5132C52.3125 14.8413 52.5 15.2861 52.5 15.75L52.5 17.5L45.5 17.5L45.5 15.75ZM40.25 21L59.5 21C59.9609 21.0005 60.4062 21.1851 60.7344 21.5132C61.0625 21.8413 61.25 22.2861 61.25 22.75L61.25 35L40.25 35L40.25 21ZM40.25 40.8552L40.25 38.5L61.25 38.5L61.25 40.2083C61.25 40.6721 61.0625 41.1169 60.7344 41.4451C60.4062 41.7732 59.9609 41.9578 59.5 41.9583L59.5 42L40.1016 42C40.1953 41.6262 40.25 41.2417 40.25 40.8552ZM50.75 45.5L50.75 63L29.75 63L29.75 45.5L50.75 45.5ZM33.25 14L35.6484 14C35.9375 14.0002 36.2188 14.1167 36.4297 14.3235C36.6328 14.5303 36.75 14.8105 36.75 15.103L36.75 35L33.25 35L33.25 14ZM33.25 38.5L36.75 38.5L36.75 40.8552C36.75 41.1477 36.6328 41.428 36.4297 41.6348C36.2188 41.8416 35.9375 41.9578 35.6484 41.9583L35.6484 42L33.25 42L33.25 38.5ZM26.25 15.103C26.25 14.8105 26.3672 14.5303 26.5703 14.3235C26.7812 14.1167 27.0625 14.0002 27.3516 14L29.75 14L29.75 35L26.25 35L26.25 15.103ZM26.25 38.5L29.75 38.5L29.75 42L27.3516 42L27.3516 41.9583C27.0625 41.9578 26.7812 41.8416 26.5703 41.6348C26.3672 41.428 26.25 41.1477 26.25 40.8552L26.25 38.5ZM19.25 38.5L22.75 38.5L22.75 40.8552C22.75 41.2417 22.8047 41.6262 22.8984 42L19.25 42L19.25 38.5ZM7 54.25C7 51.9302 7.92188 49.7061 9.5625 48.0657C11.2031 46.4253 13.4297 45.5027 15.75 45.5L26.25 45.5L26.25 63L7 63L7 54.25ZM7 78.75L10.5 78.75L10.5 82.25L7 82.25L7 78.75ZM17.6484 89.25L7 89.25L7 85.75L17.6484 85.75C17.4531 86.9082 17.4531 88.0918 17.6484 89.25ZM28 94.5C26.6172 94.5 25.2656 94.0894 24.1094 93.3203C22.9609 92.551 22.0625 91.4578 21.5312 90.1787C21 88.8997 20.8672 87.4922 21.1328 86.1343C21.4062 84.7766 22.0703 83.5293 23.0469 82.5503C24.0312 81.5713 25.2734 80.9045 26.6328 80.6345C27.9922 80.3645 29.3984 80.5029 30.6797 81.0327C31.9609 81.5627 33.0547 82.46 33.8203 83.6111C34.5859 84.7622 35 86.1155 35 87.5C35 89.356 34.2578 91.1353 32.9453 92.4475C31.6328 93.7598 29.8594 94.4978 28 94.5ZM70.1484 89.25L38.3516 89.25C38.5469 88.0918 38.5469 86.9082 38.3516 85.75L70.1484 85.75C69.9531 86.9082 69.9531 88.0918 70.1484 89.25ZM80.5 94.5C79.1172 94.5 77.7656 94.0894 76.6094 93.3203C75.4609 92.551 74.5625 91.4578 74.0312 90.1787C73.5 88.8997 73.3672 87.4922 73.6328 86.1343C73.9062 84.7766 74.5703 83.5293 75.5469 82.5503C76.5312 81.5713 77.7734 80.9045 79.1328 80.6345C80.4922 80.3645 81.8984 80.5029 83.1797 81.0327C84.4609 81.5627 85.5547 82.46 86.3203 83.6111C87.0859 84.7622 87.5 86.1155 87.5 87.5C87.5 89.356 86.7578 91.1353 85.4453 92.4475C84.1328 93.7598 82.3594 94.4978 80.5 94.5ZM80.5 77C78.6562 77.0015 76.8516 77.4871 75.25 78.4087C73.6562 79.3301 72.3359 80.6548 71.4141 82.25L37.0859 82.25C36.1641 80.6541 34.8438 79.3284 33.25 78.4067C31.6484 77.4854 29.8438 77 28 77C26.1562 77 24.3516 77.4854 22.75 78.4067C21.1562 79.3284 19.8359 80.6541 18.9141 82.25L14 82.25L14 77C14 76.5359 13.8125 76.0908 13.4844 75.7625C13.1562 75.4343 12.7109 75.25 12.25 75.25L7 75.25L7 66.5L87.2266 66.5C93.8906 66.5 99.2188 69.8225 101.422 75.25L96.25 75.25C95.7891 75.25 95.3438 75.4343 95.0156 75.7625C94.6875 76.0908 94.5 76.5359 94.5 77L94.5 82.25L89.5859 82.25C88.6641 80.6548 87.3438 79.3301 85.75 78.4087C84.1484 77.4871 82.3438 77.0015 80.5 77ZM105 89.25L90.8516 89.25C91.0469 88.0918 91.0469 86.9082 90.8516 85.75L105 85.75L105 89.25Z" fill="#000000" fill-opacity="1.000000" fill-rule="nonzero"/>
		<path id="Vector" d="M5.25 98C4.78906 98 4.34375 98.1843 4.01562 98.5125C3.6875 98.8408 3.5 99.2859 3.5 99.75C3.5 100.214 3.6875 100.659 4.01562 100.988C4.34375 101.316 4.78906 101.5 5.25 101.5L106.75 101.5C107.211 101.5 107.656 101.316 107.984 100.988C108.312 100.659 108.5 100.214 108.5 99.75C108.5 99.2859 108.312 98.8408 107.984 98.5125C107.656 98.1843 107.211 98 106.75 98L5.25 98Z" fill="#000000" fill-opacity="1.000000" fill-rule="nonzero"/>
		<path id="Vector" d="M59.5 70L56 70C55.5391 70 55.0938 70.1843 54.7656 70.5125C54.4375 70.8408 54.25 71.2859 54.25 71.75C54.25 72.2141 54.4375 72.6592 54.7656 72.9875C55.0938 73.3157 55.5391 73.5 56 73.5L59.5 73.5C59.9609 73.5 60.4062 73.3157 60.7344 72.9875C61.0625 72.6592 61.25 72.2141 61.25 71.75C61.25 71.2859 61.0625 70.8408 60.7344 70.5125C60.4062 70.1843 59.9609 70 59.5 70Z" fill="#000000" fill-opacity="1.000000" fill-rule="nonzero"/>
		<path id="Vector" d="M35 70L31.5 70C31.0391 70 30.5938 70.1843 30.2656 70.5125C29.9375 70.8408 29.75 71.2859 29.75 71.75C29.75 72.2141 29.9375 72.6592 30.2656 72.9875C30.5938 73.3157 31.0391 73.5 31.5 73.5L35 73.5C35.4609 73.5 35.9062 73.3157 36.2344 72.9875C36.5625 72.6592 36.75 72.2141 36.75 71.75C36.75 71.2859 36.5625 70.8408 36.2344 70.5125C35.9062 70.1843 35.4609 70 35 70Z" fill="#000000" fill-opacity="1.000000" fill-rule="nonzero"/>
		<path id="Vector" d="M31.5 87.5C31.5 89.4331 29.9297 91 28 91C26.0703 91 24.5 89.4331 24.5 87.5C24.5 85.5669 26.0703 84 28 84C29.9297 84 31.5 85.5669 31.5 87.5Z" fill="#000000" fill-opacity="1.000000" fill-rule="evenodd"/>
		<path id="Vector" d="M84 87.5C84 89.4331 82.4297 91 80.5 91C78.5703 91 77 89.4331 77 87.5C77 85.5669 78.5703 84 80.5 84C82.4297 84 84 85.5669 84 87.5Z" fill="#000000" fill-opacity="1.000000" fill-rule="evenodd"/>
	</g>
</svg>
