<svg width="104.000000" height="104.000000" viewBox="0 0 104 104" fill="none" xmlns="http://www.w3.org/2000/svg" xmlns:xlink="http://www.w3.org/1999/xlink">
	<desc>
			Created with Pixso.
	</desc>
	<defs>
		<clipPath id="clip877_12542">
			<rect id="parents 1" width="104.000000" height="104.000000" fill="white" fill-opacity="0"/>
		</clipPath>
	</defs>
	<rect id="parents 1" width="104.000000" height="104.000000" fill="#FFFFFF" fill-opacity="0"/>
	<g clip-path="url(#clip877_12542)">
		<circle id="Ellipse 10" cx="16.500000" cy="84.500000" r="13.500000" fill="#00A0E3" fill-opacity="1.000000"/>
		<circle id="Ellipse 11" cx="71.500000" cy="17.500000" r="9.500000" fill="#00A0E3" fill-opacity="1.000000"/>
		<path id="Vector" d="M19.1172 42.6292C19.9609 42.6292 20.6406 41.9453 20.6406 41.1013L20.6406 37.5601C20.6406 36.7161 19.9609 36.0322 19.1172 36.0322C18.2734 36.0322 17.5859 36.7161 17.5859 37.5601L17.5859 41.1013C17.5859 41.9453 18.2734 42.6292 19.1172 42.6292Z" fill="#000000" fill-opacity="1.000000" fill-rule="nonzero"/>
		<path id="Vector" d="M34.4219 42.6292C35.2656 42.6292 35.9453 41.9453 35.9453 41.1013L35.9453 37.5601C35.9453 36.7161 35.2656 36.0322 34.4219 36.0322C33.5781 36.0322 32.8906 36.7161 32.8906 37.5601L32.8906 41.1013C32.8906 41.9453 33.5781 42.6292 34.4219 42.6292Z" fill="#000000" fill-opacity="1.000000" fill-rule="nonzero"/>
		<path id="Vector" d="M34.3359 51.8181C34.9219 51.6392 35.3438 51.1255 35.4062 50.5142C35.4219 50.3745 35.7422 47.0571 33.5 44.5703C31.9609 42.8623 29.6719 41.9961 26.6953 41.9961C23.7188 41.9961 21.4297 42.8621 19.8906 44.5703C17.6484 47.0574 17.9609 50.3745 17.9766 50.5142C18.0391 51.1255 18.4609 51.6392 19.0547 51.8181C20.8594 52.3674 24.3516 52.615 26.6953 50.5098C28.1172 51.792 29.9688 52.2017 31.6094 52.2017C32.6641 52.2014 33.625 52.033 34.3359 51.8181ZM28.0703 47.3711C28.0469 47.3281 28.0234 47.2859 28 47.2444C27.7266 46.7876 27.2266 46.5088 26.6953 46.5088L26.6953 46.5088C26.1562 46.5088 25.6641 46.7876 25.3828 47.2444C25.3594 47.2859 25.3359 47.3281 25.3203 47.3711C24.3594 49.1499 22.3438 49.25 21.0625 49.1072C21.1719 48.3752 21.4453 47.4043 22.1562 46.6162C23.0938 45.5784 24.6172 45.052 26.6953 45.052C28.7578 45.052 30.2734 45.5718 31.2109 46.5972C31.9297 47.3855 32.2109 48.3679 32.3203 49.1072C31.0391 49.2495 29.0234 49.1479 28.0703 47.3711Z" fill="#000000" fill-opacity="1.000000" fill-rule="nonzero"/>
		<path id="Vector" d="M102.469 84.2119C103.312 84.2119 104 83.5278 104 82.6838L104 77.6719C104 72.6345 102.219 68.0066 99.25 64.385C103.609 61.4272 103.984 56.9036 104 56.6907C104.047 56.0007 103.633 55.3691 102.984 55.144C102.977 55.1409 102.109 54.8167 101.367 54.001C100.438 52.9685 100.109 51.5864 100.398 49.8926C102.273 39.022 102.828 24.0684 94.8203 14.5632C90.5469 9.48926 84.2969 6.69531 77.2344 6.69531C72.2891 6.69531 67.6875 8.06763 63.9297 10.6638C63.2344 11.1436 63.0625 12.0952 63.5391 12.7896C64.0234 13.4834 64.9766 13.6577 65.6719 13.1777C68.9141 10.936 72.9141 9.75098 77.2344 9.75098C81.5859 9.75098 87.7578 10.9275 92.4844 16.532C98.2188 23.3447 99.9219 34.7012 97.3906 49.3738C96.6484 53.6792 98.8438 56.2607 100.75 57.439C100.414 58.6382 99.5 60.6873 97.1016 62.1272C94.2109 59.5059 90.5859 57.6777 86.5859 56.9875C91.375 53.9028 94.5625 48.5249 94.5625 42.4143L94.5625 34.2542C94.5625 33.6484 94.2031 33.1001 93.6484 32.856C87.4844 30.1438 84.2812 21.6902 84.25 21.605C84.0469 21.0623 83.5547 20.6799 82.9766 20.6177C82.4062 20.5574 81.8438 20.8247 81.5312 21.3127C75.4375 30.8245 61.7656 32.9763 61.2422 33.0547C60.4922 33.1514 59.9141 33.793 59.9141 34.5698L59.9141 42.4143C59.9141 48.5249 63.0938 53.9028 67.8906 56.9875C63.8828 57.6777 60.2578 59.5056 57.375 62.1272C54.9688 60.6858 54.0547 58.635 53.7188 57.4395C55.6328 56.2617 57.8203 53.6802 57.0781 49.3738C54.625 35.0994 56.1719 23.9272 61.5547 17.0657C62.0781 16.4021 61.9609 15.4414 61.2969 14.9204C60.6328 14.3997 59.6719 14.5151 59.1484 15.1787C53.2188 22.739 51.4609 34.7427 54.0703 49.8926C54.3594 51.5864 54.0391 52.9685 53.1016 54.001C52.3672 54.8147 51.5 55.1392 51.5 55.1392C50.8516 55.3643 50.4297 56.0007 50.4766 56.6904C50.4922 56.9031 50.8672 61.427 55.2266 64.3848C53.8906 66.0093 52.7969 67.8367 52 69.8125C49.3125 63.1863 43.3359 58.2327 36.1094 56.9873C39.3359 54.9111 41.8281 51.7964 43.1172 48.1167C46.8594 48.1091 49.8984 45.0642 49.8984 41.3223C49.8984 40.3169 49.6797 39.363 49.2812 38.5039C52.1406 30.0745 51.9922 23.4341 48.8438 18.7615C45.75 14.1826 40.7109 12.9241 38.4609 12.5837C38.0391 11.4028 37.0625 9.5957 34.8594 8.13965C29.9766 4.90991 21.7891 4.99512 10.5234 8.39209C6.32031 9.66211 3.4375 12.0142 1.95312 15.3838C-0.28125 20.4768 0.796875 27.7588 5.15625 37.0342C4.20312 38.2048 3.625 39.6978 3.625 41.3228C3.625 45.0647 6.67188 48.1094 10.4062 48.1174C11.6953 51.7986 14.1953 54.9146 17.4219 56.991C13.6562 57.6396 10.125 59.3027 7.21094 61.8379C6.57031 62.3921 6.50781 63.3572 7.0625 63.9937C7.61719 64.6299 8.57812 64.6963 9.21875 64.1426C11.9375 61.7732 15.2969 60.2961 18.8516 59.8699C19.0547 61.4014 19.625 63.6455 21.25 65.3157C22.6406 66.7498 24.5 67.4768 26.7656 67.4768C29.0312 67.4768 30.8906 66.7485 32.2812 65.313C33.9062 63.6401 34.4766 61.397 34.6797 59.8662C43.5625 60.9272 50.4688 68.5073 50.4688 77.6721L50.4688 95.1648L43.5547 95.1648L43.5547 80.0781C43.5547 79.2341 42.875 78.55 42.0312 78.55C41.1875 78.55 40.5 79.2341 40.5 80.0781L40.5 95.1648L13.0234 95.1648L13.0234 80.0781C13.0234 79.2341 12.3438 78.55 11.5 78.55C10.6562 78.55 9.96875 79.2341 9.96875 80.0781L9.96875 95.1648L3.05469 95.1648L3.05469 77.6721C3.05469 74.415 3.9375 71.2266 5.60156 68.4512C6.03906 67.7278 5.80469 66.7893 5.07812 66.3547C4.35938 65.9199 3.42188 66.1543 2.98438 66.8774C1.03125 70.1279 0 73.8608 0 77.6719L0 96.6921C0 97.5361 0.6875 98.2202 1.53125 98.2202L102.469 98.2202C103.312 98.2202 104 97.5361 104 96.6921L104 88.7954C104 87.9514 103.312 87.2673 102.469 87.2673C101.625 87.2673 100.945 87.9514 100.945 88.7954L100.945 95.1643L94.0312 95.1643L94.0312 80.0776C94.0312 79.2336 93.3438 78.5498 92.5 78.5498C91.6562 78.5498 90.9766 79.2336 90.9766 80.0776L90.9766 95.1643L63.5 95.1643L63.5 80.0776C63.5 79.2336 62.8125 78.5498 61.9688 78.5498C61.125 78.5498 60.4453 79.2336 60.4453 80.0776L60.4453 95.1643L53.5312 95.1643L53.5312 77.6716C53.5312 77.6689 53.5312 77.6663 53.5312 77.6636C53.5312 68.5107 60.4297 60.9397 69.2969 59.8684C69.5 61.4004 70.0703 63.646 71.6953 65.3159C73.0859 66.7493 74.9453 67.4761 77.2109 67.4761C79.4766 67.4761 81.3359 66.7478 82.7266 65.3113C84.3516 63.637 84.9297 61.3931 85.125 59.8628C94.0234 60.9128 100.945 68.498 100.945 77.6714L100.945 82.6836C100.945 83.5278 101.625 84.2119 102.469 84.2119ZM43.8984 44.9753C44.0234 44.1394 44.0859 43.2847 44.0859 42.4146L44.0859 37.7146C45.6797 38.1462 46.8438 39.6008 46.8438 41.3228C46.8438 43.1125 45.5781 44.6108 43.8984 44.9753ZM4.75 16.6121C5.875 14.0632 8.04688 12.3315 11.4062 11.3184C24.1953 7.4624 30.25 8.81348 33.0781 10.6262C35.3672 12.093 35.7188 13.9807 35.7422 14.1638C35.8125 14.9233 36.4297 15.4756 37.1875 15.5137C37.25 15.5171 43.2188 15.8677 46.3281 20.4958C48.6875 24.0232 48.8984 29.1421 46.9609 35.7317C46.1172 35.1504 45.1406 34.7537 44.0859 34.6001L44.0859 31.9023C44.0859 31.3191 43.7578 30.7866 43.2344 30.5303C38.4922 28.2087 35.3516 20.4341 35.3203 20.3569C34.9766 19.4104 33.6875 19.0798 32.9297 19.7449C21.7656 29.02 11.2188 28.1497 11.1172 28.1418C10.25 28.0347 9.42188 28.7847 9.4375 29.6621L9.4375 34.6001C8.80469 34.6919 8.20312 34.8721 7.64062 35.126C3.96094 27.0845 2.96094 20.7017 4.75 16.6121ZM6.6875 41.3228C6.6875 39.6008 7.85156 38.146 9.4375 37.7146L9.4375 42.4146C9.4375 43.2847 9.50781 44.1396 9.63281 44.9753C7.94531 44.6108 6.6875 43.1125 6.6875 41.3228ZM12.4922 42.4146L12.4922 31.2266C15.9609 31.158 24.2969 30.1951 33.3203 23.3342C34.5938 25.9138 37.2656 30.5144 41.0312 32.8047L41.0312 42.4146C41.0312 50.2817 34.6328 56.6824 26.7656 56.6824C18.8984 56.6824 12.4922 50.2817 12.4922 42.4146ZM26.7656 64.4207C25.3359 64.4207 24.25 64.0168 23.4375 63.1863C22.4844 62.2048 22.0859 60.7961 21.9219 59.738L31.6094 59.738C31.4453 60.7949 31.0469 62.2019 30.0859 63.1846C29.2812 64.0164 28.1953 64.4207 26.7656 64.4207ZM62.9688 42.4143L62.9688 35.8401C66.7031 35.0952 76.4375 32.5049 82.5 25.1553C83.9766 28.0691 86.9375 32.792 91.5 35.2107L91.5 42.4143C91.5 50.2817 85.1016 56.6824 77.2344 56.6824C69.3672 56.6824 62.9688 50.2817 62.9688 42.4143ZM77.2109 64.4207C75.7812 64.4207 74.6953 64.0171 73.8906 63.1868C72.9375 62.2058 72.5312 60.7969 72.3672 59.738L82.0547 59.738C81.8906 60.7947 81.4922 62.2007 80.5391 63.1838C79.7266 64.0164 78.6406 64.4207 77.2109 64.4207Z" fill="#000000" fill-opacity="1.000000" fill-rule="nonzero"/>
		<path id="Vector" d="M69.5859 36.0322C68.7422 36.0322 68.0547 36.7161 68.0547 37.5601L68.0547 41.1013C68.0547 41.9453 68.7422 42.6292 69.5859 42.6292C70.4297 42.6292 71.1094 41.9453 71.1094 41.1013L71.1094 37.5601C71.1094 36.7161 70.4297 36.0322 69.5859 36.0322Z" fill="#000000" fill-opacity="1.000000" fill-rule="nonzero"/>
		<path id="Vector" d="M84.8906 42.6292C85.7344 42.6292 86.4141 41.9453 86.4141 41.1013L86.4141 37.5601C86.4141 36.7161 85.7344 36.0322 84.8906 36.0322C84.0469 36.0322 83.3594 36.7161 83.3594 37.5601L83.3594 41.1013C83.3594 41.9453 84.0469 42.6292 84.8906 42.6292Z" fill="#000000" fill-opacity="1.000000" fill-rule="nonzero"/>
		<path id="Vector" d="M82.0703 48.0513C82.9219 46.157 80.2031 44.8926 79.2969 46.7468C79.25 46.8423 78.7891 47.6792 77.2344 47.6792C75.6797 47.6792 75.2188 46.8423 75.1719 46.7468C74.2734 44.8926 71.5469 46.157 72.4062 48.0513C72.8828 49.0942 74.3828 50.7405 77.2344 50.7405C80.0938 50.7405 81.5938 49.0942 82.0703 48.0513Z" fill="#000000" fill-opacity="1.000000" fill-rule="nonzero"/>
	</g>
</svg>
