<svg width="130" height="130" viewBox="0 0 130 130" fill="none" xmlns="http://www.w3.org/2000/svg">
<g clip-path="url(#clip0_877_16996)">
<path d="M88.6421 81.5259C88.2366 80.4005 86.9956 79.8171 85.8704 80.2226C84.745 80.6282 84.1616 81.8692 84.5671 82.9943C84.5771 83.022 84.5877 83.0493 84.5988 83.0766C86.574 88.2313 86.717 92.1731 84.9887 93.9058C82.8921 95.9979 77.6703 95.3439 71.0169 92.1601C62.1094 87.535 54.0128 81.4929 47.0434 74.2704C30.0785 57.3033 23.0786 40.6547 27.4081 36.3252C28.7896 35.2342 30.5853 34.8151 32.3072 35.1816C33.5 35.2693 34.5382 34.3732 34.626 33.1804C34.7107 32.0274 33.875 31.0111 32.7273 30.8716C29.716 30.3389 26.6265 31.2168 24.3456 33.254C16.41 41.1875 28.5408 61.8819 43.981 77.3242C51.2963 84.8943 59.7966 91.2215 69.1478 96.0564C70.8412 96.8672 72.5863 97.5655 74.3718 98.1464L58.9836 103.981C38.4354 96.169 23.6431 77.9523 20.2154 56.2378C20.0299 55.056 18.9216 54.2482 17.7399 54.4336C16.5581 54.6191 15.7503 55.7274 15.9357 56.9092C16.2758 59.075 16.7306 61.2408 17.2872 63.359C22.2745 82.2555 35.4105 97.9537 53.1316 106.195L27.8044 115.778C27.6883 115.585 27.5421 115.411 27.3713 115.263C20.9344 110.095 16.8957 102.516 16.1956 94.2913L15.1907 82.1215C15.1116 80.9425 14.0915 80.0507 12.9122 80.1298C12.8898 80.1314 12.8673 80.133 12.8451 80.1355C11.6528 80.2302 10.7629 81.2739 10.8577 82.4662C10.8579 82.471 10.8585 82.4762 10.859 82.481L11.8813 94.6465C12.6426 103.438 16.7436 111.603 23.3407 117.463L5.27338 124.303L8.52211 110.97C8.80556 109.808 8.09301 108.635 6.93023 108.352C5.76745 108.068 4.5952 108.781 4.31175 109.944L0.0862285 127.27C-0.198577 128.432 0.512354 129.605 1.67432 129.889C2.10044 129.994 2.54796 129.966 2.95811 129.811L83.0936 99.4893C83.2211 99.427 83.3415 99.3514 83.4531 99.264C85.1874 98.9976 86.7952 98.1957 88.0511 96.9704C90.1972 94.8241 92.0446 90.3993 88.6421 81.5259Z" fill="#009FE3"/>
<path d="M109.082 75.9402C97.3739 71.5571 84.7192 70.3282 72.3865 72.3774L64.648 73.6769C63.4733 73.9027 62.7042 75.0378 62.93 76.2125C63.1482 77.3474 64.2189 78.1111 65.3627 77.9479L73.099 76.6592C84.6813 74.7335 96.5666 75.8885 107.562 80.0076C107.806 80.0939 108.063 80.1373 108.322 80.1354C109.518 80.1373 110.489 79.1694 110.491 77.9731C110.493 77.0675 109.931 76.2566 109.082 75.9402Z" fill="#009FE3"/>
<path d="M116.777 42.385C116.262 41.3048 114.97 40.8462 113.89 41.3606L68.4073 63.0188C67.3274 63.533 66.8685 64.8251 67.3826 65.9053L67.3829 65.9059C67.897 66.9858 69.1892 67.4447 70.2694 66.9306L70.2699 66.9303L115.752 45.2721C116.832 44.7577 117.291 43.4653 116.777 42.385Z" fill="#009FE3"/>
<path d="M52.6189 14.6994C52.3807 13.5272 51.2374 12.7699 50.0651 13.0082C48.8929 13.2464 48.1357 14.3897 48.3739 15.5619C48.3791 15.5879 48.385 15.6137 48.3912 15.6394C51.1326 27.8868 50.0029 40.6836 45.1577 52.2613L42.0086 59.8178C41.5535 60.9189 42.073 62.1807 43.1716 62.6421C43.4348 62.7528 43.7177 62.8094 44.0033 62.8088C44.8775 62.8088 45.6658 62.2836 46.0023 61.4769L49.1536 53.929C54.3448 41.5272 55.5558 27.8191 52.6189 14.6994Z" fill="#009FE3"/>
<path d="M119.146 77.9697C115.557 77.9697 112.648 80.8787 112.648 84.4672C112.648 88.0557 115.557 90.9647 119.146 90.9647C122.734 90.9647 125.643 88.0557 125.643 84.4672C125.643 80.8787 122.734 77.9697 119.146 77.9697ZM119.146 86.633C117.95 86.633 116.98 85.6633 116.98 84.4672C116.98 83.2711 117.95 82.3014 119.146 82.3014C120.342 82.3014 121.312 83.2711 121.312 84.4672C121.312 85.6633 120.342 86.633 119.146 86.633Z" fill="#009FE3"/>
<path d="M67.1693 17.3267C63.5808 17.3267 60.6719 20.2356 60.6719 23.8241C60.6719 27.4126 63.5808 30.3216 67.1693 30.3216C70.7578 30.3216 73.6668 27.4126 73.6668 23.8241C73.6668 20.2356 70.7578 17.3267 67.1693 17.3267ZM67.1693 25.99C65.9733 25.99 65.0035 25.0202 65.0035 23.8241C65.0035 22.6281 65.9733 21.6583 67.1693 21.6583C68.3654 21.6583 69.3352 22.6281 69.3352 23.8241C69.3352 25.0202 68.3654 25.99 67.1693 25.99Z" fill="#009FE3"/>
<path d="M47.6754 8.66329C50.0677 8.66329 52.007 6.72395 52.007 4.33165C52.007 1.93934 50.0677 0 47.6754 0C45.2831 0 43.3438 1.93934 43.3438 4.33165C43.3438 6.72395 45.2831 8.66329 47.6754 8.66329Z" fill="#009FE3"/>
<path d="M108.322 10.8291C107.126 10.8291 106.156 11.7988 106.156 12.9949V15.1607C106.156 16.3568 107.126 17.3266 108.322 17.3266C109.518 17.3266 110.488 16.3568 110.488 15.1607V12.9949C110.488 11.7988 109.518 10.8291 108.322 10.8291Z" fill="#009FE3"/>
<path d="M108.322 0C107.126 0 106.156 0.969747 106.156 2.16582V4.33165C106.156 5.52772 107.126 6.49747 108.322 6.49747C109.518 6.49747 110.488 5.52772 110.488 4.33165V2.16582C110.488 0.969747 109.518 0 108.322 0Z" fill="#009FE3"/>
<path d="M114.816 6.49756H112.65C111.454 6.49756 110.484 7.46731 110.484 8.66338C110.484 9.85946 111.454 10.8292 112.65 10.8292H114.816C116.012 10.8292 116.982 9.85946 116.982 8.66338C116.982 7.46731 116.012 6.49756 114.816 6.49756Z" fill="#009FE3"/>
<path d="M103.988 6.49756H101.822C100.626 6.49756 99.6562 7.46731 99.6562 8.66338C99.6562 9.85946 100.626 10.8292 101.822 10.8292H103.988C105.184 10.8292 106.154 9.85946 106.154 8.66338C106.154 7.46731 105.184 6.49756 103.988 6.49756Z" fill="#009FE3"/>
<path d="M93.1576 23.7786H82.283C81.0869 23.7786 80.1172 24.7483 80.1172 25.9444V36.819C80.1172 38.0151 81.0869 38.9848 82.283 38.9848H93.1576C94.3537 38.9848 95.3234 38.0151 95.3234 36.819V25.9444C95.3234 24.7483 94.3537 23.7786 93.1576 23.7786ZM90.9918 34.6532H84.4488V28.1102H90.9918V34.6532Z" fill="#009FE3"/>
<path d="M77.3801 41.8643C76.585 41.0156 75.2617 40.9463 74.3824 41.7073L52.7241 61.1997C51.8356 62 51.7639 63.3691 52.5639 64.2579C53.3641 65.1464 54.7332 65.2181 55.622 64.4181L77.2802 44.9257C78.1533 44.1079 78.198 42.7374 77.3801 41.8643Z" fill="#009FE3"/>
<path d="M116.978 49.814C115.782 49.814 114.812 50.7837 114.812 51.9798V54.1456C114.812 55.3417 115.782 56.3114 116.978 56.3114C118.174 56.3114 119.144 55.3417 119.144 54.1456V51.9798C119.144 50.7837 118.174 49.814 116.978 49.814Z" fill="#009FE3"/>
<path d="M126.17 49.4413L124.639 47.9101C123.779 47.079 122.408 47.1028 121.577 47.9632C120.766 48.8024 120.766 50.1331 121.577 50.9726L123.108 52.5038C123.968 53.335 125.339 53.3111 126.17 52.4508C126.981 51.6112 126.981 50.2806 126.17 49.4413Z" fill="#009FE3"/>
<path d="M127.808 41.1506H125.642C124.446 41.1506 123.477 42.1204 123.477 43.3165C123.477 44.5125 124.446 45.4823 125.642 45.4823H127.808C129.004 45.4823 129.974 44.5125 129.974 43.3165C129.974 42.1204 129.004 41.1506 127.808 41.1506Z" fill="#009FE3"/>
<path d="M126.12 34.1289C125.281 33.3184 123.95 33.3184 123.111 34.1289L121.579 35.6602C120.734 36.5062 120.734 37.8774 121.58 38.7232C121.986 39.129 122.537 39.3572 123.111 39.3572C123.685 39.3572 124.236 39.1287 124.642 38.7226L126.173 37.1914C127.004 36.331 126.98 34.9598 126.12 34.1289Z" fill="#009FE3"/>
<path d="M116.978 30.3215C115.782 30.3215 114.812 31.2913 114.812 32.4874V34.6532C114.812 35.8493 115.782 36.819 116.978 36.819C118.174 36.819 119.144 35.8493 119.144 34.6532V32.4874C119.144 31.2913 118.174 30.3215 116.978 30.3215Z" fill="#009FE3"/>
<path d="M112.389 35.6602L110.858 34.129C109.998 33.2981 108.627 33.3217 107.795 34.1821C106.985 35.0213 106.985 36.352 107.795 37.1915L109.327 38.7227C110.187 39.5538 111.558 39.53 112.389 38.6697C113.2 37.8301 113.2 36.4995 112.389 35.6602Z" fill="#009FE3"/>
<path d="M25.9099 9.365C25.6549 8.58151 24.9773 8.01082 24.1621 7.89224L17.8054 6.96743L14.9703 1.20851C14.3385 0.135614 12.9564 -0.222017 11.8835 0.409862C11.5538 0.603973 11.279 0.878762 11.0848 1.20851L8.23679 6.96743L1.8801 7.89224C0.69621 8.06307 -0.124908 9.16141 0.0459213 10.3453C0.113874 10.8166 0.335329 11.2522 0.675905 11.585L5.27395 16.0682L4.19104 22.3989C3.98312 23.5769 4.76931 24.7004 5.94725 24.9083C6.42156 24.9919 6.90996 24.9153 7.33581 24.6904L13.0211 21.6929L18.7064 24.6817C19.7652 25.2383 21.0747 24.8314 21.6313 23.7726C21.8531 23.3511 21.9294 22.8684 21.849 22.3989L20.7661 16.0682L25.3663 11.585C25.9551 11.0086 26.1657 10.1482 25.9099 9.365ZM16.9196 13.7616C16.4095 14.2584 16.1764 14.9742 16.2958 15.6762L16.8329 18.8058L14.0282 17.3266C13.3977 16.9955 12.6445 16.9955 12.014 17.3266L9.19842 18.8037L9.73554 15.674C9.8571 14.9747 9.62806 14.26 9.12261 13.7616L6.84634 11.546L9.98894 11.089C10.6945 10.9867 11.3044 10.5435 11.6198 9.90429L13.0211 7.06056L14.4245 9.90429C14.7397 10.5429 15.3485 10.9858 16.0532 11.089L19.1937 11.546L16.9196 13.7616Z" fill="#009FE3"/>
<path d="M122.659 108.562H122.65L121.758 107.223C116.755 99.7412 108.887 94.6537 100.011 93.1607C98.8269 92.9917 97.73 93.8147 97.561 94.9989C97.3978 96.143 98.1615 97.2137 99.2964 97.4317C105.699 98.5184 111.533 101.771 115.824 106.645C112.216 107.294 109.061 109.461 107.16 112.595C104.828 116.772 106.324 122.049 110.501 124.382C114.679 126.715 119.956 125.219 122.289 121.041C123.18 119.321 123.661 117.418 123.694 115.482C125.999 118.829 126.183 123.2 124.169 126.729C123.558 127.758 123.898 129.086 124.926 129.696C125.955 130.307 127.284 129.967 127.894 128.939C127.914 128.906 127.932 128.872 127.95 128.838C131.916 121.755 129.58 112.804 122.659 108.562ZM118.512 118.927C117.356 121.022 114.721 121.783 112.626 120.627C110.532 119.471 109.771 116.836 110.927 114.741C110.933 114.73 110.94 114.718 110.946 114.706C112.224 112.614 114.38 111.211 116.811 110.89C117.188 110.88 117.561 110.966 117.894 111.141C119.722 112.161 119.82 116.584 118.512 118.927Z" fill="#009FE3"/>
</g>
<defs>
<clipPath id="clip0_877_16996">
<rect width="130" height="130" fill="white"/>
</clipPath>
</defs>
</svg>
