<svg width="130" height="130" viewBox="0 0 130 130" fill="none" xmlns="http://www.w3.org/2000/svg">
<path d="M124.562 98.4454H120.367V62.9121C120.367 62.1045 119.697 61.4348 118.89 61.4348C118.082 61.4348 117.412 62.1045 117.412 62.9121V98.4454H11.0882V36.656C11.0882 31.8697 14.9882 27.9697 19.7746 27.9697H57.0609C57.8685 27.9697 58.5382 27.3 58.5382 26.4924C58.5382 25.6848 57.8685 25.0151 57.0609 25.0151H19.7746C13.3534 25.0151 8.13367 30.2348 8.13367 36.656V98.4454H3.93821C3.13063 98.4454 2.46094 99.1151 2.46094 99.9227C2.46094 108.609 9.53215 115.68 18.2185 115.68H110.282C118.969 115.68 126.04 108.609 126.04 99.9227C126.04 99.0954 125.39 98.4454 124.562 98.4454ZM110.282 112.726H18.2185C11.6594 112.726 6.22306 107.762 5.49427 101.4H123.006C122.278 107.762 116.841 112.726 110.282 112.726Z" fill="#009FE3"/>
<path d="M126.055 14.3196H62.946C62.1384 14.3196 61.4688 14.9893 61.4688 15.7969V57.0029C61.4688 57.8105 62.1384 58.4802 62.946 58.4802H85.1051L93.4566 66.8317C93.7324 67.1075 94.1066 67.265 94.5006 67.265C94.8945 67.265 95.2687 67.1075 95.5445 66.8317L103.896 58.4802H126.055C126.863 58.4802 127.532 57.8105 127.532 57.0029V15.7969C127.532 14.9696 126.863 14.3196 126.055 14.3196ZM124.578 55.5256H103.285C102.891 55.5256 102.517 55.6832 102.241 55.959L94.5006 63.6999L86.7597 55.959C86.4839 55.6832 86.1097 55.5256 85.7157 55.5256H64.4233V17.2741H124.578V55.5256Z" fill="#009FE3"/>
<path d="M77.2507 33.5636L80.6976 30.1166V46.2484C80.6976 47.056 81.3673 47.7257 82.1749 47.7257H93.9537C94.7613 47.7257 95.431 47.056 95.431 46.2484C95.431 45.4408 94.7613 44.7711 93.9537 44.7711H83.6522V30.1166L87.0992 33.5636C87.3946 33.859 87.7688 33.9969 88.1431 33.9969C88.5173 33.9969 88.8916 33.859 89.187 33.5636C89.7582 32.9924 89.7582 32.0469 89.187 31.4757L83.2188 25.5075C82.6476 24.9363 81.7022 24.9363 81.131 25.5075L75.1628 31.4757C74.5916 32.0469 74.5916 32.9924 75.1628 33.5636C75.734 34.1348 76.6795 34.1348 77.2507 33.5636Z" fill="#009FE3"/>
<path d="M95.0398 28.0288H105.341V42.6833L101.894 39.2363C101.323 38.6651 100.378 38.6651 99.8064 39.2363C99.2352 39.8076 99.2352 40.753 99.8064 41.3242L105.775 47.2924C106.07 47.5879 106.444 47.7257 106.819 47.7257C107.193 47.7257 107.567 47.5879 107.862 47.2924L113.831 41.3242C114.402 40.753 114.402 39.8076 113.831 39.2363C113.259 38.6651 112.314 38.6651 111.743 39.2363L108.296 42.6833V26.5515C108.296 25.7439 107.626 25.0742 106.819 25.0742H95.0398C94.2322 25.0742 93.5625 25.7439 93.5625 26.5515C93.5625 27.3591 94.2322 28.0288 95.0398 28.0288Z" fill="#009FE3"/>
<path d="M46.5618 40.7922C43.824 40.7922 41.283 42.0725 39.6482 44.1604C38.0134 42.0725 35.4724 40.7922 32.7346 40.7922C27.8694 40.7922 23.8906 44.7513 23.8906 49.6362C23.8906 56.1756 37.2058 66.7135 38.7421 67.8953C39.0179 68.0922 39.333 68.2104 39.6482 68.2104C39.9634 68.2104 40.2785 68.1119 40.5543 67.8953C42.0709 66.7135 55.4058 56.1756 55.4058 49.6362C55.3861 44.7513 51.427 40.7922 46.5618 40.7922ZM39.6482 64.8422C34.3497 60.568 26.8452 53.2604 26.8452 49.6165C26.8452 46.3665 29.4846 43.7271 32.7346 43.7271C35.1967 43.7271 37.4224 45.3028 38.2497 47.6468C38.4664 48.2377 39.0179 48.6316 39.6482 48.6316C40.2785 48.6316 40.83 48.2377 41.0467 47.6468C41.8937 45.3028 44.1194 43.7271 46.5815 43.7271C49.8118 43.7271 52.4512 46.3665 52.4512 49.6165C52.4315 53.2604 44.9467 60.5877 39.6482 64.8422Z" fill="#009FE3"/>
<path d="M50.324 73.8044H25.3679C24.5603 73.8044 23.8906 74.4741 23.8906 75.2817C23.8906 76.0893 24.5603 76.759 25.3679 76.759H50.3043C51.1118 76.759 51.7815 76.0893 51.7815 75.2817C51.7815 74.4741 51.1315 73.8044 50.324 73.8044Z" fill="#009FE3"/>
<path d="M50.324 82.0181H25.3679C24.5603 82.0181 23.8906 82.6878 23.8906 83.4953C23.8906 84.3029 24.5603 84.9726 25.3679 84.9726H50.3043C51.1118 84.9726 51.7815 84.3029 51.7815 83.4953C51.7815 82.6878 51.1315 82.0181 50.324 82.0181Z" fill="#009FE3"/>
<path d="M58.5217 34.3908C58.5217 33.5833 57.852 32.9136 57.0444 32.9136H19.7777C17.7096 32.9136 16.0156 34.5878 16.0156 36.6757V92.0636C16.0156 92.8712 16.6853 93.5409 17.4929 93.5409H111.014C111.822 93.5409 112.491 92.8712 112.491 92.0636V62.9121C112.491 62.1045 111.822 61.4348 111.014 61.4348C110.207 61.4348 109.537 62.1045 109.537 62.9121V90.5666H18.9702V36.656C18.9702 36.2227 19.3247 35.8484 19.7777 35.8484H57.0641C57.8717 35.8681 58.5217 35.1984 58.5217 34.3908Z" fill="#009FE3"/>
</svg>
