<svg width="130" height="130" viewBox="0 0 130 130" fill="none" xmlns="http://www.w3.org/2000/svg">
<g clip-path="url(#clip0_877_16910)">
<path d="M36.9688 42.0571V52.5688L41.501 58.9013V67.562" stroke="#009FE3" stroke-width="4" stroke-miterlimit="10"/>
<path d="M18.2734 73.0514C19.1012 71.1243 21.4727 65.254 21.4727 61.3514C18.9768 61.3514 16.9455 59.3456 16.9125 56.8522V56.7887C16.8795 54.2471 18.9311 52.1702 21.4701 52.1702C21.4727 52.1702 21.4727 49.6743 21.4727 49.6743C21.4727 45.467 24.8826 42.0571 29.0898 42.0571H36.933C39.4568 42.0571 41.5033 40.0106 41.5033 37.4868V31.6038C41.5033 31.6038 36.9711 33.8889 32.3525 33.8889H15.3332C10.0443 33.8889 9.41465 39.1499 9.41465 39.1499C5.33184 39.1499 2.02344 43.4739 2.02344 47.5567C2.02344 62.3213 14.1906 71.2233 17.2857 73.2469L18.2734 73.0514Z" stroke="#009FE3" stroke-width="4" stroke-miterlimit="10"/>
<path d="M105.984 49.1228C105.984 49.1228 105.984 46.6269 105.984 46.6269C105.984 42.4199 102.573 39.0097 98.3664 39.0097H90.4844C90.4844 32.4765 100.608 29.8259 105.119 29.8259C113.533 29.8259 127.971 33.9532 127.971 47.5994C127.971 63.482 114.332 65.562 114.332 73.4384C109.606 73.4384 105.983 67.5985 105.983 58.3043C108.478 58.3043 110.509 56.2995 110.542 53.8048L110.543 53.7414C110.576 51.2005 108.526 49.1228 105.984 49.1228Z" stroke="#009FE3" stroke-width="4" stroke-miterlimit="10"/>
<path d="M35.0313 70.7729C35.0313 70.7729 34.9356 81.3134 46.2214 84.9856" stroke="#009FE3" stroke-width="4" stroke-miterlimit="10"/>
<path d="M94.9089 70.7729C94.9089 70.7729 95.0046 81.3134 83.7188 84.9856" stroke="#009FE3" stroke-width="4" stroke-miterlimit="10"/>
<path d="M64.9375 0V14.6671" stroke="#009FE3" stroke-width="4" stroke-miterlimit="10"/>
<path d="M80.4219 5.07812L72.8047 14.6671" stroke="#009FE3" stroke-width="4" stroke-miterlimit="10"/>
<path d="M49.7031 5.07812L57.3203 14.6671" stroke="#009FE3" stroke-width="4" stroke-miterlimit="10"/>
<path d="M39.6193 88.207C31.3092 90.9038 27.4196 92.9919 25.0859 97.7768" stroke="#009FE3" stroke-width="4" stroke-miterlimit="10"/>
<path d="M85.9531 65.5673V58.9013L90.4853 52.5688V39.0103" stroke="#009FE3" stroke-width="4" stroke-miterlimit="10"/>
<path d="M2.02344 102.573C2.02344 102.573 2.02344 96.5147 2.02344 91.9724C2.02344 84.1292 7.79473 72.6755 22.7676 72.6755C49.3643 72.6755 54.5414 50.6897 55.6002 39.9724C55.9176 36.7427 58.1393 27.2466 58.1393 27.2466C58.1393 27.2466 59.782 22.9429 64.9643 22.9429C70.1465 22.9429 71.7893 27.2466 71.7893 27.2466C71.7893 27.2466 73.008 32.4593 73.7697 36.4735" stroke="#009FE3" stroke-width="4" stroke-miterlimit="10"/>
<path d="M2.02344 106.382V130" stroke="#009FE3" stroke-width="4" stroke-miterlimit="10"/>
<path d="M127.906 121.829V130" stroke="#009FE3" stroke-width="4" stroke-miterlimit="10"/>
<path d="M74.3594 40.2822C75.4893 51.1063 80.8162 72.6756 107.159 72.6756C122.134 72.6756 127.903 84.1293 127.903 91.9725C127.903 93.6127 127.903 115.878 127.903 118.021" stroke="#009FE3" stroke-width="4" stroke-miterlimit="10"/>
<path d="M49.7734 130C49.7734 99.681 39.6172 88.207 39.6172 88.207C61.0443 80.6787 63.8525 55.2093 64.9824 39.9724" stroke="#009FE3" stroke-width="4" stroke-miterlimit="10"/>
<path d="M80.1543 130C80.1543 99.681 90.3105 88.207 90.3105 88.207C68.8834 80.6787 66.0752 55.2093 64.9453 39.9724" stroke="#009FE3" stroke-width="4" stroke-miterlimit="10"/>
<path d="M90.3125 88.207C98.6226 90.9038 102.512 92.9919 104.846 97.7768" stroke="#009FE3" stroke-width="4" stroke-miterlimit="10"/>
<path d="M64.9844 43.2554V22.9429" stroke="#009FE3" stroke-width="4" stroke-miterlimit="10"/>
<path d="M20.4844 119.008H24.293" stroke="#009FE3" stroke-width="4" stroke-miterlimit="10"/>
<path d="M28.1016 119.008H31.9102" stroke="#009FE3" stroke-width="4" stroke-miterlimit="10"/>
</g>
<defs>
<clipPath id="clip0_877_16910">
<rect width="130" height="130" fill="white"/>
</clipPath>
</defs>
</svg>
