<svg width="95.000000" height="74.000000" viewBox="0 0 95 74" fill="none" xmlns="http://www.w3.org/2000/svg" xmlns:xlink="http://www.w3.org/1999/xlink">
	<desc>
			Created with Pixso.
	</desc>
	<defs>
		<filter id="filter_877_13025_dd" x="59.000000" y="19.000000" width="36.000000" height="36.000000" filterUnits="userSpaceOnUse" color-interpolation-filters="sRGB">
			<feFlood flood-opacity="0" result="BackgroundImageFix"/>
			<feGaussianBlur in="BackgroundImage" stdDeviation="3.33333"/>
			<feComposite in2="SourceAlpha" operator="in" result="effect_backgroundBlur_1"/>
			<feBlend mode="normal" in="SourceGraphic" in2="effect_backgroundBlur_1" result="shape"/>
		</filter>
		<clipPath id="clip877_13026">
			<rect id="check (6) 10" width="18.000000" height="18.000000" transform="translate(68.000000 28.000000)" fill="white" fill-opacity="0"/>
		</clipPath>
		<linearGradient id="paint_linear_877_13024_0" x1="0.000000" y1="6.166683" x2="62.405205" y2="69.000031" gradientUnits="userSpaceOnUse">
			<stop stop-color="#85DBFF"/>
			<stop offset="1.000000" stop-color="#009FE3"/>
		</linearGradient>
	</defs>
	<path id="02" d="M29.9062 55.9062Q34.1719 49.9219 34.1719 38.7344Q34.1719 27.5938 29.9062 21.6094Q27.8796 18.7556 25.1173 17.2627Q22.0872 15.625 18.1719 15.625Q14.9919 15.625 12.3364 16.8052Q11.9518 16.9762 11.5781 17.1719Q11.2701 17.3325 10.9711 17.5085Q8.41942 19.0112 6.53125 21.6406Q4.42188 24.5781 3.29688 28.875Q2.17188 33.1562 2.17188 38.7344Q2.17188 49.9219 6.42188 55.9062Q8.46195 58.7683 11.2383 60.2616Q14.267 61.8906 18.1719 61.8906Q22.0872 61.8906 25.1173 60.2529Q27.8796 58.76 29.9062 55.9062ZM67.8546 30.7086Q68.102 29.5287 68.102 28.2969Q68.102 25.3594 67.227 23.0312Q66.7238 21.6588 65.8884 20.5328Q65.2971 19.7359 64.5395 19.0625Q62.727 17.4219 59.8989 16.5312Q57.0864 15.625 53.1801 15.625Q50.1208 15.625 47.3328 16.4947Q46.2192 16.842 45.1489 17.3281Q41.4145 19.0156 38.5864 21.6406L43.3208 28.2969Q43.7739 27.8438 44.6645 27.1094Q45.5708 26.375 46.8208 25.6406Q48.0708 24.9062 49.5708 24.3594Q51.0708 23.8125 52.8051 23.8125Q55.0213 23.8125 56.562 24.8327Q56.6615 24.8986 56.7583 24.9688Q56.962 25.1151 57.1399 25.288Q58.3676 26.481 58.3676 28.9375Q58.3676 29.0905 58.3594 29.2431Q58.2986 30.3681 57.7895 31.4688Q57.2114 32.7188 56.1801 33.9688Q55.1645 35.2031 53.8208 36.5156Q52.477 37.8281 50.9458 39.2969Q48.9614 41.2188 46.9458 43.1406Q44.969 45.0254 43.383 47.1958Q43.3518 47.2385 43.3208 47.2812Q42.8094 47.9881 42.3592 48.7319Q41.4062 50.3065 40.727 52.0469Q39.7426 54.5938 39.7426 57.6719L39.7426 59.2188Q39.7426 60.2969 39.8676 61L69.4458 61L69.4458 53L50.3676 53Q50.5551 52.3594 51.352 51.375Q52.1645 50.375 53.1801 49.2344Q54.2114 48.0781 55.3208 46.9531Q56.4458 45.8281 57.4145 44.9375Q59.2583 43.2031 61.1801 41.2969Q63.102 39.375 64.6333 37.2969Q66.1801 35.2031 67.1333 32.9688Q67.6124 31.8635 67.8546 30.7086ZM24.125 32.6875Q24.4531 35.4062 24.4531 38.7344Q24.4531 42.0625 24.125 44.8125Q23.8125 47.5625 23.1094 49.5469Q22.4062 51.5312 21.1875 52.625Q20.8147 52.9548 20.3878 53.1837Q19.4191 53.7031 18.1719 53.7031Q16.9283 53.7031 15.9741 53.1776Q15.5616 52.9504 15.2031 52.625Q14.0156 51.5312 13.2812 49.5469Q12.5469 47.5625 12.2188 44.8125Q11.9062 42.0625 11.9062 38.7344Q11.9062 35.4062 12.2188 32.6875Q12.5469 29.9531 13.2812 27.9688Q14.0156 25.9844 15.2031 24.9062Q15.5797 24.5594 16.0161 24.3225Q16.9555 23.8125 18.1719 23.8125Q19.3915 23.8125 20.3448 24.3164Q20.796 24.5549 21.1875 24.9062Q22.4062 25.9844 23.1094 27.9688Q23.8125 29.9531 24.125 32.6875Z" fill="url(#paint_linear_877_13024_0)" fill-opacity="1.000000" fill-rule="evenodd"/>
	<g filter="url(#filter_877_13025_dd)">
		<circle id="Ellipse 64" cx="77.000000" cy="37.000000" r="18.000000" fill="#FFFFFF" fill-opacity="0.300000"/>
	</g>
	<circle id="Ellipse 64" cx="77.000000" cy="37.000000" r="17.500000" stroke="#9D9D9D" stroke-opacity="0.900000" stroke-width="1.000000"/>
	<rect id="check (6) 10" width="18.000000" height="18.000000" transform="translate(68.000000 28.000000)" fill="#FFFFFF" fill-opacity="0"/>
	<g clip-path="url(#clip877_13026)">
		<path id="Vector" d="M82.0234 33.3994C81.7266 33.0996 81.2734 33.0996 80.9766 33.3994L75.3516 39.0244L73.0234 36.7002C72.7266 36.3994 72.2734 36.3994 71.9766 36.7002C71.6719 37 71.6719 37.4502 71.9766 37.75L74.8281 40.5996C74.9766 40.75 75.125 40.8252 75.3516 40.8252C75.5781 40.8252 75.7266 40.75 75.875 40.5996L82.0234 34.4502C82.3281 34.1494 82.3281 33.7002 82.0234 33.3994Z" fill="#FFC700" fill-opacity="1.000000" fill-rule="nonzero"/>
	</g>
</svg>
