<svg width="95.000000" height="74.000000" viewBox="0 0 95 74" fill="none" xmlns="http://www.w3.org/2000/svg" xmlns:xlink="http://www.w3.org/1999/xlink">
	<desc>
			Created with Pixso.
	</desc>
	<defs>
		<filter id="filter_877_13034_dd" x="59.000000" y="19.000000" width="36.000000" height="36.000000" filterUnits="userSpaceOnUse" color-interpolation-filters="sRGB">
			<feFlood flood-opacity="0" result="BackgroundImageFix"/>
			<feGaussianBlur in="BackgroundImage" stdDeviation="3.33333"/>
			<feComposite in2="SourceAlpha" operator="in" result="effect_backgroundBlur_1"/>
			<feBlend mode="normal" in="SourceGraphic" in2="effect_backgroundBlur_1" result="shape"/>
		</filter>
		<clipPath id="clip877_13035">
			<rect id="check (6) 10" width="18.000000" height="18.000000" transform="translate(68.000000 28.000000)" fill="white" fill-opacity="0"/>
		</clipPath>
		<linearGradient id="paint_linear_877_13033_0" x1="0.000000" y1="6.166683" x2="62.405205" y2="69.000031" gradientUnits="userSpaceOnUse">
			<stop stop-color="#85DBFF"/>
			<stop offset="1.000000" stop-color="#009FE3"/>
		</linearGradient>
	</defs>
	<path id="06" d="M29.9062 55.9062Q34.1719 49.9219 34.1719 38.7344Q34.1719 27.5938 29.9062 21.6094Q27.8796 18.7556 25.1173 17.2627Q22.0872 15.625 18.1719 15.625Q14.9919 15.625 12.3364 16.8052Q11.9518 16.9762 11.5781 17.1719Q11.2701 17.3325 10.9711 17.5085Q8.41942 19.0112 6.53125 21.6406Q4.42188 24.5781 3.29688 28.875Q2.17188 33.1562 2.17188 38.7344Q2.17188 49.9219 6.42188 55.9062Q8.46195 58.7683 11.2383 60.2616Q14.267 61.8906 18.1719 61.8906Q22.0872 61.8906 25.1173 60.2529Q27.8796 58.76 29.9062 55.9062ZM62.1645 33.8438Q59.2583 32.7188 55.102 32.7188Q53.8208 32.7188 52.352 32.9688Q50.8833 33.2188 49.477 33.8594Q50.4301 31.2344 52.1489 29.4219Q52.5771 28.9705 53.0415 28.5601Q54.458 27.3083 56.2114 26.4375Q58.5551 25.2812 61.3989 24.75Q64.2583 24.2031 67.5239 24.1406Q67.3989 22.0938 67.2583 20.2031Q67.1333 18.3125 67.0083 16.3281Q60.477 16.3906 55.2583 18.1562Q50.0551 19.9062 46.3676 23.2656Q45.7521 23.8287 45.1841 24.4362Q42.3631 27.4526 40.7114 31.5625Q38.727 36.4844 38.727 42.8906Q38.727 51.7812 42.8833 56.8438Q43.8639 58.0345 45.0584 58.9443Q48.927 61.8906 55.0395 61.8906Q59.0083 61.8906 61.9145 60.4844Q64.8364 59.0781 66.7114 56.9062Q67.8286 55.6228 68.6075 54.1594Q69.1468 53.1463 69.5239 52.0469Q70.4614 49.3594 70.4614 46.7969Q70.4614 43.9062 69.6333 41.3594Q69.1907 39.99 68.4537 38.8037Q67.8115 37.7699 66.9458 36.875Q65.0864 34.9531 62.1645 33.8438ZM24.125 32.6875Q24.4531 35.4062 24.4531 38.7344Q24.4531 42.0625 24.125 44.8125Q23.8125 47.5625 23.1094 49.5469Q22.4062 51.5312 21.1875 52.625Q20.8147 52.9548 20.3878 53.1837Q19.4191 53.7031 18.1719 53.7031Q16.9283 53.7031 15.9741 53.1776Q15.5616 52.9504 15.2031 52.625Q14.0156 51.5312 13.2812 49.5469Q12.5469 47.5625 12.2188 44.8125Q11.9062 42.0625 11.9062 38.7344Q11.9062 35.4062 12.2188 32.6875Q12.5469 29.9531 13.2812 27.9688Q14.0156 25.9844 15.2031 24.9062Q15.5797 24.5594 16.0161 24.3225Q16.9555 23.8125 18.1719 23.8125Q19.3915 23.8125 20.3448 24.3164Q20.796 24.5549 21.1875 24.9062Q22.4062 25.9844 23.1094 27.9688Q23.8125 29.9531 24.125 32.6875ZM50.8676 40.3906Q52.477 40.1406 53.8833 40.1406Q57.727 40.1406 59.352 41.9062Q59.3649 41.92 59.3778 41.9339Q60.9926 43.682 60.9926 46.9219Q60.9926 48.0781 60.6333 49.3281Q60.4267 50.0697 60.0793 50.7379Q59.8483 51.182 59.5551 51.5938Q59.3863 51.8273 59.1968 52.0426Q58.5621 52.7639 57.6958 53.2812Q56.5708 53.9531 54.977 53.9531Q53.0551 53.9531 51.7739 53.0938Q51.6252 52.994 51.4834 52.8852Q50.4038 52.0566 49.727 50.7031Q48.9614 49.1562 48.6333 47.1094Q48.3208 45.0625 48.3208 42.7656Q48.3208 42.375 48.352 41.875Q48.3833 41.3594 48.3833 41.0938Q49.2739 40.6406 50.8676 40.3906Z" fill="url(#paint_linear_877_13033_0)" fill-opacity="1.000000" fill-rule="evenodd"/>
	<g filter="url(#filter_877_13034_dd)">
		<circle id="Ellipse 64" cx="77.000000" cy="37.000000" r="18.000000" fill="#FFFFFF" fill-opacity="0.300000"/>
	</g>
	<circle id="Ellipse 64" cx="77.000000" cy="37.000000" r="17.500000" stroke="#9D9D9D" stroke-opacity="0.900000" stroke-width="1.000000"/>
	<rect id="check (6) 10" width="18.000000" height="18.000000" transform="translate(68.000000 28.000000)" fill="#FFFFFF" fill-opacity="0"/>
	<g clip-path="url(#clip877_13035)">
		<path id="Vector" d="M82.0234 33.3994C81.7266 33.0996 81.2734 33.0996 80.9766 33.3994L75.3516 39.0244L73.0234 36.7002C72.7266 36.3994 72.2734 36.3994 71.9766 36.7002C71.6719 37 71.6719 37.4502 71.9766 37.75L74.8281 40.5996C74.9766 40.75 75.125 40.8252 75.3516 40.8252C75.5781 40.8252 75.7266 40.75 75.875 40.5996L82.0234 34.4502C82.3281 34.1494 82.3281 33.7002 82.0234 33.3994Z" fill="#FFC700" fill-opacity="1.000000" fill-rule="nonzero"/>
	</g>
</svg>
