<svg width="88.000000" height="88.000000" viewBox="0 0 88 88" fill="none" xmlns="http://www.w3.org/2000/svg" xmlns:xlink="http://www.w3.org/1999/xlink">
	<desc>
			Created with Pixso.
	</desc>
	<defs>
		<clipPath id="clip877_13098">
			<rect id="car-service 1" width="88.000000" height="88.000000" fill="white" fill-opacity="0"/>
		</clipPath>
	</defs>
	<rect id="car-service 1" width="88.000000" height="88.000000" fill="#FFFFFF" fill-opacity="0"/>
	<g clip-path="url(#clip877_13098)">
		<circle id="Ellipse 9" cx="63.000000" cy="75.000000" r="8.000000" fill="#00A0E3" fill-opacity="1.000000"/>
		<circle id="Ellipse 10" cx="21.500000" cy="21.500000" r="18.500000" fill="#00A0E3" fill-opacity="1.000000"/>
		<path id="Vector" d="M1.375 83.875L1.375 86.625L86.625 86.625L86.625 83.875L64.625 83.875L23.375 83.875L1.375 83.875Z" fill="#000000" fill-opacity="1.000000" fill-rule="nonzero"/>
		<path id="Vector" d="M23.375 67.375C20.3438 67.375 17.875 69.8418 17.875 72.875C17.875 75.9082 20.3438 78.375 23.375 78.375C26.4062 78.375 28.875 75.9082 28.875 72.875C28.875 69.8418 26.4062 67.375 23.375 67.375ZM23.375 75.625C21.8594 75.625 20.625 74.3916 20.625 72.875C20.625 71.3584 21.8594 70.125 23.375 70.125C24.8906 70.125 26.125 71.3584 26.125 72.875C26.125 74.3916 24.8906 75.625 23.375 75.625Z" fill="#000000" fill-opacity="1.000000" fill-rule="nonzero"/>
		<path id="Vector" d="M64.625 67.375C61.5938 67.375 59.125 69.8418 59.125 72.875C59.125 75.9082 61.5938 78.375 64.625 78.375C67.6562 78.375 70.125 75.9082 70.125 72.875C70.125 69.8418 67.6562 67.375 64.625 67.375ZM64.625 75.625C63.1094 75.625 61.875 74.3916 61.875 72.875C61.875 71.3584 63.1094 70.125 64.625 70.125C66.1406 70.125 67.375 71.3584 67.375 72.875C67.375 74.3916 66.1406 75.625 64.625 75.625Z" fill="#000000" fill-opacity="1.000000" fill-rule="nonzero"/>
		<path id="Vector" d="M85.8672 55.1445L75.1484 49.7861L64.0703 35.3799C62.2578 33.0293 59.4062 31.625 56.4375 31.625L40.2344 31.625C41.7969 28.6738 42.625 25.3994 42.625 22C42.625 18.9072 41.9531 15.9336 40.6406 13.1602L38.1562 14.3398C39.2969 16.7422 39.875 19.3184 39.875 22C39.875 25.6641 38.7734 29.1641 36.6953 32.1562C34.9297 32.7646 33.3438 33.876 32.1797 35.3818L30.3125 37.8115C27.7656 39.1533 24.8984 39.875 22 39.875C17.7734 39.875 13.7812 38.4219 10.5781 35.75L15.125 35.75L15.125 33L8.25 33C7.49219 33 6.875 33.6162 6.875 34.375L6.875 41.25L9.625 41.25L9.625 38.4736C13.1719 41.1553 17.4609 42.625 22 42.625C23.7266 42.625 25.4453 42.4082 27.1016 41.9844L21.2188 49.6357L7.89844 52.4902C4.11719 53.3008 1.375 56.6924 1.375 60.5576L1.375 70.125C1.375 72.3994 3.22656 74.25 5.5 74.25L12.4688 74.25C13.1484 79.668 17.7734 83.875 23.375 83.875C28.9766 83.875 33.6016 79.668 34.2812 74.25L53.7188 74.25C54.3984 79.668 59.0312 83.875 64.625 83.875C70.2266 83.875 74.8516 79.668 75.5312 74.25L82.5 74.25C84.7734 74.25 86.625 72.3994 86.625 70.125L86.625 56.375C86.625 55.8535 86.3281 55.3779 85.8672 55.1445ZM83.875 66L81.125 66L81.125 55.8496L83.875 57.2246L83.875 66ZM4.13281 60.5L6.875 60.5L6.875 63.25L4.125 63.25L4.125 60.5576C4.125 60.5381 4.13281 60.5195 4.13281 60.5ZM23.375 81.125C18.8281 81.125 15.125 77.4248 15.125 72.875C15.125 68.3252 18.8281 64.625 23.375 64.625C27.9219 64.625 31.625 68.3252 31.625 72.875C31.625 77.4248 27.9219 81.125 23.375 81.125ZM64.625 81.125C60.0781 81.125 56.375 77.4248 56.375 72.875C56.375 68.3252 60.0781 64.625 64.625 64.625C69.1719 64.625 72.875 68.3252 72.875 72.875C72.875 77.4248 69.1719 81.125 64.625 81.125ZM82.5 71.5L75.5312 71.5C74.8516 66.083 70.2266 61.875 64.625 61.875C59.0234 61.875 54.3984 66.083 53.7188 71.5L34.2812 71.5C33.6016 66.083 28.9766 61.875 23.375 61.875C17.7734 61.875 13.1484 66.083 12.4688 71.5L5.5 71.5C4.74219 71.5 4.125 70.8828 4.125 70.125L4.125 66L8.25 66C9.00781 66 9.625 65.3838 9.625 64.625L9.625 59.125C9.625 58.3662 9.00781 57.75 8.25 57.75L4.91406 57.75C5.67969 56.4717 6.94531 55.5078 8.47656 55.1797L22.2891 52.2197C22.6094 52.1514 22.8906 51.9727 23.0938 51.7139L34.3672 37.0586C35.6562 35.377 37.6953 34.375 39.8125 34.375L56.4375 34.375C58.5547 34.375 60.5938 35.377 61.8906 37.0586L73.1641 51.7139C73.2891 51.8789 73.4531 52.0117 73.6328 52.1055L78.375 54.4746L78.375 67.375C78.375 68.1338 78.9922 68.75 79.75 68.75L83.875 68.75L83.875 70.125C83.875 70.8828 83.2578 71.5 82.5 71.5Z" fill="#000000" fill-opacity="1.000000" fill-rule="nonzero"/>
		<path id="Vector" d="M68.5938 52.8848C68.8281 52.4297 68.7969 51.8818 68.5 51.4619L60.1094 39.4717C59.0781 38.002 57.3984 37.125 55.6016 37.125L40.6484 37.125C38.8516 37.125 37.1719 38.002 36.1406 39.4717L27.75 51.4619C27.4531 51.8818 27.4219 52.4297 27.6562 52.8848C27.8906 53.3389 28.3594 53.625 28.875 53.625L67.375 53.625C67.8906 53.625 68.3594 53.3389 68.5938 52.8848ZM38.3984 41.0479C38.9062 40.3135 39.75 39.875 40.6484 39.875L46.75 39.875L46.75 50.875L31.5156 50.875L38.3984 41.0479ZM49.5 50.875L49.5 39.875L55.6016 39.875C56.5 39.875 57.3438 40.3135 57.8516 41.0479L64.7344 50.875L49.5 50.875Z" fill="#000000" fill-opacity="1.000000" fill-rule="nonzero"/>
		<path id="Vector" d="M44 56.375L49.5 56.375L49.5 59.125L44 59.125L44 56.375Z" fill="#000000" fill-opacity="1.000000" fill-rule="nonzero"/>
		<path id="Vector" d="M63.25 56.375L68.75 56.375L68.75 59.125L63.25 59.125L63.25 56.375Z" fill="#000000" fill-opacity="1.000000" fill-rule="nonzero"/>
		<path id="Vector" d="M5.84375 29.6602C4.70312 27.2578 4.125 24.6816 4.125 22C4.125 12.1436 12.1406 4.125 22 4.125C26.2266 4.125 30.2188 5.57812 33.4219 8.25L28.875 8.25L28.875 11L35.75 11C36.5078 11 37.125 10.3838 37.125 9.625L37.125 2.75L34.375 2.75L34.375 5.52637C30.8281 2.84473 26.5391 1.375 22 1.375C10.625 1.375 1.375 10.627 1.375 22C1.375 25.0928 2.04688 28.0664 3.35938 30.8398L5.84375 29.6602Z" fill="#000000" fill-opacity="1.000000" fill-rule="nonzero"/>
		<path id="Vector" d="M20.3516 27.7129L16.1953 22.5166L14.0469 24.2334L19.5469 31.1084C19.8125 31.4355 20.2031 31.624 20.6172 31.624C20.6719 31.624 20.7188 31.6221 20.7656 31.6172C21.2344 31.5684 21.6406 31.2852 21.8516 30.8652L30.1016 14.3652L27.6406 13.1348L20.3516 27.7129Z" fill="#000000" fill-opacity="1.000000" fill-rule="nonzero"/>
		<path id="Vector" d="M46.75 11C49.7812 11 52.25 13.4668 52.25 16.5C52.25 17.2588 52.8672 17.875 53.625 17.875C54.3828 17.875 55 17.2588 55 16.5C55 13.4668 57.4688 11 60.5 11C61.2578 11 61.875 10.3838 61.875 9.625C61.875 8.86621 61.2578 8.25 60.5 8.25C57.4688 8.25 55 5.7832 55 2.75C55 1.99121 54.3828 1.375 53.625 1.375C52.8672 1.375 52.25 1.99121 52.25 2.75C52.25 5.7832 49.7812 8.25 46.75 8.25C45.9922 8.25 45.375 8.86621 45.375 9.625C45.375 10.3838 45.9922 11 46.75 11ZM53.625 7.30566C54.2344 8.22363 55.0234 9.01465 55.9453 9.625C55.0234 10.2354 54.2344 11.0264 53.625 11.9443C53.0156 11.0264 52.2266 10.2354 51.3047 9.625C52.2266 9.01465 53.0156 8.22363 53.625 7.30566Z" fill="#000000" fill-opacity="1.000000" fill-rule="nonzero"/>
		<path id="Vector" d="M71.5 11C74.5312 11 77 13.4668 77 16.5C77 17.2588 77.6172 17.875 78.375 17.875C79.1328 17.875 79.75 17.2588 79.75 16.5C79.75 13.4668 82.2188 11 85.25 11C86.0078 11 86.625 10.3838 86.625 9.625C86.625 8.86621 86.0078 8.25 85.25 8.25C82.2188 8.25 79.75 5.7832 79.75 2.75C79.75 1.99121 79.1328 1.375 78.375 1.375C77.6172 1.375 77 1.99121 77 2.75C77 5.7832 74.5312 8.25 71.5 8.25C70.7422 8.25 70.125 8.86621 70.125 9.625C70.125 10.3838 70.7422 11 71.5 11ZM78.375 7.30566C78.9844 8.22363 79.7734 9.01465 80.6953 9.625C79.7734 10.2354 78.9844 11.0264 78.375 11.9443C77.7656 11.0264 76.9766 10.2354 76.0547 9.625C76.9766 9.01465 77.7656 8.22363 78.375 7.30566Z" fill="#000000" fill-opacity="1.000000" fill-rule="nonzero"/>
		<path id="Vector" d="M63.25 24.75C66.2812 24.75 68.75 27.2168 68.75 30.25C68.75 31.0088 69.3672 31.625 70.125 31.625C70.8828 31.625 71.5 31.0088 71.5 30.25C71.5 27.2168 73.9688 24.75 77 24.75C77.7578 24.75 78.375 24.1338 78.375 23.375C78.375 22.6162 77.7578 22 77 22C73.9688 22 71.5 19.5332 71.5 16.5C71.5 15.7412 70.8828 15.125 70.125 15.125C69.3672 15.125 68.75 15.7412 68.75 16.5C68.75 19.5332 66.2812 22 63.25 22C62.4922 22 61.875 22.6162 61.875 23.375C61.875 24.1338 62.4922 24.75 63.25 24.75ZM70.125 21.0557C70.7344 21.9736 71.5234 22.7627 72.4453 23.375C71.5234 23.9854 70.7344 24.7764 70.125 25.6943C69.5156 24.7764 68.7266 23.9873 67.8047 23.375C68.7266 22.7646 69.5156 21.9736 70.125 21.0557Z" fill="#000000" fill-opacity="1.000000" fill-rule="nonzero"/>
	</g>
</svg>
