<svg width="88.000000" height="88.000000" viewBox="0 0 88 88" fill="none" xmlns="http://www.w3.org/2000/svg" xmlns:xlink="http://www.w3.org/1999/xlink">
	<desc>
			Created with Pixso.
	</desc>
	<defs>
		<clipPath id="clip877_13113">
			<rect id="clock (5) 1" width="88.000000" height="88.000000" fill="white" fill-opacity="0"/>
		</clipPath>
	</defs>
	<rect id="clock (5) 1" width="88.000000" height="88.000000" fill="#FFFFFF" fill-opacity="0"/>
	<g clip-path="url(#clip877_13113)">
		<circle id="Ellipse 9" cx="52.500000" cy="55.500000" r="28.500000" fill="#00A0E3" fill-opacity="1.000000"/>
		<path id="Vector" d="M75.1094 12.8867C66.8047 4.57715 55.75 0 44 0C32.25 0 21.1953 4.57715 12.8906 12.8867C4.57812 21.1973 0 32.2471 0 44C0 55.7529 4.57812 66.8018 12.8906 75.1133C21.1953 83.4238 32.25 88 44 88C55.75 88 66.8047 83.4229 75.1094 75.1133C83.4219 66.8027 88 55.7529 88 44C88 32.2471 83.4219 21.1982 75.1094 12.8867ZM73.1719 73.168C65.375 80.959 55.0156 85.25 44 85.25C32.9844 85.25 22.625 80.959 14.8281 73.168C7.03906 65.377 2.75 55.0186 2.75 44C2.75 32.9814 7.03906 22.623 14.8281 14.832C22.625 7.04102 32.9844 2.75 44 2.75C55.0156 2.75 65.375 7.04102 73.1719 14.832C80.9609 22.623 85.25 32.9814 85.25 44C85.25 55.0186 80.9609 65.377 73.1719 73.168Z" fill="#000000" fill-opacity="1.000000" fill-rule="nonzero"/>
		<path id="Vector" d="M8.25 44C8.25 24.2871 24.2891 8.25 44 8.25C51.1094 8.25 57.9766 10.332 63.8594 14.2695C64.4922 14.6924 65.3438 14.5234 65.7656 13.8916C66.1875 13.2607 66.0234 12.4072 65.3906 11.9844C59.0547 7.74219 51.6562 5.5 44 5.5C33.7188 5.5 24.0469 9.50488 16.7734 16.7764C9.50781 24.0479 5.5 33.7158 5.5 44C5.5 53.4873 8.98438 62.6025 15.3047 69.666C15.5703 69.9697 15.9531 70.124 16.3281 70.124C16.6562 70.124 16.9844 70.0078 17.2422 69.7734C17.8125 69.2666 17.8594 68.3975 17.3516 67.832C11.4844 61.2734 8.25 52.8096 8.25 44Z" fill="#000000" fill-opacity="1.000000" fill-rule="nonzero"/>
		<path id="Vector" d="M76.0156 22.6094C75.5938 21.9785 74.7422 21.8096 74.1094 22.2314C73.4766 22.6543 73.3125 23.5078 73.7344 24.1387C77.6719 30.0225 79.75 36.8896 79.75 44C79.75 63.7119 63.7109 79.75 44 79.75C35.8203 79.75 27.8281 76.917 21.4922 71.7744C20.8984 71.2959 20.0391 71.3857 19.5547 71.9756C19.0781 72.5654 19.1719 73.4316 19.7578 73.9102C26.5859 79.4492 35.1953 82.5 44 82.5C54.2891 82.5 63.9531 78.4951 71.2266 71.2236C78.5 63.9512 82.5 54.2832 82.5 44C82.5 36.3428 80.2578 28.9463 76.0156 22.6094Z" fill="#000000" fill-opacity="1.000000" fill-rule="nonzero"/>
		<path id="Vector" d="M67.8359 17.3516C68.7578 18.1787 69.6484 19.0645 70.4844 19.9824C70.75 20.2822 71.125 20.4336 71.5 20.4336C71.8281 20.4336 72.1641 20.3164 72.4219 20.0771C72.9844 19.5664 73.0312 18.6973 72.5156 18.1348C71.625 17.1465 70.6641 16.1934 69.6641 15.3027C69.1016 14.7959 68.2344 14.8447 67.7266 15.4102C67.2188 15.9756 67.2656 16.8457 67.8359 17.3516Z" fill="#000000" fill-opacity="1.000000" fill-rule="nonzero"/>
		<path id="Vector" d="M44 17.875C44.7578 17.875 45.375 17.2598 45.375 16.5L45.375 12.375C45.375 11.6152 44.7578 11 44 11C43.2422 11 42.625 11.6152 42.625 12.375L42.625 16.5C42.625 17.2598 43.2422 17.875 44 17.875Z" fill="#000000" fill-opacity="1.000000" fill-rule="nonzero"/>
		<path id="Vector" d="M42.625 71.5L42.625 75.625C42.625 76.3848 43.2422 77 44 77C44.7578 77 45.375 76.3848 45.375 75.625L45.375 71.5C45.375 70.7402 44.7578 70.125 44 70.125C43.2422 70.125 42.625 70.7402 42.625 71.5Z" fill="#000000" fill-opacity="1.000000" fill-rule="nonzero"/>
		<path id="Vector" d="M17.875 44C17.875 43.2402 17.2578 42.625 16.5 42.625L12.375 42.625C11.6172 42.625 11 43.2402 11 44C11 44.7598 11.6172 45.375 12.375 45.375L16.5 45.375C17.2578 45.375 17.875 44.7598 17.875 44Z" fill="#000000" fill-opacity="1.000000" fill-rule="nonzero"/>
		<path id="Vector" d="M70.125 44C70.125 44.7598 70.7422 45.375 71.5 45.375L75.625 45.375C76.3828 45.375 77 44.7598 77 44C77 43.2402 76.3828 42.625 75.625 42.625L71.5 42.625C70.7422 42.625 70.125 43.2402 70.125 44Z" fill="#000000" fill-opacity="1.000000" fill-rule="nonzero"/>
		<path id="Vector" d="M31.4375 19.4961L29.375 15.9238C29 15.2666 28.1562 15.041 27.5 15.4209C26.8438 15.8008 26.6172 16.6416 27 17.2988L29.0625 20.8711C29.3125 21.3125 29.7734 21.5586 30.25 21.5586C30.4844 21.5586 30.7188 21.5 30.9375 21.375C31.5938 20.9951 31.8203 20.1543 31.4375 19.4961Z" fill="#000000" fill-opacity="1.000000" fill-rule="nonzero"/>
		<path id="Vector" d="M58.9375 67.1279C58.5625 66.4707 57.7188 66.2451 57.0625 66.625C56.4062 67.0039 56.1797 67.8457 56.5625 68.5029L58.625 72.0752C58.875 72.5166 59.3359 72.7627 59.8125 72.7627C60.0469 72.7627 60.2812 72.7031 60.5 72.5791C61.1562 72.1992 61.3828 71.3584 61 70.7002L58.9375 67.1279Z" fill="#000000" fill-opacity="1.000000" fill-rule="nonzero"/>
		<path id="Vector" d="M16.6094 61.1875C16.8438 61.1875 17.0781 61.1279 17.2969 61.0029L20.8672 58.9404C21.5234 58.5615 21.75 57.7197 21.375 57.0625C20.9922 56.4053 20.1484 56.1797 19.4922 56.5596L15.9219 58.6221C15.2656 59.001 15.0391 59.8428 15.4219 60.5C15.6719 60.9414 16.1328 61.1875 16.6094 61.1875Z" fill="#000000" fill-opacity="1.000000" fill-rule="nonzero"/>
		<path id="Vector" d="M67.8125 31.625C68.0469 31.625 68.2812 31.5654 68.5 31.4404L72.0703 29.3779C72.7266 28.999 72.9531 28.1572 72.5781 27.5C72.1953 26.8428 71.3516 26.6172 70.6953 26.9971L67.125 29.0596C66.4688 29.4385 66.2422 30.2803 66.625 30.9375C66.875 31.3789 67.3359 31.625 67.8125 31.625Z" fill="#000000" fill-opacity="1.000000" fill-rule="nonzero"/>
		<path id="Vector" d="M60.5 15.4209C59.8438 15.041 59 15.2666 58.625 15.9238L56.5625 19.4961C56.1797 20.1543 56.4062 20.9951 57.0625 21.375C57.2812 21.5 57.5156 21.5596 57.75 21.5596C58.2266 21.5596 58.6875 21.3125 58.9375 20.8711L61 17.2988C61.3828 16.6416 61.1562 15.8008 60.5 15.4209Z" fill="#000000" fill-opacity="1.000000" fill-rule="nonzero"/>
		<path id="Vector" d="M30.9375 66.625C30.2812 66.2451 29.4375 66.4707 29.0625 67.1279L27 70.7002C26.6172 71.3584 26.8438 72.1992 27.5 72.5791C27.7188 72.7041 27.9531 72.7637 28.1875 72.7637C28.6641 72.7637 29.125 72.5166 29.375 72.0752L31.4375 68.5029C31.8203 67.8457 31.5938 67.0049 30.9375 66.625Z" fill="#000000" fill-opacity="1.000000" fill-rule="nonzero"/>
		<path id="Vector" d="M67.125 58.9414L70.6953 61.0039C70.9141 61.1289 71.1484 61.1875 71.3828 61.1875C71.8594 61.1875 72.3203 60.9414 72.5781 60.5C72.9531 59.8428 72.7266 59.002 72.0703 58.6221L68.5 56.5596C67.8438 56.1797 67 56.4053 66.625 57.0625C66.2422 57.7207 66.4688 58.5615 67.125 58.9414Z" fill="#000000" fill-opacity="1.000000" fill-rule="nonzero"/>
		<path id="Vector" d="M20.8672 29.0596L17.2969 26.9971C16.6406 26.6172 15.7969 26.8428 15.4219 27.5C15.0391 28.1582 15.2656 28.999 15.9219 29.3789L19.4922 31.4414C19.7109 31.5664 19.9453 31.625 20.1797 31.625C20.6562 31.625 21.1172 31.3789 21.375 30.9375C21.75 30.2803 21.5234 29.4395 20.8672 29.0596Z" fill="#000000" fill-opacity="1.000000" fill-rule="nonzero"/>
		<path id="Vector" d="M53.5703 61.9521C53.8047 61.9521 54.0391 61.8926 54.2578 61.7686C54.9141 61.3887 55.1406 60.5479 54.7578 59.8896L47.1328 46.6777C47.75 45.957 48.125 45.0215 48.125 44C48.125 42.207 46.9766 40.6787 45.375 40.1113L45.375 22C45.375 21.2402 44.7578 20.625 44 20.625C43.2422 20.625 42.625 21.2402 42.625 22L42.625 40.1113C41.0234 40.6787 39.875 42.207 39.875 44C39.875 46.2744 41.7266 48.125 44 48.125C44.2578 48.125 44.5078 48.0996 44.75 48.0547L52.3828 61.2646C52.6328 61.7061 53.0938 61.9521 53.5703 61.9521ZM42.625 44C42.625 43.2422 43.2422 42.625 44 42.625C44.7578 42.625 45.375 43.2422 45.375 44C45.375 44.7578 44.7578 45.375 44 45.375C43.2422 45.375 42.625 44.7578 42.625 44Z" fill="#000000" fill-opacity="1.000000" fill-rule="nonzero"/>
	</g>
</svg>
