<svg width="95.000000" height="74.000000" viewBox="0 0 95 74" fill="none" xmlns="http://www.w3.org/2000/svg" xmlns:xlink="http://www.w3.org/1999/xlink">
	<desc>
			Created with Pixso.
	</desc>
	<defs>
		<filter id="filter_877_13007_dd" x="59.000000" y="19.000000" width="36.000000" height="36.000000" filterUnits="userSpaceOnUse" color-interpolation-filters="sRGB">
			<feFlood flood-opacity="0" result="BackgroundImageFix"/>
			<feGaussianBlur in="BackgroundImage" stdDeviation="3.33333"/>
			<feComposite in2="SourceAlpha" operator="in" result="effect_backgroundBlur_1"/>
			<feBlend mode="normal" in="SourceGraphic" in2="effect_backgroundBlur_1" result="shape"/>
		</filter>
		<clipPath id="clip877_13008">
			<rect id="check (6) 10" width="18.000000" height="18.000000" transform="translate(68.000000 28.000000)" fill="white" fill-opacity="0"/>
		</clipPath>
		<linearGradient id="paint_linear_877_13006_0" x1="0.000000" y1="6.166683" x2="62.405205" y2="69.000031" gradientUnits="userSpaceOnUse">
			<stop stop-color="#85DBFF"/>
			<stop offset="1.000000" stop-color="#009FE3"/>
		</linearGradient>
	</defs>
	<path id="01" d="M29.9062 55.9062Q34.1719 49.9219 34.1719 38.7344Q34.1719 27.5938 29.9062 21.6094Q27.8796 18.7556 25.1173 17.2627Q22.0872 15.625 18.1719 15.625Q14.9919 15.625 12.3364 16.8052Q11.9518 16.9762 11.5781 17.1719Q11.2701 17.3325 10.9711 17.5085Q8.41942 19.0112 6.53125 21.6406Q4.42188 24.5781 3.29688 28.875Q2.17188 33.1562 2.17188 38.7344Q2.17188 49.9219 6.42188 55.9062Q8.46195 58.7683 11.2383 60.2616Q14.267 61.8906 18.1719 61.8906Q22.0872 61.8906 25.1173 60.2529Q27.8796 58.76 29.9062 55.9062ZM44.7114 24.1094Q42.6958 25.0938 40.8364 25.8594L43.7114 33.2188Q45.9458 32.4531 48.3208 31.4062Q50.6958 30.3438 52.602 29.0625L52.602 61L62.1489 61L62.1489 16.6406L55.4926 16.6406Q54.0864 18.125 52.3208 19.4375Q50.5551 20.75 48.6333 21.9375Q46.727 23.1094 44.7114 24.1094ZM24.125 32.6875Q24.4531 35.4062 24.4531 38.7344Q24.4531 42.0625 24.125 44.8125Q23.8125 47.5625 23.1094 49.5469Q22.4062 51.5312 21.1875 52.625Q20.8147 52.9548 20.3878 53.1837Q19.4191 53.7031 18.1719 53.7031Q16.9283 53.7031 15.9741 53.1776Q15.5616 52.9504 15.2031 52.625Q14.0156 51.5312 13.2812 49.5469Q12.5469 47.5625 12.2188 44.8125Q11.9062 42.0625 11.9062 38.7344Q11.9062 35.4062 12.2188 32.6875Q12.5469 29.9531 13.2812 27.9688Q14.0156 25.9844 15.2031 24.9062Q15.5797 24.5594 16.0161 24.3225Q16.9555 23.8125 18.1719 23.8125Q19.3915 23.8125 20.3448 24.3164Q20.796 24.5549 21.1875 24.9062Q22.4062 25.9844 23.1094 27.9688Q23.8125 29.9531 24.125 32.6875Z" fill="url(#paint_linear_877_13006_0)" fill-opacity="1.000000" fill-rule="evenodd"/>
	<g filter="url(#filter_877_13007_dd)">
		<circle id="Ellipse 64" cx="77.000000" cy="37.000000" r="18.000000" fill="#FFFFFF" fill-opacity="0.300000"/>
	</g>
	<circle id="Ellipse 64" cx="77.000000" cy="37.000000" r="17.500000" stroke="#9D9D9D" stroke-opacity="0.900000" stroke-width="1.000000"/>
	<rect id="check (6) 10" width="18.000000" height="18.000000" transform="translate(68.000000 28.000000)" fill="#FFFFFF" fill-opacity="0"/>
	<g clip-path="url(#clip877_13008)">
		<path id="Vector" d="M82.0234 33.3994C81.7266 33.0996 81.2734 33.0996 80.9766 33.3994L75.3516 39.0244L73.0234 36.7002C72.7266 36.3994 72.2734 36.3994 71.9766 36.7002C71.6719 37 71.6719 37.4502 71.9766 37.75L74.8281 40.5996C74.9766 40.75 75.125 40.8252 75.3516 40.8252C75.5781 40.8252 75.7266 40.75 75.875 40.5996L82.0234 34.4502C82.3281 34.1494 82.3281 33.7002 82.0234 33.3994Z" fill="#FFC700" fill-opacity="1.000000" fill-rule="nonzero"/>
	</g>
</svg>
