<svg width="95.000000" height="74.000000" viewBox="0 0 95 74" fill="none" xmlns="http://www.w3.org/2000/svg" xmlns:xlink="http://www.w3.org/1999/xlink">
	<desc>
			Created with Pixso.
	</desc>
	<defs>
		<filter id="filter_877_13043_dd" x="59.000000" y="19.000000" width="36.000000" height="36.000000" filterUnits="userSpaceOnUse" color-interpolation-filters="sRGB">
			<feFlood flood-opacity="0" result="BackgroundImageFix"/>
			<feGaussianBlur in="BackgroundImage" stdDeviation="3.33333"/>
			<feComposite in2="SourceAlpha" operator="in" result="effect_backgroundBlur_1"/>
			<feBlend mode="normal" in="SourceGraphic" in2="effect_backgroundBlur_1" result="shape"/>
		</filter>
		<clipPath id="clip877_13044">
			<rect id="check (6) 10" width="18.000000" height="18.000000" transform="translate(68.000000 28.000000)" fill="white" fill-opacity="0"/>
		</clipPath>
		<linearGradient id="paint_linear_877_13042_0" x1="0.000000" y1="6.166683" x2="62.405205" y2="69.000031" gradientUnits="userSpaceOnUse">
			<stop stop-color="#85DBFF"/>
			<stop offset="1.000000" stop-color="#009FE3"/>
		</linearGradient>
	</defs>
	<path id="03" d="M29.9062 55.9062Q34.1719 49.9219 34.1719 38.7344Q34.1719 27.5938 29.9062 21.6094Q27.8796 18.7556 25.1173 17.2627Q22.0872 15.625 18.1719 15.625Q14.9919 15.625 12.3364 16.8052Q11.9518 16.9762 11.5781 17.1719Q11.2701 17.3325 10.9711 17.5085Q8.41942 19.0112 6.53125 21.6406Q4.42188 24.5781 3.29688 28.875Q2.17188 33.1562 2.17188 38.7344Q2.17188 49.9219 6.42188 55.9062Q8.46195 58.7683 11.2383 60.2616Q14.267 61.8906 18.1719 61.8906Q22.0872 61.8906 25.1173 60.2529Q27.8796 58.76 29.9062 55.9062ZM47.2895 61.7344Q49.2114 61.9531 50.9458 61.9531Q55.5551 61.9531 58.9145 60.9062Q62.2739 59.8438 64.4458 57.9688Q65.8474 56.7486 66.7675 55.2355Q67.2731 54.4042 67.6333 53.4844Q68.6645 50.8906 68.6645 47.8125Q68.6645 44.2658 67.1059 41.6466Q66.9479 41.381 66.7739 41.125Q66.4036 40.5757 65.9717 40.0801Q64.2169 38.066 61.4458 36.9375Q62.5013 36.3931 63.3735 35.6372Q64.5542 34.614 65.3989 33.2031Q66.61 31.1889 66.8329 29.0707Q66.8833 28.5927 66.8833 28.1094Q66.8833 25.4219 65.977 23.1562Q65.6378 22.2874 65.1581 21.5047Q64.3782 20.2323 63.227 19.1875Q61.3833 17.4844 58.5239 16.5625Q55.6801 15.625 51.7739 15.625Q49.6645 15.625 47.7739 16.0156Q45.8833 16.3906 44.2114 16.9688Q42.5551 17.5469 41.1801 18.25Q39.8051 18.9531 38.7895 19.5938L42.1801 26.5625Q44.102 25.3594 46.4301 24.5312Q48.7739 23.6875 51.5239 23.6875Q51.7294 23.6875 51.9343 23.6983Q52.8045 23.7441 53.6645 23.9844Q54.727 24.2656 55.5239 24.8438Q55.7637 25.0177 55.9766 25.22Q56.4712 25.6899 56.8208 26.3125Q57.3364 27.2031 57.3364 28.4219Q57.3364 30.0312 56.727 31.0938Q56.4195 31.6359 55.9947 32.0607Q55.5992 32.4562 55.102 32.75Q54.0864 33.3594 52.7739 33.6094Q51.4614 33.8594 50.0551 33.8594L45.8208 33.8594L45.8208 41.5469L49.5395 41.5469Q51.5239 41.5469 53.2739 41.8438Q55.0395 42.125 56.3208 42.8594Q57.2553 43.3951 57.8989 44.1718Q58.1377 44.4599 58.3364 44.7812Q59.0708 45.9531 59.0708 47.6875Q59.0708 49.3307 58.372 50.5846Q57.8748 51.4768 57.0239 52.1719Q54.977 53.8281 50.5551 53.8281Q46.727 53.8281 44.1333 53.0312Q41.5395 52.2344 39.8676 51.5312L38.0083 59.4688Q38.852 59.8438 40.3208 60.2969Q41.7895 60.75 43.5864 61.125Q45.3833 61.5156 47.2895 61.7344ZM24.125 32.6875Q24.4531 35.4062 24.4531 38.7344Q24.4531 42.0625 24.125 44.8125Q23.8125 47.5625 23.1094 49.5469Q22.4062 51.5312 21.1875 52.625Q20.8147 52.9548 20.3878 53.1837Q19.4191 53.7031 18.1719 53.7031Q16.9283 53.7031 15.9741 53.1776Q15.5616 52.9504 15.2031 52.625Q14.0156 51.5312 13.2812 49.5469Q12.5469 47.5625 12.2188 44.8125Q11.9062 42.0625 11.9062 38.7344Q11.9062 35.4062 12.2188 32.6875Q12.5469 29.9531 13.2812 27.9688Q14.0156 25.9844 15.2031 24.9062Q15.5797 24.5594 16.0161 24.3225Q16.9555 23.8125 18.1719 23.8125Q19.3915 23.8125 20.3448 24.3164Q20.796 24.5549 21.1875 24.9062Q22.4062 25.9844 23.1094 27.9688Q23.8125 29.9531 24.125 32.6875Z" fill="url(#paint_linear_877_13042_0)" fill-opacity="1.000000" fill-rule="evenodd"/>
	<g filter="url(#filter_877_13043_dd)">
		<circle id="Ellipse 64" cx="77.000000" cy="37.000000" r="18.000000" fill="#FFFFFF" fill-opacity="0.300000"/>
	</g>
	<circle id="Ellipse 64" cx="77.000000" cy="37.000000" r="17.500000" stroke="#9D9D9D" stroke-opacity="0.900000" stroke-width="1.000000"/>
	<rect id="check (6) 10" width="18.000000" height="18.000000" transform="translate(68.000000 28.000000)" fill="#FFFFFF" fill-opacity="0"/>
	<g clip-path="url(#clip877_13044)">
		<path id="Vector" d="M82.0234 33.3994C81.7266 33.0996 81.2734 33.0996 80.9766 33.3994L75.3516 39.0244L73.0234 36.7002C72.7266 36.3994 72.2734 36.3994 71.9766 36.7002C71.6719 37 71.6719 37.4502 71.9766 37.75L74.8281 40.5996C74.9766 40.75 75.125 40.8252 75.3516 40.8252C75.5781 40.8252 75.7266 40.75 75.875 40.5996L82.0234 34.4502C82.3281 34.1494 82.3281 33.7002 82.0234 33.3994Z" fill="#FFC700" fill-opacity="1.000000" fill-rule="nonzero"/>
	</g>
</svg>
