<svg width="26.000000" height="26.000000" viewBox="0 0 26 26" fill="none" xmlns="http://www.w3.org/2000/svg" xmlns:xlink="http://www.w3.org/1999/xlink">
	<desc>
			Created with Pixso.
	</desc>
	<defs>
		<clipPath id="clip877_12771">
			<rect id="calendar (14) 1" width="26.000000" height="26.000000" fill="white" fill-opacity="0"/>
		</clipPath>
	</defs>
	<rect id="calendar (14) 1" width="26.000000" height="26.000000" fill="#FFFFFF" fill-opacity="0"/>
	<g clip-path="url(#clip877_12771)">
		<path id="Vector" d="M23.1562 3.25L21.125 3.25L21.125 2.4375C21.125 2.00635 20.9531 1.59326 20.6484 1.28857C20.3438 0.983887 19.9297 0.8125 19.5 0.8125C19.0703 0.8125 18.6562 0.983887 18.3516 1.28857C18.0469 1.59326 17.875 2.00635 17.875 2.4375L17.875 3.25L14.625 3.25L14.625 2.4375C14.625 2.00635 14.4531 1.59326 14.1484 1.28857C13.8438 0.983887 13.4297 0.8125 13 0.8125C12.5703 0.8125 12.1562 0.983887 11.8516 1.28857C11.5469 1.59326 11.375 2.00635 11.375 2.4375L11.375 3.25L8.125 3.25L8.125 2.4375C8.125 2.00635 7.95312 1.59326 7.64844 1.28857C7.34375 0.983887 6.92969 0.8125 6.5 0.8125C6.07031 0.8125 5.65625 0.983887 5.35156 1.28857C5.04688 1.59326 4.875 2.00635 4.875 2.4375L4.875 3.25L2.84375 3.25C2.30469 3.25 1.78906 3.46387 1.40625 3.84473C1.02344 4.22607 0.8125 4.74268 0.8125 5.28125L0.8125 21.5312C0.8125 22.0698 1.02344 22.5864 1.40625 22.9678C1.78906 23.3486 2.30469 23.5625 2.84375 23.5625L14.2188 23.5625C14.3281 23.5625 14.4297 23.5195 14.5078 23.4434C14.5859 23.3672 14.625 23.2642 14.625 23.1562C14.625 23.0483 14.5859 22.9453 14.5078 22.8691C14.4297 22.793 14.3281 22.75 14.2188 22.75L2.84375 22.75C2.52344 22.749 2.21094 22.6201 1.98438 22.3921C1.75781 22.1636 1.625 21.854 1.625 21.5312L1.625 8.9375L24.375 8.9375L24.375 15.8438C24.375 15.9517 24.4141 16.0547 24.4922 16.1309C24.5703 16.207 24.6719 16.25 24.7812 16.25C24.8906 16.25 24.9922 16.207 25.0703 16.1309C25.1484 16.0547 25.1875 15.9517 25.1875 15.8438L25.1875 5.28125C25.1875 4.74268 24.9766 4.22607 24.5938 3.84473C24.2109 3.46387 23.6953 3.25 23.1562 3.25ZM18.6875 2.4375C18.6875 2.22217 18.7734 2.01514 18.9219 1.86279C19.0781 1.71045 19.2812 1.625 19.5 1.625C19.7188 1.625 19.9219 1.71045 20.0781 1.86279C20.2266 2.01514 20.3125 2.22217 20.3125 2.4375L20.3125 4.875C20.3125 5.09033 20.2266 5.29736 20.0781 5.44971C19.9219 5.60205 19.7188 5.6875 19.5 5.6875C19.2812 5.6875 19.0781 5.60205 18.9219 5.44971C18.7734 5.29736 18.6875 5.09033 18.6875 4.875L18.6875 2.4375ZM12.1875 2.4375C12.1875 2.22217 12.2734 2.01514 12.4219 1.86279C12.5781 1.71045 12.7812 1.625 13 1.625C13.2188 1.625 13.4219 1.71045 13.5781 1.86279C13.7266 2.01514 13.8125 2.22217 13.8125 2.4375L13.8125 4.875C13.8125 5.09033 13.7266 5.29736 13.5781 5.44971C13.4219 5.60205 13.2188 5.6875 13 5.6875C12.7812 5.6875 12.5781 5.60205 12.4219 5.44971C12.2734 5.29736 12.1875 5.09033 12.1875 4.875L12.1875 2.4375ZM5.6875 2.4375C5.6875 2.22217 5.77344 2.01514 5.92188 1.86279C6.07812 1.71045 6.28125 1.625 6.5 1.625C6.71875 1.625 6.92188 1.71045 7.07812 1.86279C7.22656 2.01514 7.3125 2.22217 7.3125 2.4375L7.3125 4.875C7.3125 5.09033 7.22656 5.29736 7.07812 5.44971C6.92188 5.60205 6.71875 5.6875 6.5 5.6875C6.28125 5.6875 6.07812 5.60205 5.92188 5.44971C5.77344 5.29736 5.6875 5.09033 5.6875 4.875L5.6875 2.4375ZM24.375 8.125L1.625 8.125L1.625 5.28125C1.625 4.9585 1.75781 4.64893 1.98438 4.42041C2.21094 4.19238 2.52344 4.06348 2.84375 4.0625L4.875 4.0625L4.875 4.875C4.875 5.30615 5.04688 5.71924 5.35156 6.02393C5.65625 6.32861 6.07031 6.5 6.5 6.5C6.92969 6.5 7.34375 6.32861 7.64844 6.02393C7.95312 5.71924 8.125 5.30615 8.125 4.875L8.125 4.0625L11.375 4.0625L11.375 4.875C11.375 5.30615 11.5469 5.71924 11.8516 6.02393C12.1562 6.32861 12.5703 6.5 13 6.5C13.4297 6.5 13.8438 6.32861 14.1484 6.02393C14.4531 5.71924 14.625 5.30615 14.625 4.875L14.625 4.0625L17.875 4.0625L17.875 4.875C17.875 5.30615 18.0469 5.71924 18.3516 6.02393C18.6562 6.32861 19.0703 6.5 19.5 6.5C19.9297 6.5 20.3438 6.32861 20.6484 6.02393C20.9531 5.71924 21.125 5.30615 21.125 4.875L21.125 4.0625L23.1562 4.0625C23.4766 4.06348 23.7891 4.19238 24.0156 4.42041C24.2422 4.64893 24.375 4.9585 24.375 5.28125L24.375 8.125Z" fill="#009FE3" fill-opacity="1.000000" fill-rule="nonzero"/>
		<path id="Vector" d="M12.1875 11.7812C12.1875 11.5659 12.1016 11.3589 11.9531 11.2065C11.7969 11.0542 11.5938 10.9688 11.375 10.9688L9.75 10.9688C9.53125 10.9688 9.32812 11.0542 9.17188 11.2065C9.02344 11.3589 8.9375 11.5659 8.9375 11.7812L8.9375 13C8.9375 13.2153 9.02344 13.4224 9.17188 13.5747C9.32812 13.7271 9.53125 13.8125 9.75 13.8125L11.375 13.8125C11.5938 13.8125 11.7969 13.7271 11.9531 13.5747C12.1016 13.4224 12.1875 13.2153 12.1875 13L12.1875 11.7812ZM9.75 13L9.75 11.7812L11.375 11.7812L11.375 13L9.75 13Z" fill="#009FE3" fill-opacity="1.000000" fill-rule="nonzero"/>
		<path id="Vector" d="M7.3125 11.7812C7.3125 11.5659 7.22656 11.3589 7.07812 11.2065C6.92188 11.0542 6.71875 10.9688 6.5 10.9688L4.875 10.9688C4.65625 10.9688 4.45312 11.0542 4.29688 11.2065C4.14844 11.3589 4.0625 11.5659 4.0625 11.7812L4.0625 13C4.0625 13.2153 4.14844 13.4224 4.29688 13.5747C4.45312 13.7271 4.65625 13.8125 4.875 13.8125L6.5 13.8125C6.71875 13.8125 6.92188 13.7271 7.07812 13.5747C7.22656 13.4224 7.3125 13.2153 7.3125 13L7.3125 11.7812ZM4.875 13L4.875 11.7812L6.5 11.7812L6.5 13L4.875 13Z" fill="#009FE3" fill-opacity="1.000000" fill-rule="nonzero"/>
		<path id="Vector" d="M21.125 13.8125C21.3438 13.8125 21.5469 13.7271 21.7031 13.5747C21.8516 13.4224 21.9375 13.2153 21.9375 13L21.9375 11.7812C21.9375 11.5659 21.8516 11.3589 21.7031 11.2065C21.5469 11.0542 21.3438 10.9688 21.125 10.9688L19.5 10.9688C19.2812 10.9688 19.0781 11.0542 18.9219 11.2065C18.7734 11.3589 18.6875 11.5659 18.6875 11.7812L18.6875 13C18.6875 13.2153 18.7734 13.4224 18.9219 13.5747C19.0781 13.7271 19.2812 13.8125 19.5 13.8125L21.125 13.8125ZM19.5 11.7812L21.125 11.7812L21.125 13L19.5 13L19.5 11.7812Z" fill="#009FE3" fill-opacity="1.000000" fill-rule="nonzero"/>
		<path id="Vector" d="M12.1875 15.4375C12.1875 15.2222 12.1016 15.0151 11.9531 14.8628C11.7969 14.7104 11.5938 14.625 11.375 14.625L9.75 14.625C9.53125 14.625 9.32812 14.7104 9.17188 14.8628C9.02344 15.0151 8.9375 15.2222 8.9375 15.4375L8.9375 16.6562C8.9375 16.8716 9.02344 17.0786 9.17188 17.231C9.32812 17.3833 9.53125 17.4688 9.75 17.4688L11.375 17.4688C11.5938 17.4688 11.7969 17.3833 11.9531 17.231C12.1016 17.0786 12.1875 16.8716 12.1875 16.6562L12.1875 15.4375ZM9.75 16.6562L9.75 15.4375L11.375 15.4375L11.375 16.6562L9.75 16.6562Z" fill="#009FE3" fill-opacity="1.000000" fill-rule="nonzero"/>
		<path id="Vector" d="M7.3125 15.4375C7.3125 15.2222 7.22656 15.0151 7.07812 14.8628C6.92188 14.7104 6.71875 14.625 6.5 14.625L4.875 14.625C4.65625 14.625 4.45312 14.7104 4.29688 14.8628C4.14844 15.0151 4.0625 15.2222 4.0625 15.4375L4.0625 16.6562C4.0625 16.8716 4.14844 17.0786 4.29688 17.231C4.45312 17.3833 4.65625 17.4688 4.875 17.4688L6.5 17.4688C6.71875 17.4688 6.92188 17.3833 7.07812 17.231C7.22656 17.0786 7.3125 16.8716 7.3125 16.6562L7.3125 15.4375ZM4.875 16.6562L4.875 15.4375L6.5 15.4375L6.5 16.6562L4.875 16.6562Z" fill="#009FE3" fill-opacity="1.000000" fill-rule="nonzero"/>
		<path id="Vector" d="M11.375 18.2812L9.75 18.2812C9.53125 18.2812 9.32812 18.3667 9.17188 18.519C9.02344 18.6714 8.9375 18.8784 8.9375 19.0938L8.9375 20.3125C8.9375 20.5278 9.02344 20.7349 9.17188 20.8872C9.32812 21.0396 9.53125 21.125 9.75 21.125L11.375 21.125C11.5938 21.125 11.7969 21.0396 11.9531 20.8872C12.1016 20.7349 12.1875 20.5278 12.1875 20.3125L12.1875 19.0938C12.1875 18.8784 12.1016 18.6714 11.9531 18.519C11.7969 18.3667 11.5938 18.2812 11.375 18.2812ZM9.75 20.3125L9.75 19.0938L11.375 19.0938L11.375 20.3125L9.75 20.3125Z" fill="#009FE3" fill-opacity="1.000000" fill-rule="nonzero"/>
		<path id="Vector" d="M14.625 13.8125L16.25 13.8125C16.4688 13.8125 16.6719 13.7271 16.8281 13.5747C16.9766 13.4224 17.0625 13.2153 17.0625 13L17.0625 11.7812C17.0625 11.5659 16.9766 11.3589 16.8281 11.2065C16.6719 11.0542 16.4688 10.9688 16.25 10.9688L14.625 10.9688C14.4062 10.9688 14.2031 11.0542 14.0469 11.2065C13.8984 11.3589 13.8125 11.5659 13.8125 11.7812L13.8125 13C13.8125 13.2153 13.8984 13.4224 14.0469 13.5747C14.2031 13.7271 14.4062 13.8125 14.625 13.8125ZM14.625 11.7812L16.25 11.7812L16.25 13L14.625 13L14.625 11.7812Z" fill="#009FE3" fill-opacity="1.000000" fill-rule="nonzero"/>
		<path id="Vector" d="M13.8125 16.6562C13.8125 16.8716 13.8984 17.0786 14.0469 17.231C14.2031 17.3833 14.4062 17.4688 14.625 17.4688C14.7344 17.4688 14.8359 17.4258 14.9141 17.3496C14.9922 17.2734 15.0312 17.1704 15.0312 17.0625C15.0312 16.9546 14.9922 16.8516 14.9141 16.7754C14.8359 16.6992 14.7344 16.6562 14.625 16.6562L14.625 15.4375L16.25 15.4375C16.3594 15.4375 16.4609 15.3945 16.5391 15.3184C16.6172 15.2422 16.6562 15.1392 16.6562 15.0312C16.6562 14.9233 16.6172 14.8203 16.5391 14.7441C16.4609 14.668 16.3594 14.625 16.25 14.625L14.625 14.625C14.4062 14.625 14.2031 14.7104 14.0469 14.8628C13.8984 15.0151 13.8125 15.2222 13.8125 15.4375L13.8125 16.6562Z" fill="#009FE3" fill-opacity="1.000000" fill-rule="nonzero"/>
		<path id="Vector" d="M6.5 18.2812L4.875 18.2812C4.65625 18.2812 4.45312 18.3667 4.29688 18.519C4.14844 18.6714 4.0625 18.8784 4.0625 19.0938L4.0625 20.3125C4.0625 20.5278 4.14844 20.7349 4.29688 20.8872C4.45312 21.0396 4.65625 21.125 4.875 21.125L6.5 21.125C6.71875 21.125 6.92188 21.0396 7.07812 20.8872C7.22656 20.7349 7.3125 20.5278 7.3125 20.3125L7.3125 19.0938C7.3125 18.8784 7.22656 18.6714 7.07812 18.519C6.92188 18.3667 6.71875 18.2812 6.5 18.2812ZM4.875 20.3125L4.875 19.0938L6.5 19.0938L6.5 20.3125L4.875 20.3125Z" fill="#009FE3" fill-opacity="1.000000" fill-rule="nonzero"/>
		<path id="Vector" d="M19.9062 14.625C18.8594 14.625 17.8438 14.9346 16.9688 15.5151C16.1016 16.0952 15.4297 16.9204 15.0234 17.8853C14.625 18.8501 14.5234 19.9121 14.7266 20.9365C14.9297 21.9609 15.4297 22.9019 16.1719 23.6406C16.9141 24.3794 17.8516 24.8823 18.875 25.0859C19.8984 25.29 20.9609 25.1851 21.9297 24.7856C22.8906 24.3857 23.7188 23.709 24.2969 22.8403C24.875 21.9717 25.1875 20.9507 25.1875 19.9062C25.1875 18.5059 24.6328 17.1636 23.6406 16.1738C22.6484 15.1836 21.3047 14.6265 19.9062 14.625ZM19.9062 24.375C19.0234 24.375 18.1562 24.1128 17.4219 23.6221C16.6875 23.1309 16.1172 22.4331 15.7812 21.6162C15.4375 20.7998 15.3516 19.9014 15.5234 19.0347C15.6953 18.1675 16.125 17.3711 16.75 16.7466C17.375 16.1216 18.1641 15.6958 19.0312 15.5234C19.8984 15.3511 20.7969 15.4395 21.6172 15.7778C22.4297 16.1157 23.1328 16.6885 23.625 17.4233C24.1094 18.1582 24.375 19.0225 24.375 19.9062C24.375 21.0908 23.8984 22.2271 23.0625 23.0645C22.2266 23.9023 21.0938 24.3735 19.9062 24.375Z" fill="#009FE3" fill-opacity="1.000000" fill-rule="nonzero"/>
		<path id="Vector" d="M22.25 18.2036L19.0938 21.3633L17.6562 19.9268C17.5781 19.8525 17.4766 19.8115 17.375 19.8125C17.2656 19.8135 17.1641 19.8564 17.0859 19.9316C17.0156 20.0068 16.9688 20.1089 16.9688 20.2153C16.9688 20.3218 17.0078 20.4243 17.0859 20.501L18.8047 22.2251C18.8828 22.3008 18.9844 22.3438 19.0938 22.3438C19.2031 22.3438 19.3047 22.3008 19.3828 22.2251L22.8281 18.7778C22.8984 18.7012 22.9453 18.5986 22.9453 18.4922C22.9375 18.3857 22.8984 18.2837 22.8203 18.2085C22.75 18.1328 22.6484 18.0903 22.5391 18.0894C22.4297 18.0884 22.3281 18.1294 22.25 18.2036Z" fill="#009FE3" fill-opacity="1.000000" fill-rule="nonzero"/>
	</g>
</svg>
