<svg width="26.000000" height="26.000000" viewBox="0 0 26 26" fill="none" xmlns="http://www.w3.org/2000/svg" xmlns:xlink="http://www.w3.org/1999/xlink">
	<desc>
			Created with Pixso.
	</desc>
	<defs>
		<clipPath id="clip877_12871">
			<rect id="check (14) 1" width="16.000000" height="16.000000" transform="translate(5.000000 5.000000)" fill="white" fill-opacity="0"/>
		</clipPath>
	</defs>
	<circle id="Ellipse 80" cx="13.000000" cy="13.000000" r="13.000000" fill="#FFFFFF" fill-opacity="1.000000"/>
	<circle id="Ellipse 80" cx="13.000000" cy="13.000000" r="12.000000" stroke="#0081B9" stroke-opacity="1.000000" stroke-width="2.000000"/>
	<rect id="check (14) 1" width="16.000000" height="16.000000" transform="translate(5.000000 5.000000)" fill="#FFFFFF" fill-opacity="0"/>
	<g clip-path="url(#clip877_12871)">
		<path id="Vector" d="M17.4688 9.80029C17.2031 9.5332 16.8047 9.5332 16.5391 9.80029L11.5391 14.8003L9.46875 12.7334C9.20312 12.4668 8.80469 12.4668 8.53906 12.7334C8.26562 13 8.26562 13.3999 8.53906 13.667L11.0703 16.2002C11.2031 16.3335 11.3359 16.3999 11.5391 16.3999C11.7344 16.3999 11.8672 16.3335 12 16.2002L17.4688 10.7334C17.7344 10.4668 17.7344 10.0669 17.4688 9.80029Z" fill="#009FE3" fill-opacity="1.000000" fill-rule="nonzero"/>
	</g>
</svg>
