<svg width="26.000000" height="26.000000" viewBox="0 0 26 26" fill="none" xmlns="http://www.w3.org/2000/svg" xmlns:xlink="http://www.w3.org/1999/xlink">
	<desc>
			Created with Pixso.
	</desc>
	<defs>
		<clipPath id="clip877_12831">
			<rect id="document (8) 1" width="26.000000" height="26.000000" fill="white" fill-opacity="0"/>
		</clipPath>
	</defs>
	<rect id="document (8) 1" width="26.000000" height="26.000000" fill="#FFFFFF" fill-opacity="0"/>
	<g clip-path="url(#clip877_12831)">
		<path id="Vector" d="M8.66406 18.6333L7.79688 18.6333C7.5625 18.6333 7.36719 18.8271 7.36719 19.0664C7.36719 19.3062 7.5625 19.5 7.79688 19.5L8.66406 19.5C8.90625 19.5 9.10156 19.3062 9.10156 19.0664C9.10156 18.8271 8.90625 18.6333 8.66406 18.6333Z" fill="#009FE3" fill-opacity="1.000000" fill-rule="nonzero"/>
		<path id="Vector" d="M20.8047 18.6333L10.3984 18.6333C10.1641 18.6333 9.96875 18.8271 9.96875 19.0664C9.96875 19.3062 10.1641 19.5 10.3984 19.5L20.8047 19.5C21.0391 19.5 21.2344 19.3062 21.2344 19.0664C21.2344 18.8271 21.0391 18.6333 20.8047 18.6333Z" fill="#009FE3" fill-opacity="1.000000" fill-rule="nonzero"/>
		<path id="Vector" d="M8.66406 16.0332L7.79688 16.0332C7.5625 16.0332 7.36719 16.2271 7.36719 16.4663C7.36719 16.7061 7.5625 16.8999 7.79688 16.8999L8.66406 16.8999C8.90625 16.8999 9.10156 16.7061 9.10156 16.4663C9.10156 16.2271 8.90625 16.0332 8.66406 16.0332Z" fill="#009FE3" fill-opacity="1.000000" fill-rule="nonzero"/>
		<path id="Vector" d="M20.8047 16.0332L10.3984 16.0332C10.1641 16.0332 9.96875 16.2271 9.96875 16.4663C9.96875 16.7061 10.1641 16.8999 10.3984 16.8999L20.8047 16.8999C21.0391 16.8999 21.2344 16.7061 21.2344 16.4663C21.2344 16.2271 21.0391 16.0332 20.8047 16.0332Z" fill="#009FE3" fill-opacity="1.000000" fill-rule="nonzero"/>
		<path id="Vector" d="M8.66406 13.4336L7.79688 13.4336C7.5625 13.4336 7.36719 13.6274 7.36719 13.8667C7.36719 14.1064 7.5625 14.3003 7.79688 14.3003L8.66406 14.3003C8.90625 14.3003 9.10156 14.1064 9.10156 13.8667C9.10156 13.6274 8.90625 13.4336 8.66406 13.4336Z" fill="#009FE3" fill-opacity="1.000000" fill-rule="nonzero"/>
		<path id="Vector" d="M20.8047 13.4331L10.3984 13.4331C10.1641 13.4331 9.96875 13.627 9.96875 13.8662C9.96875 14.106 10.1641 14.2998 10.3984 14.2998L20.8047 14.2998C21.0391 14.2998 21.2344 14.106 21.2344 13.8662C21.2344 13.627 21.0391 13.4331 20.8047 13.4331Z" fill="#009FE3" fill-opacity="1.000000" fill-rule="nonzero"/>
		<path id="Vector" d="M8.66406 10.8335L7.79688 10.8335C7.5625 10.8335 7.36719 11.0273 7.36719 11.2666C7.36719 11.5063 7.5625 11.7002 7.79688 11.7002L8.66406 11.7002C8.90625 11.7002 9.10156 11.5063 9.10156 11.2666C9.10156 11.0273 8.90625 10.8335 8.66406 10.8335Z" fill="#009FE3" fill-opacity="1.000000" fill-rule="nonzero"/>
		<path id="Vector" d="M20.8047 10.8335L10.3984 10.8335C10.1641 10.8335 9.96875 11.0273 9.96875 11.2666C9.96875 11.5063 10.1641 11.7002 10.3984 11.7002L20.8047 11.7002C21.0391 11.7002 21.2344 11.5063 21.2344 11.2666C21.2344 11.0273 21.0391 10.8335 20.8047 10.8335Z" fill="#009FE3" fill-opacity="1.000000" fill-rule="nonzero"/>
		<path id="Vector" d="M8.66406 8.2334L7.79688 8.2334C7.5625 8.2334 7.36719 8.42725 7.36719 8.6665C7.36719 8.90625 7.5625 9.1001 7.79688 9.1001L8.66406 9.1001C8.90625 9.1001 9.10156 8.90625 9.10156 8.6665C9.10156 8.42725 8.90625 8.2334 8.66406 8.2334Z" fill="#009FE3" fill-opacity="1.000000" fill-rule="nonzero"/>
		<path id="Vector" d="M20.8047 8.2334L10.3984 8.2334C10.1641 8.2334 9.96875 8.42725 9.96875 8.6665C9.96875 8.90625 10.1641 9.1001 10.3984 9.1001L20.8047 9.1001C21.0391 9.1001 21.2344 8.90625 21.2344 8.6665C21.2344 8.42725 21.0391 8.2334 20.8047 8.2334Z" fill="#009FE3" fill-opacity="1.000000" fill-rule="nonzero"/>
		<path id="Vector" d="M23.8281 6.47266C23.8203 6.43457 23.8125 6.39746 23.8047 6.36133C23.7969 6.34766 23.7969 6.33398 23.7891 6.3208C23.7656 6.27344 23.7344 6.23047 23.7031 6.19385L17.6328 0.126953C17.6016 0.0908203 17.5547 0.0615234 17.5078 0.0405273C17.4922 0.0341797 17.4844 0.0307617 17.4688 0.0258789C17.4297 0.0136719 17.3906 0.00585938 17.3594 0.00341797C17.3516 0.00488281 17.3438 0 17.3281 0L5.19531 0C4.96094 0 4.76562 0.193848 4.76562 0.433105L4.76562 1.7334L2.59375 1.7334C2.35938 1.7334 2.16406 1.92725 2.16406 2.1665L2.16406 25.5669C2.16406 25.8062 2.35938 26 2.59375 26L20.7969 26C21.0391 26 21.2344 25.8062 21.2344 25.5669L21.2344 23.3999L23.3984 23.3999C23.6328 23.3999 23.8281 23.2061 23.8281 22.9668L23.8281 6.5C23.8281 6.49023 23.8281 6.48242 23.8281 6.47266ZM17.7656 1.47949L22.3516 6.06689L17.7656 6.06689L17.7656 1.47949ZM20.3672 25.1333L3.03125 25.1333L3.03125 2.6001L4.76562 2.6001L4.76562 22.9668C4.76562 23.2061 4.96094 23.3999 5.19531 23.3999L20.3672 23.3999L20.3672 25.1333ZM22.9609 22.5332L5.63281 22.5332L5.63281 0.866699L16.8984 0.866699L16.8984 6.5C16.8984 6.73926 17.0938 6.93311 17.3281 6.93311L22.9609 6.93311L22.9609 22.5332Z" fill="#009FE3" fill-opacity="1.000000" fill-rule="nonzero"/>
		<path id="Vector" d="M10.3984 3.8999L7.79688 3.8999C7.5625 3.8999 7.36719 4.09375 7.36719 4.33301L7.36719 6.93311C7.36719 7.17236 7.5625 7.3667 7.79688 7.3667L10.3984 7.3667C10.6406 7.3667 10.8359 7.17236 10.8359 6.93311L10.8359 4.33301C10.8359 4.09375 10.6406 3.8999 10.3984 3.8999ZM9.96875 6.5L8.23438 6.5L8.23438 4.7666L9.96875 4.7666L9.96875 6.5Z" fill="#009FE3" fill-opacity="1.000000" fill-rule="nonzero"/>
	</g>
</svg>
