<svg width="26.000000" height="26.000000" viewBox="0 0 26 26" fill="none" xmlns="http://www.w3.org/2000/svg" xmlns:xlink="http://www.w3.org/1999/xlink">
	<desc>
			Created with Pixso.
	</desc>
	<defs>
		<clipPath id="clip877_12767">
			<rect id="graduation-cap 1" width="26.000000" height="26.000000" fill="white" fill-opacity="0"/>
		</clipPath>
	</defs>
	<rect id="graduation-cap 1" width="26.000000" height="26.000000" fill="#FFFFFF" fill-opacity="0"/>
	<g clip-path="url(#clip877_12767)">
		<path id="Vector" d="M25.1328 8.50635L14.7734 3.44336C13.875 2.99658 12.3594 2.99658 11.4688 3.44336L0.867188 8.50635C0.117188 8.86377 0 9.37012 0 9.63818C0 9.90625 0.117188 10.3828 0.867188 10.77L1.72656 11.187L1.72656 15.9521C1.1875 16.1606 0.804688 16.6968 0.804688 17.2925C0.804688 17.8877 1.1875 18.4238 1.69531 18.6323L0.359375 22.8911L4.10938 22.8911L2.77344 18.6323C3.30469 18.4238 3.66406 17.8877 3.66406 17.2925C3.66406 16.667 3.27344 16.1606 2.74219 15.9521L2.74219 11.6934L4.32031 12.4673L4.32031 18.6621C4.32031 18.7515 4.35156 18.8408 4.40625 18.9302C4.55469 19.1089 7.32812 22.8911 12.9844 22.8911C18.6406 22.8911 21.4141 19.0791 21.5312 18.9302C21.5938 18.8408 21.625 18.7515 21.625 18.6621L21.625 12.4971L25.1328 10.77C25.8828 10.4126 26 9.90625 26 9.63818C25.9688 9.37012 25.8828 8.86377 25.1328 8.50635ZM20.6719 18.5132C20.1953 19.1089 17.6328 21.9683 12.9844 21.9683C8.33594 21.9683 5.78125 19.1089 5.30469 18.5132L5.30469 12.8843L11.4688 15.833C11.9141 16.0415 12.5078 16.1606 13.1016 16.1606C13.7266 16.1606 14.3281 16.0415 14.7734 15.8032L20.6719 12.9141L20.6719 18.5132ZM24.7188 9.93604L21.1484 11.6934C21 11.6934 20.875 11.7529 20.8203 11.8721L14.3516 14.999C13.7266 15.3267 12.5078 15.3267 11.8516 14.999L3.89844 11.187L13.0469 10.1147C13.3125 10.085 13.4922 9.84668 13.4609 9.6084C13.4297 9.34033 13.1953 9.16162 12.9531 9.19141L2.35156 10.4424L1.28125 9.93604C1.01562 9.81689 0.953125 9.66797 0.953125 9.66797C0.953125 9.63818 1.01562 9.51904 1.28125 9.3999L11.8828 4.30713C12.2109 4.1582 12.6562 4.06885 13.1016 4.06885C13.5781 4.06885 14.0547 4.1582 14.3516 4.30713L24.7188 9.37012C24.9844 9.48926 25.0469 9.6084 25.0469 9.66797C25.0469 9.66797 24.9609 9.81689 24.7188 9.93604Z" fill="#009FE3" fill-opacity="1.000000" fill-rule="nonzero"/>
	</g>
</svg>
