<svg width="30.000000" height="30.000000" viewBox="0 0 30 30" fill="none" xmlns="http://www.w3.org/2000/svg" xmlns:xlink="http://www.w3.org/1999/xlink">
	<desc>
			Created with Pixso.
	</desc>
	<defs>
		<clipPath id="clip877_24423">
			<rect id="telephone-call (9) 3" width="16.000000" height="16.000000" transform="translate(7.000000 7.000000)" fill="white" fill-opacity="0"/>
		</clipPath>
	</defs>
	<circle id="Ellipse 81" cx="15.000000" cy="15.000000" r="15.000000" fill="#009FE3" fill-opacity="1.000000"/>
	<rect id="telephone-call (9) 3" width="16.000000" height="16.000000" transform="translate(7.000000 7.000000)" fill="#FFFFFF" fill-opacity="0"/>
	<g clip-path="url(#clip877_24423)">
		<path id="Vector" d="M7.4375 13.7872C7.15625 13.0237 6.95312 12.2439 7.00781 11.4154C7.04688 10.9053 7.24219 10.47 7.61719 10.1125C8.02344 9.72913 8.40625 9.32629 8.80469 8.9364C9.32812 8.4231 9.97656 8.42627 10.5 8.9364C10.8203 9.25159 11.1406 9.57324 11.4531 9.8949C11.7656 10.2035 12.0781 10.5122 12.3828 10.8241C12.9297 11.3732 12.9297 12.0132 12.3906 12.5591C12 12.949 11.6094 13.342 11.2188 13.7255C11.1094 13.8262 11.1016 13.9106 11.1562 14.0374C11.4141 14.6611 11.7969 15.2168 12.2188 15.7366C13.0703 16.7828 14.0312 17.712 15.1797 18.4301C15.4219 18.5828 15.6953 18.6965 15.9453 18.8362C16.0859 18.9077 16.1719 18.8849 16.2734 18.7744C16.6641 18.3749 17.0625 17.9817 17.4531 17.5885C17.9766 17.0752 18.625 17.072 19.1484 17.5885C19.7812 18.2189 20.4141 18.8524 21.0469 19.4893C21.5781 20.0221 21.5703 20.6752 21.0391 21.2112C20.6797 21.5751 20.2969 21.9196 19.9609 22.2997C19.4688 22.8519 18.8438 23.0339 18.1328 22.9949C17.1016 22.9397 16.1484 22.5953 15.2344 22.1501C13.1875 21.1592 11.4453 19.7849 9.99219 18.0499C8.91406 16.7633 8.02344 15.3662 7.4375 13.7872ZM23 14.9503C23 10.5674 19.4297 7 15.0469 7L15.0469 8.51404C18.5938 8.51404 21.4844 11.4025 21.4844 14.9503L23 14.9503ZM18.6484 14.9503L20.1562 14.9503C20.1562 12.1334 17.8672 9.8396 15.0469 9.8396L15.0469 11.3536C16.0078 11.3536 16.9141 11.7273 17.5938 12.4064C18.2734 13.0854 18.6484 13.9886 18.6484 14.9503Z" fill="#FFFFFF" fill-opacity="1.000000" fill-rule="nonzero"/>
	</g>
</svg>
