<svg width="29.000000" height="29.000000" viewBox="0 0 29 29" fill="none" xmlns="http://www.w3.org/2000/svg" xmlns:xlink="http://www.w3.org/1999/xlink">
	<desc>
			Created with Pixso.
	</desc>
	<defs>
		<clipPath id="clip877_12644">
			<rect id="vk (5) 1" width="29.000000" height="29.000000" fill="white" fill-opacity="0"/>
		</clipPath>
	</defs>
	<rect id="vk (5) 1" width="29.000000" height="29.000000" fill="#FFFFFF" fill-opacity="0"/>
	<g clip-path="url(#clip877_12644)">
		<path id="XMLID_11_" d="M29 14.5C29 22.5082 22.5078 29 14.5 29C6.49219 29 0 22.5082 0 14.5C0 6.49182 6.49219 0 14.5 0C22.5078 0 29 6.49182 29 14.5Z" fill="#4D76A1" fill-opacity="1.000000" fill-rule="evenodd"/>
		<path id="Vector" d="M13.9531 20.8595L15.0938 20.8595C15.0938 20.8595 15.4375 20.8218 15.6172 20.6326C15.7734 20.4589 15.7734 20.1327 15.7734 20.1327C15.7734 20.1327 15.75 18.6056 16.4531 18.3807C17.1562 18.1593 18.0547 19.8567 19 20.5093C19.7188 21.0033 20.2656 20.895 20.2656 20.895L22.8125 20.8595C22.8125 20.8595 24.1406 20.7776 23.5078 19.7318C23.4609 19.6462 23.1406 18.9583 21.6172 17.5443C20.0234 16.0646 20.2422 16.304 22.1562 13.7443C23.3281 12.1853 23.7969 11.2336 23.6484 10.826C23.5078 10.4377 22.6484 10.5404 22.6484 10.5404L19.7891 10.5582C19.7891 10.5582 19.5781 10.5293 19.4219 10.6234C19.2656 10.7157 19.1641 10.9307 19.1641 10.9307C19.1641 10.9307 18.7109 12.137 18.1094 13.163C16.8359 15.3276 16.3203 15.4419 16.1172 15.3075C15.6328 14.9943 15.75 14.049 15.75 13.3774C15.75 11.2797 16.0703 10.4049 15.1328 10.1786C14.8203 10.1033 14.5938 10.0537 13.7969 10.0457C12.7734 10.035 11.9141 10.0488 11.4219 10.2887C11.0938 10.4481 10.8438 10.8036 11 10.824C11.1875 10.8492 11.6172 10.9395 11.8438 11.2489C12.1328 11.6479 12.125 12.5443 12.125 12.5443C12.125 12.5443 12.2969 15.0138 11.7344 15.3207C11.3438 15.531 10.8125 15.1014 9.67969 13.1376C9.09375 12.1316 8.65625 11.0197 8.65625 11.0197C8.65625 11.0197 8.57031 10.8118 8.42188 10.7007C8.23438 10.566 7.98438 10.5231 7.98438 10.5231L5.25781 10.5409C5.25781 10.5409 4.85156 10.5522 4.70312 10.7299C4.57031 10.8878 4.69531 11.2145 4.69531 11.2145C4.69531 11.2145 6.82031 16.1974 9.23438 18.7085C11.4453 21.0107 13.9531 20.8595 13.9531 20.8595Z" fill="#FFFFFF" fill-opacity="1.000000" fill-rule="evenodd"/>
	</g>
</svg>
