<svg width="29.000000" height="29.000000" viewBox="0 0 29 29" fill="none" xmlns="http://www.w3.org/2000/svg" xmlns:xlink="http://www.w3.org/1999/xlink">
	<desc>
			Created with Pixso.
	</desc>
	<defs/>
	<path id="background" d="M29 14.5C29 22.5082 22.5078 29 14.5 29C6.49219 29 0 22.5082 0 14.5C0 6.49182 6.49219 0 14.5 0C22.5078 0 29 6.49182 29 14.5Z" fill="#2CAC5F" fill-opacity="1.000000" fill-rule="evenodd"/>
	<path id="Vector" d="M20.8984 8.10693C19.3906 6.58325 17.3828 5.6488 15.25 5.47217C13.1094 5.29565 10.9844 5.88843 9.24219 7.14368C7.50781 8.39905 6.27344 10.2341 5.76562 12.3181C5.26562 14.4021 5.52344 16.5978 6.49219 18.509L5.53906 23.1407C5.53125 23.1869 5.53125 23.2345 5.53906 23.2808C5.54688 23.3269 5.5625 23.3707 5.59375 23.4093C5.63281 23.4679 5.6875 23.5131 5.75781 23.5387C5.82031 23.5643 5.89062 23.5692 5.96094 23.5527L10.5 22.4767C12.4062 23.4241 14.5859 23.6644 16.6562 23.1552C18.7188 22.6459 20.5391 21.42 21.7891 19.6957C23.0312 17.9712 23.6328 15.8602 23.4688 13.7382C23.3047 11.6161 22.3906 9.62061 20.8984 8.10693ZM19.4844 19.4037C18.4375 20.4446 17.0938 21.1317 15.6406 21.3682C14.1797 21.6046 12.6875 21.3787 11.375 20.7219L10.7422 20.4088L7.95312 21.0679L7.96094 21.0333L8.53906 18.2322L8.23438 17.6208C7.55469 16.2965 7.32031 14.7927 7.55469 13.325C7.78125 11.8572 8.47656 10.5007 9.52344 9.44983C10.8438 8.12988 12.6328 7.38843 14.5 7.38843C16.3672 7.38843 18.1641 8.12988 19.4844 9.44983C19.4922 9.46265 19.5078 9.47485 19.5156 9.48608C20.8203 10.8093 21.5469 12.5945 21.5391 14.4524C21.5391 16.3102 20.7969 18.09 19.4844 19.4037Z" fill="#FFFFFF" fill-opacity="1.000000" fill-rule="nonzero"/>
	<path id="Vector" d="M19.2266 17.349C18.8906 17.8862 18.3516 18.5437 17.6719 18.7068C16.4844 18.9935 14.6641 18.7167 12.3984 16.6042L12.3672 16.5796C10.375 14.7324 9.85938 13.1952 9.98438 11.9758C10.0547 11.2838 10.6328 10.6576 11.1172 10.249C11.1953 10.1833 11.2891 10.1367 11.3828 10.1127C11.4844 10.0886 11.5859 10.0878 11.6797 10.1104C11.7812 10.1329 11.875 10.1782 11.9531 10.2427C12.0312 10.3071 12.0938 10.3888 12.1328 10.4813L12.8672 12.129C12.9141 12.2358 12.9297 12.3536 12.9141 12.4698C12.8984 12.5859 12.8594 12.6959 12.7812 12.7881L12.4141 13.2693C12.3359 13.3687 12.2891 13.4895 12.2734 13.6163C12.2656 13.7432 12.2969 13.8702 12.3594 13.9811C12.5625 14.3452 13.0625 14.8807 13.6094 15.3767C14.2344 15.937 14.9219 16.4493 15.3516 16.624C15.4688 16.6716 15.6016 16.6832 15.7188 16.6573C15.8438 16.6315 15.9609 16.5695 16.0469 16.479L16.4766 16.0457C16.5547 15.9639 16.6641 15.9055 16.7734 15.8766C16.8906 15.8477 17.0078 15.8491 17.1172 15.881L18.8594 16.3752C18.9531 16.4047 19.0469 16.4558 19.1172 16.5245C19.1875 16.5933 19.25 16.6779 19.2812 16.7717C19.3203 16.8657 19.3281 16.9666 19.3203 17.0667C19.3125 17.1667 19.2812 17.2633 19.2266 17.349Z" fill="#FFFFFF" fill-opacity="1.000000" fill-rule="nonzero"/>
</svg>
