<svg width="29.000000" height="29.000000" viewBox="0 0 29 29" fill="none" xmlns="http://www.w3.org/2000/svg" xmlns:xlink="http://www.w3.org/1999/xlink">
	<desc>
			Created with Pixso.
	</desc>
	<defs/>
	<path id="Background" d="M29 14.5C29 22.5082 22.5078 29 14.5 29C6.49219 29 0 22.5082 0 14.5C0 6.49182 6.49219 0 14.5 0C22.5078 0 29 6.49182 29 14.5Z" fill="#FF0000" fill-opacity="1.000000" fill-rule="evenodd"/>
	<path id="Icon" d="M19.2422 9.04541L9.75 9.04541C9.375 9.04541 9 9.12012 8.64844 9.26538C8.29688 9.41052 7.97656 9.62329 7.71094 9.8916C7.44531 10.1598 7.23438 10.4783 7.08594 10.8287C6.94531 11.1792 6.86719 11.5547 6.86719 11.934L6.86719 17.0662C6.86719 17.4454 6.94531 17.821 7.08594 18.1715C7.23438 18.5219 7.44531 18.8403 7.71094 19.1086C7.97656 19.3768 8.29688 19.5896 8.64844 19.7349C9 19.88 9.375 19.9547 9.75 19.9547L19.2422 19.9547C19.625 19.9547 20 19.88 20.3516 19.7349C20.6953 19.5896 21.0156 19.3768 21.2891 19.1086C21.5547 18.8403 21.7656 18.5219 21.9141 18.1715C22.0547 17.821 22.1328 17.4454 22.1328 17.0662L22.1328 11.934C22.1328 11.5547 22.0547 11.1792 21.9141 10.8287C21.7656 10.4783 21.5547 10.1598 21.2891 9.8916C21.0156 9.62329 20.6953 9.41052 20.3516 9.26538C20 9.12012 19.625 9.04541 19.2422 9.04541ZM12.4844 16.8391L12.4844 12.161L16.5078 14.5001L12.4844 16.8391Z" fill="#FFFFFF" fill-opacity="1.000000" fill-rule="nonzero"/>
</svg>
