<svg width="73.695312" height="88.999756" viewBox="0 0 73.6953 88.9998" fill="none" xmlns="http://www.w3.org/2000/svg" xmlns:xlink="http://www.w3.org/1999/xlink">
	<desc>
			Created with Pixso.
	</desc>
	<defs/>
	<path id="XMLID_1287_" d="M16.3984 74.7803C16.3984 74.7798 16.3906 74.7683 16.3906 74.7678C15.7969 74.0156 14.7031 73.8943 13.9531 74.4895C13.2031 75.085 13.0781 76.1831 13.6719 76.936L13.7031 76.9744C14.0469 77.4023 14.5547 77.6245 15.0625 77.6245C15.4453 77.6245 15.8281 77.4993 16.1484 77.2419C16.8984 76.6411 17.0156 75.5469 16.4141 74.7981L16.3984 74.7803Z" fill="#009FE3" fill-opacity="1.000000" fill-rule="nonzero"/>
	<path id="XMLID_1408_" d="M43.3203 56.9778C43.3203 54.3687 41.2031 52.2461 38.5938 52.2461C35.9844 52.2461 33.8594 54.3687 33.8594 56.9778C33.8594 59.5869 35.9844 61.7097 38.5938 61.7097C41.2031 61.7097 43.3203 59.5869 43.3203 56.9778ZM37.3359 56.9778C37.3359 56.2859 37.8984 55.7227 38.5938 55.7227C39.2812 55.7227 39.8438 56.2856 39.8438 56.9778C39.8438 57.6702 39.2812 58.2332 38.5938 58.2332C37.8984 58.2332 37.3359 57.6699 37.3359 56.9778Z" fill="#009FE3" fill-opacity="1.000000" fill-rule="nonzero"/>
	<path id="XMLID_1410_" d="M52.3125 8.92285C53.2656 8.92285 54.0469 8.14453 54.0469 7.18457C54.0469 6.22461 53.2656 5.44629 52.3125 5.44629L52.3047 5.44629C51.3516 5.44629 50.5703 6.22461 50.5703 7.18457C50.5703 8.14453 51.3516 8.92285 52.3125 8.92285Z" fill="#009FE3" fill-opacity="1.000000" fill-rule="nonzero"/>
	<path id="XMLID_1430_" d="M72.5938 13.3623L59.1797 8.03784C58.2812 7.68359 57.2734 8.12012 56.9219 9.01245C56.5625 9.90479 57 10.915 57.8906 11.269L67.2422 14.978L38.5859 26.3477L9.92969 14.978L38.5859 3.60815L44.9688 6.14014C45.8594 6.49463 46.8672 6.05786 47.2266 5.16553C47.5781 4.27319 47.1406 3.2627 46.25 2.90894L39.2266 0.122314C38.8125 -0.0407715 38.3594 -0.0407715 37.9453 0.122314L4.57031 13.3623C3.91406 13.6252 3.47656 14.2654 3.47656 14.978L3.47656 25.0022C1.45312 25.7197 0 27.6519 0 29.9182L0 37.5667C0 38.5264 0.78125 39.3049 1.73438 39.3049L8.6875 39.3049C9.64844 39.3049 10.4297 38.5264 10.4297 37.5667L10.4297 29.9182C10.4297 27.6521 8.97656 25.7197 6.95312 25.0022L6.95312 17.5378L19.4688 22.5034L19.4688 31.8945C11.5391 37.8835 6.83594 47.292 6.83594 57.2463C6.83594 61.8921 7.82031 66.3696 9.75 70.5552C10.0469 71.1904 10.6719 71.5645 11.3281 71.5645C11.5781 71.5645 11.8203 71.5127 12.0625 71.4036C12.9297 71.0007 13.3125 69.9678 12.9062 69.0964C11.1875 65.3716 10.3125 61.3848 10.3125 57.2466C10.3125 49.2002 13.7656 41.5547 19.6875 36.2224C19.875 36.5688 20.1797 36.8489 20.5625 37.001L23.8672 38.3096C21.4531 40.1895 19.4062 42.5222 17.8594 45.1736C16.4922 47.5171 15.5391 50.0774 15.0312 52.7339C15.0078 52.8103 15 52.8887 14.9844 52.968C14.7344 54.3743 14.6016 55.8059 14.6016 57.2466C14.6016 70.4739 25.3594 81.2349 38.5859 81.2349C51.8203 81.2349 62.5781 70.4739 62.5781 57.2466C62.5781 55.8223 62.4453 54.4148 62.2031 53.0366C62.1875 52.9185 62.1719 52.8027 62.1328 52.6909C61.0312 47.0164 57.8906 41.8809 53.3125 38.3076L56.6172 36.9968C57 36.8447 57.3047 36.5662 57.4922 36.2209C63.4141 41.5532 66.8672 49.1995 66.8672 57.2466C66.8672 72.8381 54.1797 85.5232 38.5938 85.5232C32.1641 85.5232 26.1094 83.4243 21.0859 79.4531C20.3281 78.8582 19.2344 78.9868 18.6406 79.7405C18.0469 80.4937 18.1719 81.5869 18.9297 82.1819C24.5781 86.6421 31.375 88.9998 38.5938 88.9998C56.1016 88.9998 70.3438 74.7551 70.3438 57.2463C70.3438 47.2922 65.6406 37.8835 57.7109 31.8945L57.7109 22.4995L72.5938 16.5938C73.2578 16.3311 73.6953 15.6909 73.6953 14.978C73.6953 14.2654 73.2578 13.625 72.5938 13.3623ZM6.95312 35.8284L3.47656 35.8284L3.47656 29.9182C3.47656 28.9597 4.25781 28.1799 5.21875 28.1799C6.17188 28.1799 6.95312 28.9597 6.95312 29.9182L6.95312 35.8284ZM18.8281 62.7546L29.0781 62.7546C31.2969 62.7546 33.1016 64.5564 33.1016 66.7712L33.1016 77.0105C26.2031 75.0916 20.7578 69.6501 18.8281 62.7546ZM36.5781 77.6589L36.5781 66.7712C36.5781 62.6394 33.2109 59.2781 29.0781 59.2781L18.1797 59.2781C18.1094 58.6094 18.0781 57.9319 18.0781 57.2463C18.0781 56.3528 18.1406 55.4661 18.25 54.5916L31.5938 51.3721C36.1719 50.2686 41.0078 50.2681 45.5859 51.3721L58.9297 54.5916C59.0391 55.4661 59.1016 56.3523 59.1016 57.2463C59.1016 57.9319 59.0703 58.6096 59 59.2781L48.1016 59.2781C43.9688 59.2781 40.6016 62.6396 40.6016 66.7712L40.6016 77.6589C39.9453 77.7239 39.2734 77.7581 38.5938 77.7581C37.9141 77.7581 37.2344 77.7239 36.5781 77.6589ZM44.0781 77.0105L44.0781 66.7712C44.0781 64.5564 45.8828 62.7546 48.1016 62.7546L58.3516 62.7546C56.4219 69.6501 50.9766 75.0916 44.0781 77.0105ZM58.0547 50.8047L46.3984 47.9924C41.2891 46.76 35.8906 46.7598 30.7812 47.9927L19.125 50.8042C20.6172 46.321 23.6406 42.4043 27.7344 39.8438L37.9453 43.8958C38.1484 43.9773 38.3672 44.0183 38.5859 44.0183C38.8047 44.0183 39.0234 43.9773 39.2266 43.8958L49.4453 39.8403C53.5469 42.4028 56.5625 46.3184 58.0547 50.8047ZM54.2344 34.2004L38.5859 40.4099L22.9453 34.2048L22.9453 23.8831L37.9453 29.8337C38.1484 29.9153 38.3672 29.9563 38.5859 29.9563C38.8047 29.9563 39.0234 29.9153 39.2266 29.8337L54.2344 23.8789L54.2344 34.2004Z" fill="#009FE3" fill-opacity="1.000000" fill-rule="nonzero"/>
</svg>
