<svg width="90.000000" height="90.000000" viewBox="0 0 90 90" fill="none" xmlns="http://www.w3.org/2000/svg" xmlns:xlink="http://www.w3.org/1999/xlink">
	<desc>
			Created with Pixso.
	</desc>
	<defs>
		<clipPath id="clip877_12151">
			<rect id="shield (11) 1" width="90.000000" height="90.000000" fill="white" fill-opacity="0"/>
		</clipPath>
	</defs>
	<rect id="shield (11) 1" width="90.000000" height="90.000000" fill="#FFFFFF" fill-opacity="0"/>
	<g clip-path="url(#clip877_12151)">
		<path id="Vector" d="M81.5312 13.7815L45.5312 0.282715C45.2109 0.162598 44.8594 0.156006 44.5312 0.264404L8.53125 12.2634C7.92188 12.4678 7.50781 13.0413 7.50781 13.687L7.50781 45.2324C7.53125 62.2349 17.4375 77.6719 32.8828 84.7815L44.3828 90.051C44.7734 90.2327 45.2344 90.2327 45.6328 90.051L57.125 84.7815C72.5703 77.6719 82.4766 62.2349 82.5 45.2324L82.5 15.187C82.5 14.5615 82.1172 14.0012 81.5312 13.7815ZM79.5 45.2324C79.4766 61.0596 70.2578 75.4292 55.8828 82.0476L45.0078 87.0315L34.1328 82.0476C19.75 75.4292 10.5312 61.0596 10.5078 45.2324L10.5078 14.7681L44.9766 3.27954L79.5 16.2263L79.5 45.2324Z" fill="#009FE3" fill-opacity="1.000000" fill-rule="nonzero"/>
		<path id="Vector" d="M44.4141 6.62891L14.5312 16.5884C13.9219 16.7917 13.5078 17.3652 13.5078 18.0112L13.5078 45.2327C13.5312 59.8872 22.0703 73.1929 35.3828 79.3206L44.3828 83.4453C44.7734 83.6277 45.2344 83.6277 45.6328 83.4453L54.6328 79.3206C67.9453 73.1929 76.4766 59.8872 76.5 45.2327L76.5 19.345C76.5 18.7195 76.1172 18.1592 75.5312 17.9395L70.9766 16.2368C70.2031 15.968 69.3594 16.3643 69.0781 17.1279C68.7891 17.8918 69.1641 18.7444 69.9219 19.0461L73.5 20.384L73.5 45.2327C73.4844 58.7156 65.625 70.957 53.3828 76.594L45.0078 80.4324L36.6328 76.594C24.3828 70.957 16.5312 58.7156 16.5078 45.2327L16.5078 19.0872L44.8516 9.63745L58.7031 14.8313C59.2031 15.0327 59.7812 14.9456 60.2031 14.6028C60.625 14.2593 60.8281 13.7151 60.7344 13.1799C60.6406 12.6445 60.2656 12.2014 59.75 12.0227L45.4141 6.64722C45.0938 6.52637 44.7344 6.52051 44.4141 6.62891Z" fill="#009FE3" fill-opacity="1.000000" fill-rule="nonzero"/>
		<path id="Vector" d="M63.4766 16.6221L65.4453 17.3611C65.9531 17.5625 66.5234 17.4753 66.9453 17.1318C67.3672 16.7891 67.5703 16.2449 67.4766 15.7095C67.3828 15.1741 67.0078 14.7312 66.4922 14.5525L64.5234 13.8127C64.0156 13.6113 63.4453 13.6992 63.0234 14.042C62.6016 14.3848 62.3984 14.929 62.4922 15.4641C62.5859 15.9995 62.9609 16.4426 63.4766 16.6221Z" fill="#009FE3" fill-opacity="1.000000" fill-rule="nonzero"/>
		<path id="Vector" d="M66.3203 38.2581C65.9297 37.0132 64.7734 36.1709 63.4688 36.1855L51.5391 36.1855L47.8516 24.8433C47.4453 23.6123 46.2969 22.7803 45 22.7803C43.7109 22.7803 42.5547 23.6123 42.1562 24.8433L38.4688 36.1855L26.5391 36.1855C25.2422 36.1855 24.0859 37.0227 23.6875 38.2588C23.2812 39.4944 23.7266 40.8484 24.7734 41.6123L34.4219 48.6226L30.7344 59.9648C30.3359 61.2009 30.7734 62.5552 31.8281 63.3188C32.8828 64.0828 34.3047 64.0828 35.3516 63.3184L45 56.3096L54.6484 63.3184C55.7031 64.0828 57.125 64.0828 58.1797 63.3188C59.2344 62.5552 59.6719 61.2009 59.2656 59.9648L55.5859 48.6226L65.2344 41.6123C66.2969 40.8564 66.7344 39.4944 66.3203 38.2581ZM53.8203 46.1941C52.7656 46.958 52.3281 48.3127 52.7266 49.5498L56.4141 60.8918L46.7656 53.8838C45.7188 53.1172 44.2891 53.1172 43.2422 53.8838L33.5938 60.8948L37.2734 49.5542C37.6797 48.3179 37.2422 46.9609 36.1875 46.1985L26.5391 39.1853L38.4688 39.1853C39.7656 39.1838 40.9141 38.3474 41.3125 37.1128L45 25.7507L45 25.7705L48.6875 37.1128C49.0938 38.3481 50.2422 39.1853 51.5391 39.1853L63.4688 39.1853L53.8203 46.1941Z" fill="#009FE3" fill-opacity="1.000000" fill-rule="nonzero"/>
	</g>
</svg>
