<svg width="89.000000" height="89.000000" viewBox="0 0 89 89" fill="none" xmlns="http://www.w3.org/2000/svg" xmlns:xlink="http://www.w3.org/1999/xlink">
	<desc>
			Created with Pixso.
	</desc>
	<defs>
		<clipPath id="clip877_12188">
			<rect id="driver 1" width="89.000000" height="89.000000" fill="white" fill-opacity="0"/>
		</clipPath>
	</defs>
	<rect id="driver 1" width="89.000000" height="89.000000" fill="#FFFFFF" fill-opacity="0"/>
	<g clip-path="url(#clip877_12188)">
		<mask id="mask877_12192" mask-type="alpha" maskUnits="userSpaceOnUse" x="0.000000" y="0.000000" width="89.000000" height="89.000000">
			<path id="path3792" d="M0 0L89 0L89 89L0 89L0 0Z" fill="#000000" fill-opacity="1.000000" fill-rule="nonzero"/>
		</mask>
		<g mask="url(#mask877_12192)">
			<path id="path3798" d="M36.9766 1.44043C40.9297 0.946777 45.1641 1.802 48.5781 3.74731C49.4531 4.24268 50.4375 4.49121 51.4453 4.49121L51.4922 4.49121C56.9688 4.49121 61.3672 8.99512 61.25 14.4673L61 25.5244" stroke="#009FE3" stroke-opacity="1.000000" stroke-width="3.000000" stroke-linejoin="round" stroke-linecap="round"/>
			<path id="path3802" d="M27.9844 25.5244L27.8281 18.5608C27.8125 17.9666 27.6094 17.3823 27.2266 16.9304C25.0391 14.3804 25.2266 10.0347 27.1172 7.18726C28.2109 5.54639 29.6172 4.27051 31.2188 3.3335" stroke="#009FE3" stroke-opacity="1.000000" stroke-width="3.000000" stroke-linejoin="round" stroke-linecap="round"/>
			<path id="path3806" d="M65.1562 79.2939L65.1562 74.2493" stroke="#009FE3" stroke-opacity="1.000000" stroke-width="3.000000" stroke-linejoin="round" stroke-linecap="round"/>
			<path id="path3810" d="M54.5469 36.6816C55.4766 38.2495 56.7891 39.5811 58.3906 40.5439C62.4453 42.9846 65.1562 47.4241 65.1562 52.5L65.1562 57.793" stroke="#009FE3" stroke-opacity="1.000000" stroke-width="3.000000" stroke-linejoin="round" stroke-linecap="round"/>
			<path id="path3814" d="M23.8438 57.791L23.8438 52.4998C23.8438 47.4238 26.5547 42.9841 30.6094 40.5437C32.2031 39.5823 33.5156 38.2561 34.4453 36.6934" stroke="#009FE3" stroke-opacity="1.000000" stroke-width="3.000000" stroke-linejoin="round" stroke-linecap="round"/>
			<path id="path3818" d="M23.8438 79.2939L23.8438 74.2493" stroke="#009FE3" stroke-opacity="1.000000" stroke-width="3.000000" stroke-linejoin="round" stroke-linecap="round"/>
			<path id="path3822" d="M18.9844 69.7695L26.2109 51.9885C27.5469 48.6841 30.7578 46.5217 34.3281 46.5217L39.2422 46.5217" stroke="#009FE3" stroke-opacity="1.000000" stroke-width="3.000000" stroke-linejoin="round" stroke-linecap="round"/>
			<path id="path3826" d="M70.0156 69.7695L68.4844 65.9956" stroke="#009FE3" stroke-opacity="1.000000" stroke-width="3.000000" stroke-linejoin="round" stroke-linecap="round"/>
			<path id="path3830" d="M49.7656 46.522L54.6797 46.522C58.2422 46.522 61.4531 48.6841 62.7969 51.9888L66.1641 60.2803" stroke="#009FE3" stroke-opacity="1.000000" stroke-width="3.000000" stroke-linejoin="round" stroke-linecap="round"/>
			<path id="path3834" d="M59.6484 71.5037C59.6797 71.8879 59.6953 72.2754 59.6953 72.6685C59.6953 74.3894 59.4141 76.0442 58.8828 77.5859" stroke="#009FE3" stroke-opacity="1.000000" stroke-width="3.000000" stroke-linejoin="round" stroke-linecap="round"/>
			<path id="path3838" d="M35.8516 60.1719C38.3047 58.4702 41.2891 57.4724 44.5 57.4724C47.7109 57.4724 50.6875 58.4702 53.1406 60.1719" stroke="#009FE3" stroke-opacity="1.000000" stroke-width="3.000000" stroke-linejoin="round" stroke-linecap="round"/>
			<path id="path3842" d="M29.3516 71.5037C29.3203 71.8879 29.3047 72.2754 29.3047 72.6685C29.3047 74.3894 29.5859 76.0442 30.1172 77.5859" stroke="#009FE3" stroke-opacity="1.000000" stroke-width="3.000000" stroke-linejoin="round" stroke-linecap="round"/>
			<path id="path3846" d="M53.8359 69.0076C54.2812 70.1426 54.5312 71.377 54.5312 72.6685C54.5312 73.6177 54.3984 74.5354 54.1484 75.4062" stroke="#009FE3" stroke-opacity="1.000000" stroke-width="3.000000" stroke-linejoin="round" stroke-linecap="round"/>
			<path id="path3850" d="M38.1562 64.916C39.8828 63.4956 42.0938 62.644 44.5 62.644C46.9062 62.644 49.125 63.4956 50.8516 64.916" stroke="#009FE3" stroke-opacity="1.000000" stroke-width="3.000000" stroke-linejoin="round" stroke-linecap="round"/>
			<path id="path3854" d="M34.8594 75.4062C34.6094 74.5354 34.4766 73.6177 34.4766 72.6685C34.4766 71.377 34.7188 70.1428 35.1719 69.0076" stroke="#009FE3" stroke-opacity="1.000000" stroke-width="3.000000" stroke-linejoin="round" stroke-linecap="round"/>
			<path id="path3858" d="M49.8203 39.7158L49.8203 45.8469C49.8203 46.9592 49.3359 48.0178 48.4922 48.741L47.4844 49.5962C45.7656 51.0669 43.2266 51.0669 41.5078 49.5962L40.5078 48.741C39.6562 48.0178 39.1719 46.9592 39.1719 45.8469L39.1719 39.7212" stroke="#009FE3" stroke-opacity="1.000000" stroke-width="3.000000" stroke-linejoin="round" stroke-linecap="round"/>
			<path id="path3862" d="M56.5547 25.2068L59.5703 25.2068C61.4297 25.2068 62.9297 26.7122 62.9297 28.5688C62.9297 30.4253 61.4297 31.9307 59.5703 31.9307L56.4688 31.9307" stroke="#009FE3" stroke-opacity="1.000000" stroke-width="3.000000" stroke-linejoin="round" stroke-linecap="round"/>
			<path id="path3866" d="M32.4219 25.2068L29.4062 25.2068C27.5469 25.2068 26.0469 26.7122 26.0469 28.5688C26.0469 30.4253 27.5469 31.9307 29.4062 31.9307L32.5078 31.9307" stroke="#009FE3" stroke-opacity="1.000000" stroke-width="3.000000" stroke-linejoin="round" stroke-linecap="round"/>
			<path id="path3870" d="M52.3516 12.1836C52.3203 12.1558 52.2812 12.1299 52.25 12.1021C51.6562 11.6169 50.8047 11.6138 50.1953 12.0779C45.9453 15.3076 40.8125 17.355 35.5078 17.9426C34.3516 18.0713 33.3984 18.9333 33.1562 20.074C32.8125 21.7285 32.5625 23.4844 32.4297 25.2068C32.2344 27.644 32.25 30.0117 32.5156 31.9307C32.6797 33.1282 32.9297 34.1504 33.2891 34.9067C33.5938 35.5586 33.9844 36.1531 34.4531 36.6934C38.9297 41.8738 50.0859 41.8684 54.5469 36.6814C55.0078 36.1443 55.3984 35.5532 55.7031 34.9067C56.0547 34.1504 56.3125 33.1282 56.4766 31.9307C56.7344 30.0117 56.7578 27.644 56.5625 25.2068C56.1328 19.8357 54.6484 14.1343 52.3516 12.1836Z" stroke="#009FE3" stroke-opacity="1.000000" stroke-width="3.000000" stroke-linejoin="round"/>
			<path id="path3874" d="M39.4062 26.4407L39.4062 26.793" stroke="#009FE3" stroke-opacity="1.000000" stroke-width="3.000000" stroke-linejoin="round" stroke-linecap="round"/>
			<path id="path3878" d="M49.5703 26.4407L49.5703 26.793" stroke="#009FE3" stroke-opacity="1.000000" stroke-width="3.000000" stroke-linejoin="round" stroke-linecap="round"/>
			<path id="path3882" d="M46.7734 33.1365C45.4453 33.8269 43.5391 33.8269 42.2031 33.1365" stroke="#009FE3" stroke-opacity="1.000000" stroke-width="3.000000" stroke-linejoin="round" stroke-linecap="round"/>
			<path id="path3886" d="M67.3984 87.6963L79.7188 87.6963C80.2266 87.6963 80.6406 87.2827 80.6406 86.7729L80.6406 85.2625C80.6406 81.9661 77.9688 79.2937 74.6719 79.2937L63.4922 79.2937C62.0938 79.2937 60.7188 78.8716 59.5781 78.0574C56.5156 75.8674 52.8125 74.6565 48.9766 74.6565L40.0312 74.6565C36.1953 74.6565 32.4922 75.8674 29.4297 78.0574C28.2891 78.8716 26.9141 79.2937 25.5156 79.2937L14.3359 79.2937C11.0391 79.2937 8.36719 81.9661 8.36719 85.2625L8.36719 86.7729C8.36719 87.2827 8.78125 87.6963 9.28906 87.6963L61.3125 87.6963" stroke="#009FE3" stroke-opacity="1.000000" stroke-width="3.000000" stroke-linejoin="round" stroke-linecap="round"/>
			<path id="path3890" d="M57.9844 63.583L69.1875 69.1665C70.75 69.9487 71.3906 71.8538 70.6094 73.4219C69.8281 74.9897 67.9219 75.6277 66.3516 74.8455L56.2734 69.8201" stroke="#009FE3" stroke-opacity="1.000000" stroke-width="3.000000" stroke-linejoin="round" stroke-linecap="round"/>
			<path id="path3894" d="M55.2031 60.4346C54.625 59.783 53.625 59.7217 52.9766 60.2986L52.1562 61.0193C50.4531 62.5317 50.2891 65.1436 51.8047 66.8533L53.1953 68.4248C54.7031 70.1343 57.3203 70.2942 59.0234 68.7817L59.8438 68.061C60.4922 67.4844 60.5547 66.4885 59.9766 65.8367L55.2031 60.4346Z" stroke="#009FE3" stroke-opacity="1.000000" stroke-width="3.000000" stroke-linejoin="round"/>
			<path id="path3898" d="M31.0156 63.583L19.8203 69.1665C18.25 69.9487 17.6172 71.8538 18.3984 73.4219C19.1797 74.9897 21.0859 75.6277 22.6562 74.8455L32.7344 69.8201" stroke="#009FE3" stroke-opacity="1.000000" stroke-width="3.000000" stroke-linejoin="round" stroke-linecap="round"/>
			<path id="path3902" d="M33.7969 60.4346C34.375 59.783 35.375 59.7217 36.0234 60.2986L36.8359 61.0193C38.5469 62.5317 38.7109 65.1436 37.1953 66.8533L35.8047 68.4248C34.2969 70.1343 31.6797 70.2942 29.9688 68.7817L29.1562 68.061C28.5078 67.4844 28.4453 66.4885 29.0234 65.8367L33.7969 60.4346Z" stroke="#009FE3" stroke-opacity="1.000000" stroke-width="3.000000" stroke-linejoin="round"/>
		</g>
	</g>
</svg>
